<svg xmlns="http://www.w3.org/2000/svg" xmlns:xlink="http://www.w3.org/1999/xlink" width="1440" zoomAndPan="magnify" viewBox="0 0 1080 435.749989" height="581" preserveAspectRatio="xMidYMid meet" version="1.0"><defs><clipPath id="4b3f82638a"><path d="M 0.308594 0 L 1079.6875 0 L 1079.6875 435.5 L 0.308594 435.5 Z M 0.308594 0 " clip-rule="nonzero"/></clipPath><clipPath id="4bb6f0303c"><path d="M 739 123 L 1079.6875 123 L 1079.6875 435.5 L 739 435.5 Z M 739 123 " clip-rule="nonzero"/></clipPath><clipPath id="8174fef0d3"><path d="M 0.308594 107 L 279 107 L 279 435.5 L 0.308594 435.5 Z M 0.308594 107 " clip-rule="nonzero"/></clipPath></defs><g clip-path="url(#4b3f82638a)"><path fill="#ffffff" d="M 0.308594 0 L 1079.691406 0 L 1079.691406 435.5 L 0.308594 435.5 Z M 0.308594 0 " fill-opacity="1" fill-rule="nonzero"/><path fill="#ffffff" d="M 0.308594 0 L 1079.691406 0 L 1079.691406 435.5 L 0.308594 435.5 Z M 0.308594 0 " fill-opacity="1" fill-rule="nonzero"/><path fill="#0085f6" d="M 0.3125 -0.0429688 L 1081.1875 -0.0429688 L 1081.1875 435.972656 L 0.3125 435.972656 Z M 0.3125 -0.0429688 " fill-opacity="1" fill-rule="nonzero"/></g><g clip-path="url(#4bb6f0303c)"><path fill="#ffffff" d="M 916.429688 123.03125 C 1014.054688 123.03125 1093.199219 204.140625 1093.199219 304.195312 C 1093.199219 404.253906 1014.054688 485.363281 916.429688 485.363281 C 818.804688 485.363281 739.660156 404.253906 739.660156 304.195312 C 739.660156 204.140625 818.804688 123.03125 916.429688 123.03125 Z M 916.429688 176.238281 C 847.496094 176.238281 791.609375 233.527344 791.609375 304.195312 C 791.617188 374.867188 847.496094 432.152344 916.429688 432.152344 C 985.367188 432.152344 1041.242188 374.867188 1041.242188 304.195312 C 1041.242188 233.527344 985.367188 176.242188 916.429688 176.238281 Z M 916.429688 176.238281 " fill-opacity="0.05" fill-rule="nonzero"/></g><path fill="#ffffff" d="M 526.113281 -149.382812 C 623.738281 -149.382812 702.882812 -68.273438 702.882812 31.78125 C 702.882812 131.835938 623.738281 212.949219 526.113281 212.949219 C 428.488281 212.949219 349.34375 131.835938 349.34375 31.78125 C 349.34375 -68.273438 428.488281 -149.382812 526.113281 -149.382812 Z M 526.113281 -96.175781 C 457.179688 -96.175781 401.300781 -38.886719 401.300781 31.78125 C 401.300781 102.449219 457.179688 159.738281 526.113281 159.738281 C 595.046875 159.738281 650.929688 102.449219 650.929688 31.78125 C 650.929688 -38.886719 595.046875 -96.175781 526.113281 -96.175781 Z M 526.113281 -96.175781 " fill-opacity="0.05" fill-rule="nonzero"/><g clip-path="url(#8174fef0d3)"><path fill="#ffffff" d="M 102.019531 107.273438 C 199.644531 107.273438 278.789062 188.382812 278.789062 288.4375 C 278.789062 388.492188 199.644531 469.605469 102.019531 469.605469 C 4.394531 469.605469 -74.75 388.492188 -74.75 288.4375 C -74.75 188.382812 4.394531 107.273438 102.019531 107.273438 Z M 102.019531 160.480469 C 33.085938 160.480469 -22.796875 217.769531 -22.796875 288.4375 C -22.792969 359.105469 33.085938 416.394531 102.019531 416.394531 C 170.953125 416.394531 226.835938 359.105469 226.835938 288.4375 C 226.835938 217.769531 170.953125 160.480469 102.019531 160.480469 Z M 102.019531 160.480469 " fill-opacity="0.05" fill-rule="nonzero"/></g></svg>