<svg width="20" height="20" viewBox="0 0 20 20" fill="none" xmlns="http://www.w3.org/2000/svg">
<g clip-path="url(#clip0_19_153)">
<path d="M14.5834 5.4165H14.5917M5.83335 1.6665H14.1667C16.4679 1.6665 18.3334 3.53198 18.3334 5.83317V14.1665C18.3334 16.4677 16.4679 18.3332 14.1667 18.3332H5.83335C3.53217 18.3332 1.66669 16.4677 1.66669 14.1665V5.83317C1.66669 3.53198 3.53217 1.6665 5.83335 1.6665ZM13.3334 9.47484C13.4362 10.1684 13.3177 10.8767 12.9948 11.499C12.6719 12.1213 12.161 12.626 11.5347 12.9412C10.9084 13.2564 10.1987 13.3662 9.50651 13.2548C8.81429 13.1434 8.17482 12.8166 7.67905 12.3208C7.18328 11.825 6.85646 11.1856 6.74508 10.4933C6.63369 9.80113 6.74341 9.09142 7.05863 8.46515C7.37384 7.83888 7.87851 7.32795 8.50084 7.00504C9.12317 6.68212 9.83148 6.56366 10.525 6.6665C11.2325 6.77141 11.8874 7.10106 12.3931 7.60676C12.8988 8.11246 13.2284 8.7674 13.3334 9.47484Z" stroke="#0085F6" stroke-width="2" stroke-linecap="round" stroke-linejoin="round"/>
</g>
<defs>
<clipPath id="clip0_19_153">
<rect width="20" height="20" fill="white"/>
</clipPath>
</defs>
</svg>
