<svg width="60" height="60" viewBox="0 0 60 60" fill="none" xmlns="http://www.w3.org/2000/svg">
<path d="M29.8536 0C29.0629 0 28.413 0.639903 28.413 1.4425V17.386C28.413 18.1778 29.0521 18.8285 29.8536 18.8285C30.6552 18.8285 31.2943 18.1886 31.2943 17.386V1.4425C31.2943 0.650749 30.6552 0 29.8536 0Z" fill="#01004C"/>
<path d="M29.8536 40.9434C29.0629 40.9434 28.413 41.5833 28.413 42.3859V58.3294C28.413 59.1211 29.0521 59.7719 29.8536 59.7719C30.6552 59.7719 31.2943 59.132 31.2943 58.3294V42.3859C31.2943 41.5941 30.6552 40.9434 29.8536 40.9434Z" fill="#01004C"/>
<path d="M58.2558 28.4489H42.3324C41.5417 28.4489 40.8917 29.0888 40.8917 29.8914C40.8917 30.694 41.5308 31.3339 42.3324 31.3339H58.2558C59.0466 31.3339 59.6965 30.694 59.6965 29.8914C59.6965 29.0888 59.0574 28.4489 58.2558 28.4489Z" fill="#01004C"/>
<path d="M18.8048 29.8805C18.8048 29.0888 18.1657 28.438 17.3641 28.438H1.44071C0.649953 28.438 0 29.0779 0 29.8805C0 30.6831 0.639121 31.323 1.44071 31.323H17.3641C18.1548 31.323 18.8048 30.6831 18.8048 29.8805Z" fill="#01004C"/>
<path d="M20.0072 37.7113L8.75247 48.9802C8.1892 49.5442 8.1892 50.4552 8.75247 51.0192C9.03411 51.3012 9.40241 51.4422 9.77071 51.4422C10.139 51.4422 10.5073 51.3012 10.7889 51.0192L22.0436 39.7503C22.6069 39.1863 22.6069 38.2753 22.0436 37.7113C21.4803 37.1473 20.5704 37.1473 20.0072 37.7113Z" fill="#01004C"/>
<path d="M38.682 22.4944C39.0503 22.4944 39.4186 22.3534 39.7002 22.0714L50.9549 10.8025C51.5182 10.2385 51.5182 9.32749 50.9549 8.76351C50.3916 8.19952 49.4817 8.19952 48.9184 8.76351L37.6637 20.0324C37.1005 20.5964 37.1005 21.5075 37.6637 22.0714C37.9454 22.3534 38.3137 22.4944 38.682 22.4944Z" fill="#01004C"/>
<path d="M10.7781 8.75264C10.2148 8.18865 9.30489 8.18865 8.74161 8.75264C8.17833 9.31663 8.17833 10.2277 8.74161 10.7917L19.9963 22.0606C20.278 22.3426 20.6463 22.4836 21.0146 22.4836C21.3829 22.4836 21.7511 22.3426 22.0328 22.0606C22.596 21.4966 22.596 20.5855 22.0328 20.0216L10.7781 8.75264Z" fill="#01004C"/>
<path d="M39.7002 37.7113C39.1369 37.1473 38.227 37.1473 37.6637 37.7113C37.1005 38.2753 37.1005 39.1863 37.6637 39.7503L48.9184 51.0192C49.2001 51.3012 49.5683 51.4422 49.9366 51.4422C50.3049 51.4422 50.6732 51.3012 50.9549 51.0192C51.5182 50.4552 51.5182 49.5442 50.9549 48.9802L39.7002 37.7113Z" fill="#01004C"/>
</svg>
