<svg width="203" height="205" viewBox="0 0 203 205" fill="none" xmlns="http://www.w3.org/2000/svg">
<path d="M131.826 120.932C160.368 120.932 183.506 97.7646 183.506 69.1861C183.506 40.6077 160.368 17.4402 131.826 17.4402C103.283 17.4402 80.1451 40.6077 80.1451 69.1861C80.1451 97.7646 103.283 120.932 131.826 120.932Z" fill="white"/>
<path d="M199.668 53.3945C200.578 57.8738 201.055 62.505 201.055 67.2556C201.055 105.466 170.118 136.442 131.956 136.442C116.476 136.442 102.189 131.333 90.674 122.722C91.6597 123.893 91.6164 125.639 90.5115 126.735L81.1633 136.095C80.0042 137.255 78.1194 137.255 76.9604 136.095L75.1514 134.283L65.2399 144.413C66.7997 146.257 67.7421 147.635 67.4388 147.928L20.8385 194.077C16.1048 198.773 8.42478 198.773 3.68025 194.077C3.07365 193.48 2.54287 192.83 2.09875 192.136C1.8821 195.465 3.04115 198.871 5.61923 201.42C10.3529 206.116 18.033 206.116 22.7775 201.42L69.3778 155.27C69.6811 154.967 68.7387 153.6 67.1789 151.756L77.0904 141.626L78.8993 143.437C80.0584 144.598 81.9432 144.598 83.1023 143.437L92.4505 134.066C93.5554 132.96 93.5987 131.225 92.613 130.053C104.128 138.665 118.415 143.774 133.895 143.774C172.057 143.774 202.994 112.798 202.994 74.5874C202.994 67.1905 201.824 60.0647 199.679 53.3836L199.668 53.3945Z" fill="#CFCFE2"/>
<path d="M131.826 114.142C107.074 114.142 86.9368 93.9799 86.9368 69.197C86.9368 65.3358 87.4243 61.4963 88.3992 57.7979C88.475 57.5051 88.7675 57.3315 89.06 57.4074C89.3524 57.4834 89.5257 57.7762 89.4499 58.069C88.5075 61.6807 88.0309 65.4334 88.0309 69.197C88.0309 93.3834 107.681 113.058 131.836 113.058C155.992 113.058 175.642 93.3834 175.642 69.197C175.642 45.0106 155.992 25.3361 131.836 25.3361C131.533 25.3361 131.295 25.0974 131.295 24.7938C131.295 24.4901 131.533 24.2515 131.836 24.2515C156.588 24.2515 176.725 44.414 176.725 69.197C176.725 93.9799 156.588 114.142 131.836 114.142H131.826Z" fill="#01004C"/>
<path d="M90.544 124.663C90.4899 124.598 90.4465 124.533 90.3816 124.468L76.3971 110.466L76.2996 110.368C75.1406 109.208 73.2558 109.208 72.0967 110.368L62.7485 119.739C61.5894 120.899 61.5894 122.787 62.7485 123.947L63.4526 124.652L75.0323 136.246L76.8412 138.058C78.0003 139.218 79.8851 139.218 81.0441 138.058L90.3924 128.687C91.4973 127.581 91.5406 125.845 90.5549 124.674L90.544 124.663Z" fill="#01004C"/>
<path d="M53.5086 134.88C53.5086 134.88 53.4761 134.847 53.4544 134.836C51.7212 133.416 50.443 132.591 50.1506 132.884L3.55027 179.034C-1.18342 183.73 -1.18342 191.333 3.55027 196.029C8.28396 200.725 15.964 200.725 20.7085 196.029L67.3088 149.88C67.6121 149.576 66.6697 148.209 65.1099 146.366C64.9366 146.17 64.7741 145.964 64.59 145.758C61.5786 142.309 56.7582 137.559 53.5194 134.88H53.5086Z" fill="#01004C"/>
<path d="M131.826 0C93.6637 0 62.7268 30.9759 62.7268 69.1861C62.7268 84.6633 67.8288 98.9365 76.4079 110.466L90.3924 124.468C90.4573 124.533 90.5007 124.598 90.5548 124.663C102.07 133.275 116.357 138.383 131.837 138.383C169.999 138.383 200.935 107.407 200.935 69.197C200.935 30.9868 169.999 0.01084 131.837 0.01084L131.826 0ZM131.826 120.943C103.283 120.943 80.1451 97.776 80.1451 69.197C80.1451 64.6634 80.73 60.2599 81.824 56.0626C82.1274 54.8804 82.4848 53.7198 82.864 52.581C83.4164 50.9433 84.0555 49.3489 84.7596 47.7871C86.4819 43.9911 88.6592 40.4336 91.2048 37.1907C94.3786 33.156 98.1374 29.6094 102.351 26.6701C104.149 25.4228 106.034 24.2732 107.984 23.2537C109.674 22.3751 111.429 21.5834 113.227 20.8892C119 18.6658 125.261 17.4402 131.815 17.4402C160.358 17.4402 183.495 40.6071 183.495 69.1861C183.495 97.7651 160.358 120.932 131.815 120.932L131.826 120.943Z" fill="#0085F6"/>
<path d="M191.912 54.9129C191.165 54.9129 190.482 54.3923 190.32 53.6223C183.983 23.5248 160.986 15.8676 160.748 15.7917C159.892 15.5205 159.415 14.6095 159.686 13.7526C159.957 12.8958 160.867 12.4186 161.723 12.6897C162.741 13.0151 186.745 20.9218 193.494 52.9498C193.678 53.8283 193.115 54.696 192.237 54.8804C192.129 54.9021 192.01 54.9129 191.901 54.9129H191.912Z" fill="white"/>
</svg>
