<svg width="571" height="359" viewBox="0 0 571 359" fill="none" xmlns="http://www.w3.org/2000/svg">
<g clip-path="url(#clip0_95_620)">
<path d="M73.6051 306.56C73.4101 306.56 73.226 306.452 73.1285 306.278L69.9546 300.432L64.1377 297.222C63.9644 297.124 63.8561 296.94 63.8561 296.744C63.8561 296.549 63.9644 296.365 64.1377 296.267L69.9763 293.089L73.1826 287.265C73.2801 287.092 73.4643 286.983 73.6593 286.983C73.8542 286.983 74.0384 287.092 74.1359 287.265L77.3097 293.111L83.1266 296.311C83.2999 296.408 83.4083 296.593 83.4083 296.788C83.4083 296.983 83.2999 297.167 83.1266 297.265L77.2881 300.443L74.0817 306.267C73.9842 306.441 73.8001 306.549 73.6051 306.549V306.56ZM65.5242 296.755L70.6154 299.564C70.7021 299.619 70.7779 299.695 70.832 299.781L73.6051 304.89L76.4106 299.792C76.4648 299.705 76.5406 299.629 76.6273 299.575L81.7293 296.799L76.6381 294C76.5515 293.946 76.4756 293.87 76.4215 293.783L73.6484 288.675L70.8429 293.773C70.7887 293.859 70.7129 293.935 70.6262 293.99L65.5242 296.766V296.755Z" fill="#2AAFEB"/>
<path d="M450.449 218C450.08 218 449.731 217.795 449.547 217.467L443.541 206.418L432.533 200.351C432.205 200.166 432 199.818 432 199.449C432 199.08 432.205 198.731 432.533 198.547L443.582 192.541L449.649 181.533C449.834 181.205 450.182 181 450.551 181C450.92 181 451.269 181.205 451.453 181.533L457.459 192.582L468.467 198.649C468.795 198.834 469 199.182 469 199.551C469 199.92 468.795 200.269 468.467 200.453L457.418 206.459L451.351 217.467C451.166 217.795 450.818 218 450.449 218ZM435.177 199.469L444.812 204.778C444.976 204.881 445.119 205.024 445.222 205.188L450.469 214.843L455.758 205.209C455.86 205.045 456.004 204.901 456.168 204.799L465.823 199.551L456.188 194.242C456.024 194.14 455.881 193.996 455.778 193.832L450.531 184.177L445.222 193.812C445.119 193.976 444.976 194.119 444.812 194.222L435.157 199.469H435.177Z" fill="#2AAFEB"/>
<path d="M38.7361 132.863C36.418 132.863 34.5223 130.964 34.5223 128.643C34.5223 126.322 36.418 124.424 38.7361 124.424C41.0542 124.424 42.9498 126.322 42.9498 128.643C42.9498 130.964 41.0542 132.863 38.7361 132.863ZM38.7361 125.509C37.0138 125.509 35.6056 126.919 35.6056 128.643C35.6056 130.368 37.0138 131.778 38.7361 131.778C40.4584 131.778 41.8666 130.368 41.8666 128.643C41.8666 126.919 40.4584 125.509 38.7361 125.509Z" fill="#2AAFEB"/>
<path d="M336.46 23.4923H321.967V77.4616H336.46V23.4923Z" fill="black"/>
<path d="M357.442 0H344.032C343.733 0 343.49 0.242794 343.49 0.542296V76.9193C343.49 77.2188 343.733 77.4616 344.032 77.4616H357.442C357.742 77.4616 357.984 77.2188 357.984 76.9193V0.542296C357.984 0.242794 357.742 0 357.442 0Z" fill="black"/>
<path d="M377.395 32.3751H362.902V77.4616H377.395V32.3751Z" fill="black"/>
<path d="M165.441 40.0215C165.3 40.0215 165.159 39.9672 165.051 39.8588L147.275 21.4966C147.069 21.2797 147.069 20.9326 147.286 20.7266C147.503 20.5205 147.838 20.5205 148.055 20.7374L165.462 38.7199L184.625 20.7266C184.82 20.5422 185.112 20.5313 185.329 20.694L208.261 38.4922C208.499 38.6766 208.542 39.0128 208.358 39.2514C208.174 39.49 207.838 39.5334 207.6 39.349L185.036 21.8328L165.82 39.8805C165.712 39.9781 165.582 40.0323 165.452 40.0323L165.441 40.0215Z" fill="#01004C"/>
<path d="M152.54 21.117C152.54 23.8068 150.362 25.9868 147.676 25.9868C144.99 25.9868 142.812 23.8068 142.812 21.117C142.812 18.4272 144.99 16.2472 147.676 16.2472C150.362 16.2472 152.54 18.4272 152.54 21.117Z" fill="#0085F6"/>
<path d="M147.665 26.5291C144.686 26.5291 142.26 24.0996 142.26 21.117C142.26 18.1344 144.686 15.7049 147.665 15.7049C150.644 15.7049 153.07 18.1344 153.07 21.117C153.07 24.0996 150.644 26.5291 147.665 26.5291ZM147.665 16.7786C145.282 16.7786 143.343 18.7201 143.343 21.1062C143.343 23.4923 145.282 25.4337 147.665 25.4337C150.048 25.4337 151.987 23.4923 151.987 21.1062C151.987 18.7201 150.048 16.7786 147.665 16.7786Z" fill="#01004C"/>
<path d="M189.868 21.117C189.868 23.8068 187.69 25.9868 185.004 25.9868C182.317 25.9868 180.14 23.8068 180.14 21.117C180.14 18.4272 182.317 16.2472 185.004 16.2472C187.69 16.2472 189.868 18.4272 189.868 21.117Z" fill="#0085F6"/>
<path d="M184.993 26.5291C182.014 26.5291 179.577 24.0996 179.577 21.117C179.577 18.1344 182.003 15.7049 184.993 15.7049C187.983 15.7049 190.398 18.1344 190.398 21.117C190.398 24.0996 187.972 26.5291 184.993 26.5291ZM184.993 16.7786C182.61 16.7786 180.66 18.7201 180.66 21.1062C180.66 23.4923 182.599 25.4337 184.993 25.4337C187.387 25.4337 189.315 23.4923 189.315 21.1062C189.315 18.7201 187.376 16.7786 184.993 16.7786Z" fill="#01004C"/>
<path d="M170.315 38.9152C170.315 41.605 168.138 43.785 165.452 43.785C162.765 43.785 160.588 41.605 160.588 38.9152C160.588 36.2254 162.765 34.0453 165.452 34.0453C168.138 34.0453 170.315 36.2254 170.315 38.9152Z" fill="#0085F6"/>
<path d="M165.441 44.3273C162.462 44.3273 160.036 41.8978 160.036 38.9152C160.036 35.9325 162.462 33.5031 165.441 33.5031C168.42 33.5031 170.857 35.9325 170.857 38.9152C170.857 41.8978 168.431 44.3273 165.441 44.3273ZM165.441 34.5876C163.058 34.5876 161.119 36.5291 161.119 38.9152C161.119 41.3013 163.058 43.2427 165.441 43.2427C167.824 43.2427 169.774 41.3013 169.774 38.9152C169.774 36.5291 167.835 34.5876 165.441 34.5876Z" fill="#01004C"/>
<path d="M250.994 31.1061H248.286C247.083 23.9912 240.909 18.5682 233.467 18.5682C226.026 18.5682 219.851 23.9912 218.649 31.1061H214.403C208.066 31.1061 202.931 36.7026 202.931 43.6115C202.931 50.5203 208.066 56.1168 214.403 56.1168H250.994C257.331 56.1168 262.465 50.5203 262.465 43.6115C262.465 36.7026 257.331 31.1061 250.994 31.1061Z" fill="#CFCFE2"/>
<path d="M418.417 36.6592V53.2643C418.417 53.6222 418.72 53.9259 419.078 53.9151C428.935 53.5463 436.669 44.8913 435.543 34.707C434.665 26.7894 428.285 20.3903 420.378 19.5227C410.195 18.3947 401.54 26.1604 401.183 36.041C401.172 36.3881 401.454 36.6701 401.8 36.6701H418.406L418.417 36.6592Z" fill="#0085F6"/>
<path d="M396.601 40.7048C396.991 50.3576 404.736 58.1125 414.377 58.5029C414.799 58.5246 415.146 58.1667 415.146 57.7545V40.6831C415.146 40.2709 414.81 39.9347 414.398 39.9347H397.348C396.926 39.9347 396.579 40.2818 396.601 40.7048Z" fill="#CFCFE2"/>
<path d="M280.458 73.4594C280.458 75.108 279.125 76.4421 277.479 76.4421C275.832 76.4421 274.5 75.108 274.5 73.4594C274.5 71.8109 275.832 70.4768 277.479 70.4768C279.125 70.4768 280.458 71.8109 280.458 73.4594Z" fill="#ECF1F7"/>
<path d="M277.479 76.9844C275.54 76.9844 273.958 75.4009 273.958 73.4594C273.958 71.518 275.54 69.9345 277.479 69.9345C279.418 69.9345 280.999 71.518 280.999 73.4594C280.999 75.4009 279.418 76.9844 277.479 76.9844ZM277.479 71.0299C276.136 71.0299 275.041 72.1254 275.041 73.4703C275.041 74.8152 276.136 75.9106 277.479 75.9106C278.822 75.9106 279.916 74.8152 279.916 73.4703C279.916 72.1254 278.822 71.0299 277.479 71.0299Z" fill="#01004C"/>
<path d="M439.93 275.009H115.028C108.875 275.009 103.892 270.335 103.892 264.575V75.7588C103.892 69.9996 108.875 65.325 115.028 65.325H439.93C446.083 65.325 451.065 69.9996 451.065 75.7588V264.575C451.065 270.335 446.083 275.009 439.93 275.009Z" fill="#CFCFE2"/>
<path d="M430.787 82.9279H120.422V262.493H430.787V82.9279Z" fill="white"/>
<path d="M318.327 289.977L314.33 289.944V289.337L276.612 289.64L238.894 289.337V289.944L234.897 289.977C234.236 299.629 231.333 338.957 227.109 349.846H326.115C321.902 338.957 318.999 299.629 318.327 289.977Z" fill="#CFCFE2"/>
<path d="M103.74 262.84V285.649C103.74 291.81 108.723 296.799 114.876 296.799H439.778C445.931 296.799 450.914 291.81 450.914 285.649V262.84H103.74Z" fill="#01004C"/>
<path d="M208.272 342.384H346.393C355.287 342.384 362.512 349.618 362.512 358.523H192.153C192.153 349.618 199.378 342.384 208.272 342.384Z" fill="#01004C"/>
<path d="M399.569 106.962H315.803C313.566 106.962 311.752 108.779 311.752 111.019V235.053C311.752 237.293 313.566 239.109 315.803 239.109H399.569C401.806 239.109 403.62 237.293 403.62 235.053V111.019C403.62 108.779 401.806 106.962 399.569 106.962Z" fill="#0085F6"/>
<path d="M350.304 118.806H325.964C324.223 118.806 322.812 120.219 322.812 121.962V146.333C322.812 148.076 324.223 149.489 325.964 149.489H350.304C352.045 149.489 353.456 148.076 353.456 146.333V121.962C353.456 120.219 352.045 118.806 350.304 118.806Z" fill="white"/>
<path d="M384.35 117.429C383.364 117.429 382.552 116.626 382.552 115.628C382.552 114.631 383.353 113.828 384.35 113.828C385.346 113.828 386.148 114.631 386.148 115.628C386.148 116.626 385.346 117.429 384.35 117.429ZM384.35 114.913C383.96 114.913 383.635 115.238 383.635 115.628C383.635 116.019 383.949 116.344 384.35 116.344C384.75 116.344 385.065 116.019 385.065 115.628C385.065 115.238 384.74 114.913 384.35 114.913Z" fill="white"/>
<path d="M389.582 117.429C388.585 117.429 387.783 116.626 387.783 115.628C387.783 114.631 388.585 113.828 389.582 113.828C390.578 113.828 391.38 114.631 391.38 115.628C391.38 116.626 390.578 117.429 389.582 117.429ZM389.582 114.913C389.192 114.913 388.867 115.238 388.867 115.628C388.867 116.019 389.192 116.344 389.582 116.344C389.972 116.344 390.297 116.019 390.297 115.628C390.297 115.238 389.982 114.913 389.582 114.913Z" fill="white"/>
<path d="M394.402 117.429C393.416 117.429 392.604 116.626 392.604 115.628C392.604 114.631 393.405 113.828 394.402 113.828C395.398 113.828 396.2 114.631 396.2 115.628C396.2 116.626 395.398 117.429 394.402 117.429ZM394.402 114.913C394.012 114.913 393.687 115.238 393.687 115.628C393.687 116.019 394.012 116.344 394.402 116.344C394.792 116.344 395.117 116.019 395.117 115.628C395.117 115.238 394.792 114.913 394.402 114.913Z" fill="white"/>
<path d="M390.351 128.036H363.216C362.913 128.036 362.674 127.797 362.674 127.494C362.674 127.19 362.913 126.952 363.216 126.952H390.351C390.654 126.952 390.892 127.19 390.892 127.494C390.892 127.797 390.654 128.036 390.351 128.036Z" fill="white"/>
<path d="M390.351 135.205H363.216C362.913 135.205 362.674 134.967 362.674 134.663C362.674 134.359 362.913 134.121 363.216 134.121H390.351C390.654 134.121 390.892 134.359 390.892 134.663C390.892 134.967 390.654 135.205 390.351 135.205Z" fill="white"/>
<path d="M390.351 142.385H363.216C362.913 142.385 362.674 142.147 362.674 141.843C362.674 141.539 362.913 141.301 363.216 141.301H390.351C390.654 141.301 390.892 141.539 390.892 141.843C390.892 142.147 390.654 142.385 390.351 142.385Z" fill="white"/>
<path d="M362.858 188.404H387.198C388.939 188.404 390.351 186.991 390.351 185.248V160.878C390.351 159.134 388.939 157.721 387.198 157.721H362.858C361.117 157.721 359.706 159.134 359.706 160.878V185.248C359.706 186.991 361.117 188.404 362.858 188.404Z" fill="white"/>
<path d="M349.936 180.259H323.841C323.537 180.259 323.299 180.021 323.299 179.717C323.299 179.413 323.537 179.175 323.841 179.175H349.936C350.239 179.175 350.477 179.413 350.477 179.717C350.477 180.021 350.239 180.259 349.936 180.259Z" fill="white"/>
<path d="M349.936 173.079H323.841C323.537 173.079 323.299 172.841 323.299 172.537C323.299 172.233 323.537 171.995 323.841 171.995H349.936C350.239 171.995 350.477 172.233 350.477 172.537C350.477 172.841 350.239 173.079 349.936 173.079Z" fill="white"/>
<path d="M349.936 165.899H323.841C323.537 165.899 323.299 165.661 323.299 165.357C323.299 165.053 323.537 164.815 323.841 164.815H349.936C350.239 164.815 350.477 165.053 350.477 165.357C350.477 165.661 350.239 165.899 349.936 165.899Z" fill="white"/>
<path d="M383.916 199.836H354.485C354.182 199.836 353.943 199.597 353.943 199.294C353.943 198.99 354.182 198.751 354.485 198.751H383.916C384.22 198.751 384.458 198.99 384.458 199.294C384.458 199.597 384.22 199.836 383.916 199.836Z" fill="white"/>
<path d="M348.603 199.836H326.224C325.92 199.836 325.682 199.597 325.682 199.294C325.682 198.99 325.92 198.751 326.224 198.751H348.603C348.906 198.751 349.145 198.99 349.145 199.294C349.145 199.597 348.906 199.836 348.603 199.836Z" fill="white"/>
<path d="M371.329 207.992H326.224C325.92 207.992 325.682 207.754 325.682 207.45C325.682 207.146 325.92 206.908 326.224 206.908H371.329C371.632 206.908 371.871 207.146 371.871 207.45C371.871 207.754 371.632 207.992 371.329 207.992Z" fill="white"/>
<path d="M341.833 125.314L340.771 132.038L347.52 133.069C348.083 129.359 345.549 125.889 341.833 125.314Z" fill="#CFCFE2"/>
<path d="M339.493 123.676C333.676 122.787 328.228 126.778 327.339 132.613C326.451 138.437 330.437 143.893 336.265 144.782C342.082 145.672 347.531 141.68 348.419 135.845L337.825 134.229L339.493 123.676Z" fill="#CFCFE2"/>
<path d="M380.436 182.507C385.756 179.253 387.434 172.298 384.184 166.971C380.934 161.645 373.987 159.965 368.668 163.218C363.348 166.472 361.67 173.428 364.92 178.754C368.169 184.081 375.116 185.761 380.436 182.507Z" fill="#7C55FF"/>
<path d="M374.525 184.684C372.423 184.684 370.354 184.12 368.502 183.014C362.891 179.684 361.039 172.396 364.364 166.778C365.978 164.055 368.556 162.125 371.611 161.344C374.676 160.563 377.861 161.019 380.569 162.635C383.288 164.251 385.216 166.832 385.996 169.891C386.776 172.96 386.321 176.149 384.707 178.86C383.093 181.582 380.515 183.513 377.46 184.294C376.485 184.543 375.5 184.663 374.514 184.663L374.525 184.684ZM374.557 162.071C373.669 162.071 372.77 162.179 371.882 162.407C369.098 163.112 366.758 164.869 365.296 167.342C362.273 172.439 363.952 179.055 369.054 182.092C371.524 183.556 374.416 183.979 377.2 183.264C379.984 182.559 382.324 180.802 383.786 178.329C385.249 175.856 385.671 172.96 384.956 170.172C384.241 167.385 382.497 165.042 380.027 163.578C378.348 162.58 376.464 162.071 374.557 162.071Z" fill="#01004C"/>
<path d="M366.704 172.841C366.704 177.179 370.214 180.682 374.536 180.682C378.858 180.682 382.367 177.168 382.367 172.841C382.367 168.513 378.858 164.999 374.536 164.999C370.214 164.999 366.704 168.513 366.704 172.841Z" fill="white"/>
<path d="M374.546 181.224C369.932 181.224 366.173 177.461 366.173 172.841C366.173 168.22 369.932 164.457 374.546 164.457C379.161 164.457 382.92 168.22 382.92 172.841C382.92 177.461 379.161 181.224 374.546 181.224ZM374.546 165.53C370.528 165.53 367.256 168.806 367.256 172.83C367.256 176.854 370.528 180.129 374.546 180.129C378.565 180.129 381.837 176.854 381.837 172.83C381.837 168.806 378.565 165.53 374.546 165.53Z" fill="#01004C"/>
<path d="M369.769 169.999C368.199 172.645 369.076 176.051 371.708 177.624C374.351 179.196 377.753 178.318 379.323 175.682C380.894 173.036 380.017 169.63 377.385 168.058C374.741 166.485 371.34 167.363 369.769 169.999Z" fill="#7C55FF"/>
<path d="M374.536 178.947C373.452 178.947 372.391 178.654 371.438 178.09C368.545 176.376 367.592 172.624 369.304 169.728C371.015 166.832 374.774 165.878 377.655 167.591C380.547 169.305 381.501 173.058 379.789 175.953C378.955 177.352 377.634 178.35 376.052 178.752C375.554 178.882 375.045 178.947 374.536 178.947ZM370.235 170.27C368.827 172.645 369.607 175.736 371.99 177.146C373.138 177.83 374.492 178.025 375.792 177.7C377.092 177.363 378.186 176.55 378.868 175.4C380.277 173.025 379.497 169.934 377.114 168.524C374.731 167.114 371.654 167.895 370.246 170.281L370.235 170.27Z" fill="#01004C"/>
<path d="M371.795 172.841C371.795 171.322 373.03 170.097 374.536 170.097C376.041 170.097 377.276 171.333 377.276 172.841C377.276 174.348 376.041 175.585 374.536 175.585C373.03 175.585 371.795 174.348 371.795 172.841Z" fill="white"/>
<path d="M374.546 176.127C372.737 176.127 371.264 174.652 371.264 172.841C371.264 171.029 372.737 169.554 374.546 169.554C376.355 169.554 377.829 171.029 377.829 172.841C377.829 174.652 376.355 176.127 374.546 176.127ZM374.546 170.628C373.333 170.628 372.348 171.615 372.348 172.83C372.348 174.045 373.333 175.031 374.546 175.031C375.76 175.031 376.745 174.045 376.745 172.83C376.745 171.615 375.76 170.628 374.546 170.628Z" fill="#01004C"/>
<path d="M374.416 173.123C374.481 173.123 374.546 173.101 374.601 173.058C374.72 172.96 374.731 172.786 374.633 172.667L367.202 164.023C367.105 163.904 366.931 163.893 366.812 163.99C366.693 164.088 366.682 164.261 366.78 164.381L374.211 173.025C374.265 173.09 374.341 173.123 374.416 173.123Z" fill="#01004C"/>
<path d="M374.416 173.394C374.254 173.394 374.102 173.329 374.005 173.199L366.574 164.554C366.476 164.446 366.433 164.305 366.444 164.153C366.444 164.001 366.52 163.871 366.628 163.773C366.736 163.676 366.866 163.622 367.029 163.643C367.18 163.643 367.31 163.719 367.408 163.828L374.839 172.472C374.936 172.58 374.98 172.721 374.969 172.873C374.958 173.014 374.893 173.155 374.785 173.253C374.687 173.34 374.557 173.383 374.427 173.383L374.416 173.394ZM366.996 164.196L374.416 172.851L366.985 164.196H366.996Z" fill="#01004C"/>
<path d="M367.495 164.815C367.56 164.836 367.625 164.782 367.614 164.717L367.072 162.049C367.04 161.897 366.899 161.799 366.747 161.832C366.596 161.865 366.498 162.006 366.531 162.157L366.866 163.849C366.877 163.914 366.812 163.969 366.747 163.947L364.949 163.285C364.808 163.231 364.646 163.307 364.592 163.448C364.537 163.589 364.613 163.752 364.754 163.806L367.484 164.815H367.495Z" fill="#01004C"/>
<path d="M367.516 165.097C367.516 165.097 367.43 165.097 367.397 165.075L364.667 164.066C364.537 164.012 364.418 163.914 364.364 163.784C364.299 163.654 364.299 163.502 364.342 163.361C364.386 163.22 364.494 163.112 364.635 163.047C364.765 162.982 364.917 162.982 365.057 163.036L366.541 163.578L366.271 162.201C366.238 162.06 366.271 161.908 366.346 161.789C366.433 161.669 366.552 161.583 366.693 161.55C366.834 161.517 366.975 161.55 367.105 161.626C367.224 161.702 367.31 161.832 367.343 161.973L367.885 164.652C367.906 164.782 367.863 164.912 367.765 164.999C367.7 165.053 367.614 165.086 367.538 165.086L367.516 165.097ZM364.862 163.546L367.278 164.446L366.801 162.092L367.126 163.795C367.148 163.925 367.105 164.055 367.007 164.142C366.91 164.229 366.78 164.251 366.65 164.207L364.852 163.546H364.862Z" fill="#01004C"/>
<path d="M368.285 165.747C368.35 165.769 368.415 165.715 368.405 165.65L367.863 162.982C367.83 162.83 367.69 162.732 367.538 162.765C367.386 162.797 367.289 162.938 367.321 163.09L367.657 164.782C367.668 164.847 367.603 164.901 367.538 164.88L365.74 164.218C365.599 164.164 365.436 164.24 365.382 164.381C365.328 164.522 365.404 164.684 365.545 164.739L368.275 165.747H368.285Z" fill="#01004C"/>
<path d="M368.318 166.019C368.318 166.019 368.231 166.019 368.199 165.997L365.469 164.988C365.339 164.934 365.22 164.836 365.166 164.706C365.101 164.576 365.101 164.424 365.144 164.283C365.198 164.142 365.296 164.034 365.436 163.969C365.566 163.904 365.718 163.904 365.859 163.958L367.343 164.5L367.072 163.123C367.04 162.982 367.072 162.83 367.148 162.711C367.224 162.591 367.354 162.504 367.495 162.472C367.635 162.439 367.787 162.472 367.906 162.548C368.025 162.635 368.112 162.754 368.144 162.895L368.686 165.563C368.708 165.693 368.664 165.823 368.567 165.899C368.502 165.953 368.415 165.986 368.329 165.986L368.318 166.019ZM365.664 164.468L368.08 165.368L367.603 163.014L367.928 164.717C367.95 164.847 367.906 164.977 367.809 165.064C367.711 165.151 367.581 165.173 367.451 165.129L365.653 164.468H365.664Z" fill="#01004C"/>
<path d="M299.501 197.255H277.977C275.949 197.255 274.305 198.901 274.305 200.932V234.662C274.305 236.693 275.949 238.339 277.977 238.339H299.501C301.529 238.339 303.173 236.693 303.173 234.662V200.932C303.173 198.901 301.529 197.255 299.501 197.255Z" fill="#C6C6C6"/>
<path d="M243.119 189.663H301.104C302.049 189.663 302.815 188.895 302.815 187.949V158.231C302.815 157.285 302.049 156.517 301.104 156.517H243.119C242.174 156.517 241.407 157.285 241.407 158.231V187.949C241.407 188.895 242.174 189.663 243.119 189.663Z" fill="#0085F6"/>
<path d="M271.488 167.635H252.066C251.763 167.635 251.525 167.396 251.525 167.092C251.525 166.789 251.763 166.55 252.066 166.55H271.488C271.792 166.55 272.03 166.789 272.03 167.092C272.03 167.396 271.792 167.635 271.488 167.635Z" fill="white"/>
<path d="M293.846 167.635H276.536C276.233 167.635 275.995 167.396 275.995 167.092C275.995 166.789 276.233 166.55 276.536 166.55H293.846C294.149 166.55 294.388 166.789 294.388 167.092C294.388 167.396 294.149 167.635 293.846 167.635Z" fill="white"/>
<path d="M269.376 178.101H252.066C251.763 178.101 251.525 177.862 251.525 177.559C251.525 177.255 251.763 177.016 252.066 177.016H269.376C269.679 177.016 269.918 177.255 269.918 177.559C269.918 177.862 269.679 178.101 269.376 178.101Z" fill="white"/>
<path d="M285.765 172.569H268.455C268.152 172.569 267.914 172.331 267.914 172.027C267.914 171.723 268.152 171.485 268.455 171.485H285.765C286.069 171.485 286.307 171.723 286.307 172.027C286.307 172.331 286.069 172.569 285.765 172.569Z" fill="white"/>
<path d="M263.429 172.569H252.066C251.763 172.569 251.525 172.331 251.525 172.027C251.525 171.723 251.763 171.485 252.066 171.485H263.429C263.733 171.485 263.971 171.723 263.971 172.027C263.971 172.331 263.733 172.569 263.429 172.569Z" fill="#AED3FF"/>
<path d="M281.682 178.101H274.695C274.392 178.101 274.153 177.862 274.153 177.559C274.153 177.255 274.392 177.016 274.695 177.016H281.682C281.985 177.016 282.223 177.255 282.223 177.559C282.223 177.862 281.985 178.101 281.682 178.101Z" fill="#AED3FF"/>
<path d="M243.119 148.936H301.104C302.049 148.936 302.815 148.169 302.815 147.223V109.511C302.815 108.565 302.049 107.798 301.104 107.798H243.119C242.174 107.798 241.407 108.565 241.407 109.511V147.223C241.407 148.169 242.174 148.936 243.119 148.936Z" fill="#01004C"/>
<path d="M286.534 112.906C285.657 112.906 284.942 112.19 284.942 111.312C284.942 110.433 285.657 109.717 286.534 109.717C287.412 109.717 288.127 110.433 288.127 111.312C288.127 112.19 287.412 112.906 286.534 112.906ZM286.534 110.802C286.253 110.802 286.025 111.03 286.025 111.312C286.025 111.594 286.253 111.821 286.534 111.821C286.816 111.821 287.044 111.594 287.044 111.312C287.044 111.03 286.816 110.802 286.534 110.802Z" fill="white"/>
<path d="M292.774 112.906C291.896 112.906 291.182 112.19 291.182 111.312C291.182 110.433 291.896 109.717 292.774 109.717C293.651 109.717 294.366 110.433 294.366 111.312C294.366 112.19 293.651 112.906 292.774 112.906ZM292.774 110.802C292.492 110.802 292.265 111.03 292.265 111.312C292.265 111.594 292.492 111.821 292.774 111.821C293.055 111.821 293.283 111.594 293.283 111.312C293.283 111.03 293.055 110.802 292.774 110.802Z" fill="white"/>
<path d="M299.046 112.906C298.168 112.906 297.453 112.19 297.453 111.312C297.453 110.433 298.168 109.717 299.046 109.717C299.923 109.717 300.638 110.433 300.638 111.312C300.638 112.19 299.923 112.906 299.046 112.906ZM299.046 110.802C298.764 110.802 298.537 111.03 298.537 111.312C298.537 111.594 298.764 111.821 299.046 111.821C299.327 111.821 299.555 111.594 299.555 111.312C299.555 111.03 299.327 110.802 299.046 110.802Z" fill="white"/>
<path d="M272.193 140.194C278.355 140.194 283.35 135.193 283.35 129.023C283.35 122.853 278.355 117.852 272.193 117.852C266.031 117.852 261.035 122.853 261.035 129.023C261.035 135.193 266.031 140.194 272.193 140.194Z" fill="white"/>
<path d="M272.193 140.748C265.737 140.748 260.494 135.487 260.494 129.034C260.494 122.581 265.747 117.32 272.193 117.32C278.638 117.32 283.891 122.581 283.891 129.034C283.891 135.487 278.638 140.748 272.193 140.748ZM272.193 118.394C266.332 118.394 261.577 123.166 261.577 129.023C261.577 134.88 266.343 139.652 272.193 139.652C278.042 139.652 282.808 134.88 282.808 129.023C282.808 123.166 278.042 118.394 272.193 118.394Z" fill="#01004C"/>
<path d="M277.024 129.793H271.423V123.405C271.423 122.982 271.759 122.646 272.182 122.646C272.604 122.646 272.94 122.982 272.94 123.405V128.275H277.013C277.435 128.275 277.771 128.611 277.771 129.034C277.771 129.457 277.435 129.793 277.013 129.793H277.024Z" fill="#01004C"/>
<path d="M273.937 129.142C273.937 130.086 273.178 130.845 272.236 130.845C271.294 130.845 270.535 130.086 270.535 129.142C270.535 128.199 271.294 127.44 272.236 127.44C273.178 127.44 273.937 128.199 273.937 129.142Z" fill="#2AAFEB"/>
<path d="M226.87 106.03H150.048C146.052 106.03 142.812 109.273 142.812 113.275V180.086C142.812 184.087 146.052 187.331 150.048 187.331H226.87C230.867 187.331 234.106 184.087 234.106 180.086V113.275C234.106 109.273 230.867 106.03 226.87 106.03Z" fill="#C6C6C6"/>
<path d="M198.167 138.098C203.531 132.727 203.531 124.019 198.167 118.649C192.803 113.278 184.106 113.278 178.742 118.649C173.378 124.019 173.378 132.727 178.742 138.098C184.106 143.468 192.803 143.468 198.167 138.098Z" fill="white"/>
<path d="M194.547 134.685C194.547 131.236 191.752 128.427 188.297 128.427C184.841 128.427 182.047 131.225 182.047 134.685C182.047 134.706 194.536 134.717 194.536 134.685H194.547Z" fill="#01004C"/>
<path d="M184.798 124.012C184.798 125.975 186.39 127.57 188.351 127.57C190.312 127.57 191.904 125.975 191.904 124.012C191.904 122.049 190.312 120.455 188.351 120.455C186.39 120.455 184.798 122.049 184.798 124.012Z" fill="#01004C"/>
<path d="M210.319 158.567H166.6C163.946 158.567 161.79 156.409 161.79 153.752C161.79 151.095 163.946 148.936 166.6 148.936H210.319C212.973 148.936 215.128 151.095 215.128 153.752C215.128 156.409 212.973 158.567 210.319 158.567Z" fill="white"/>
<path d="M210.33 164.598H166.6C163.944 164.598 161.79 166.754 161.79 169.413V169.424C161.79 172.084 163.944 174.24 166.6 174.24H210.33C212.986 174.24 215.139 172.084 215.139 169.424V169.413C215.139 166.754 212.986 164.598 210.33 164.598Z" fill="white"/>
<path d="M210.319 174.782H166.6C163.643 174.782 161.249 172.374 161.249 169.424C161.249 166.474 163.653 164.066 166.6 164.066H210.319C213.276 164.066 215.67 166.474 215.67 169.424C215.67 172.374 213.265 174.782 210.319 174.782ZM166.6 165.14C164.249 165.14 162.332 167.06 162.332 169.413C162.332 171.767 164.249 173.687 166.6 173.687H210.319C212.669 173.687 214.587 171.767 214.587 169.413C214.587 167.06 212.669 165.14 210.319 165.14H166.6Z" fill="#01004C"/>
<path d="M195.294 177.483H181.613C181.165 177.483 180.801 177.847 180.801 178.296V178.415C180.801 178.865 181.165 179.229 181.613 179.229H195.294C195.743 179.229 196.107 178.865 196.107 178.415V178.296C196.107 177.847 195.743 177.483 195.294 177.483Z" fill="white"/>
<path d="M221.79 117.787C221.649 117.787 221.509 117.732 221.411 117.624C221.194 117.407 221.194 117.071 221.411 116.854L226.643 111.615C226.86 111.398 227.195 111.398 227.412 111.615C227.629 111.832 227.629 112.169 227.412 112.385L222.18 117.624C222.072 117.732 221.931 117.787 221.801 117.787H221.79Z" fill="white"/>
<path d="M227.011 117.787C226.87 117.787 226.73 117.732 226.632 117.624L221.4 112.385C221.184 112.169 221.184 111.832 221.4 111.615C221.617 111.398 221.953 111.398 222.169 111.615L227.401 116.854C227.618 117.071 227.618 117.407 227.401 117.624C227.293 117.732 227.152 117.787 227.022 117.787H227.011Z" fill="white"/>
<path d="M284.671 277.84C284.671 281.907 281.378 285.194 277.327 285.194C273.276 285.194 269.983 281.896 269.983 277.84C269.983 273.784 273.276 270.486 277.327 270.486C281.378 270.486 284.671 273.784 284.671 277.84Z" fill="#01004C"/>
<path d="M277.327 285.736C272.983 285.736 269.441 282.189 269.441 277.84C269.441 273.491 272.983 269.944 277.327 269.944C281.671 269.944 285.213 273.491 285.213 277.84C285.213 282.189 281.671 285.736 277.327 285.736ZM277.327 271.029C273.579 271.029 270.524 274.087 270.524 277.84C270.524 281.593 273.579 284.651 277.327 284.651C281.075 284.651 284.13 281.593 284.13 277.84C284.13 274.087 281.075 271.029 277.327 271.029Z" fill="white"/>
<path d="M284.671 277.84C284.671 281.907 281.378 285.194 277.327 285.194C273.276 285.194 269.983 281.896 269.983 277.84C269.983 273.784 273.276 270.486 277.327 270.486C281.378 270.486 284.671 273.784 284.671 277.84Z" fill="#01004C"/>
<path d="M277.327 285.736C272.983 285.736 269.441 282.189 269.441 277.84C269.441 273.491 272.983 269.944 277.327 269.944C281.671 269.944 285.213 273.491 285.213 277.84C285.213 282.189 281.671 285.736 277.327 285.736ZM277.327 271.029C273.579 271.029 270.524 274.087 270.524 277.84C270.524 281.593 273.579 284.651 277.327 284.651C281.075 284.651 284.13 281.593 284.13 277.84C284.13 274.087 281.075 271.029 277.327 271.029Z" fill="white"/>
<path d="M313.648 262.374H269.56C278.324 262.374 282.353 255.975 282.353 248.079V229.348C282.353 221.973 288.993 215.986 297.183 215.986H298.818C307.007 215.986 313.648 221.962 313.648 229.348V262.374Z" fill="#01004C"/>
<path d="M296.793 215.975C296.316 215.975 297.258 215.953 296.793 215.975L331.911 216.181L397.186 216.127C409.058 216.192 418.623 224.38 418.547 234.424L418.471 320.736H327.914C319.139 320.736 312.044 314.694 312.099 307.276L312.543 244.662L312.618 234.424C312.618 216.04 296.793 215.975 296.793 215.975Z" fill="#F8F8FF"/>
<path d="M336.894 250.313C332.918 250.313 329.69 247.081 329.69 243.101C329.69 239.12 332.918 235.888 336.894 235.888C340.869 235.888 344.097 239.12 344.097 243.101C344.097 247.081 340.869 250.313 336.894 250.313Z" fill="#0085F6"/>
<path d="M397.955 238.448H353.337C353.034 238.448 352.795 238.209 352.795 237.905C352.795 237.602 353.034 237.363 353.337 237.363H397.955C398.258 237.363 398.497 237.602 398.497 237.905C398.497 238.209 398.258 238.448 397.955 238.448Z" fill="#01004C"/>
<path d="M371.264 244.228H353.348C353.044 244.228 352.806 243.99 352.806 243.686C352.806 243.382 353.044 243.144 353.348 243.144H371.264C371.568 243.144 371.806 243.382 371.806 243.686C371.806 243.99 371.568 244.228 371.264 244.228Z" fill="#01004C"/>
<path d="M397.901 244.228H379.984C379.681 244.228 379.443 243.99 379.443 243.686C379.443 243.382 379.681 243.144 379.984 243.144H397.901C398.204 243.144 398.442 243.382 398.442 243.686C398.442 243.99 398.204 244.228 397.901 244.228Z" fill="#01004C"/>
<path d="M371.643 252.341H353.727C353.423 252.341 353.185 252.103 353.185 251.799C353.185 251.495 353.423 251.257 353.727 251.257H371.643C371.947 251.257 372.185 251.495 372.185 251.799C372.185 252.103 371.947 252.341 371.643 252.341Z" fill="#01004C"/>
<path d="M336.894 274.792C333.059 274.792 329.95 271.68 329.95 267.84C329.95 264.001 333.059 260.888 336.894 260.888C340.728 260.888 343.837 264.001 343.837 267.84C343.837 271.68 340.728 274.792 336.894 274.792Z" fill="#0085F6"/>
<path d="M397.955 263.187H353.337C353.034 263.187 352.795 262.949 352.795 262.645C352.795 262.341 353.034 262.103 353.337 262.103H397.955C398.258 262.103 398.497 262.341 398.497 262.645C398.497 262.949 398.258 263.187 397.955 263.187Z" fill="#01004C"/>
<path d="M382.107 320.649H329.051C339.32 320.649 345.451 313.642 345.451 304.998V284.489C345.451 276.408 353.229 269.868 362.826 269.868H364.732C374.33 269.868 382.107 276.419 382.107 284.489V320.649Z" fill="#01004C"/>
<path d="M443.645 269.868H364.364C373.897 269.868 381.62 276.17 381.62 283.935V342.493C381.62 347.514 386.614 351.581 392.766 351.581H468.462V290.107C468.462 278.935 457.348 269.879 443.645 269.879V269.868Z" fill="#F8F8FF"/>
<path d="M405.992 306.083C402.277 306.083 399.255 303.068 399.255 299.337C399.255 295.616 402.266 292.59 405.992 292.59C409.708 292.59 412.73 295.606 412.73 299.337C412.73 303.057 409.719 306.083 405.992 306.083Z" fill="#7C55FF"/>
<path d="M454.911 294.369H420.107C419.803 294.369 419.565 294.131 419.565 293.827C419.565 293.523 419.803 293.285 420.107 293.285H454.911C455.214 293.285 455.452 293.523 455.452 293.827C455.452 294.131 455.214 294.369 454.911 294.369Z" fill="#01004C"/>
<path d="M437.395 301.56H420.107C419.803 301.56 419.565 301.321 419.565 301.018C419.565 300.714 419.803 300.475 420.107 300.475H437.395C437.698 300.475 437.937 300.714 437.937 301.018C437.937 301.321 437.698 301.56 437.395 301.56Z" fill="#01004C"/>
<path d="M454.911 307.547H420.107C419.803 307.547 419.565 307.308 419.565 307.005C419.565 306.701 419.803 306.462 420.107 306.462H454.911C455.214 306.462 455.452 306.701 455.452 307.005C455.452 307.308 455.214 307.547 454.911 307.547Z" fill="#01004C"/>
<path d="M490.755 318.697L401.67 318.772L401.714 341.137C401.757 346.148 398.583 350.432 392.604 351.364C392.452 351.386 391.824 351.397 392.604 351.408C393.698 351.43 394.575 351.408 394.575 351.408L452.636 351.462C452.885 351.462 453.145 351.462 453.394 351.44L477.94 351.462C485.089 351.43 490.852 346.798 490.809 341.137L490.766 318.697H490.755Z" fill="#01004C"/>
<path d="M121.559 288.87C121.559 288.87 121.592 288.903 121.614 288.914C124.863 291.593 129.673 296.343 132.684 299.792C132.868 299.998 133.042 300.204 133.204 300.399L143.116 290.269L131.536 278.675L121.559 288.87Z" fill="#F2F1F6"/>
<path d="M110.974 220.549L109.471 224.699L113.616 226.204L115.119 222.054L110.974 220.549Z" fill="white"/>
<path d="M113.609 226.734C113.544 226.734 113.489 226.734 113.424 226.701L109.276 225.194C109.146 225.14 109.027 225.042 108.972 224.912C108.907 224.782 108.907 224.63 108.951 224.5L110.456 220.346C110.554 220.064 110.868 219.923 111.15 220.02L115.298 221.528C115.58 221.626 115.721 221.94 115.623 222.222L114.118 226.376C114.042 226.593 113.825 226.734 113.609 226.734ZM110.164 224.359L113.294 225.498L114.432 222.363L111.301 221.224L110.164 224.359Z" fill="#01004C"/>
<path d="M64.1676 280.041C79.2987 270.522 83.8585 250.524 74.352 235.374C64.8455 220.224 44.8727 215.658 29.7416 225.177C14.6104 234.695 10.0507 254.693 19.5572 269.843C29.0637 284.994 49.0364 289.559 64.1676 280.041Z" fill="#CFCFE2"/>
<path d="M76.4973 239.413C76.2915 239.413 76.0857 239.294 75.999 239.087C75.8799 238.816 75.999 238.491 76.2806 238.372L110.922 223.448C111.193 223.328 111.518 223.448 111.637 223.73C111.756 224.001 111.637 224.326 111.355 224.445L76.7139 239.369C76.6489 239.402 76.5731 239.413 76.4973 239.413Z" fill="#01004C"/>
<path d="M42.8956 261.072C42.8956 256.083 38.8552 252.038 33.8724 252.038C28.8895 252.038 24.8491 256.083 24.8491 261.072C24.8491 261.105 42.8956 261.116 42.8956 261.072Z" fill="#F2F1F6"/>
<path d="M34.8798 261.647C32.475 261.647 29.9619 261.647 28.0555 261.647C25.5568 261.647 24.3075 261.459 24.3075 261.083C24.3075 255.801 28.5971 251.506 33.8724 251.506C39.1477 251.506 43.4372 255.801 43.4372 261.083C43.4372 261.466 40.5811 261.658 34.8689 261.658L34.8798 261.647ZM25.4124 260.541C28.0554 260.562 39.7326 260.562 42.3432 260.541C42.0724 256.105 38.3786 252.58 33.8832 252.58C29.3878 252.58 25.694 256.105 25.4232 260.541H25.4124Z" fill="#01004C"/>
<path d="M33.9266 250.79C36.7563 250.79 39.0502 248.493 39.0502 245.66C39.0502 242.827 36.7563 240.53 33.9266 240.53C31.0969 240.53 28.8029 242.827 28.8029 245.66C28.8029 248.493 31.0969 250.79 33.9266 250.79Z" fill="#F2F1F6"/>
<path d="M33.9266 251.333C30.8069 251.333 28.2613 248.784 28.2613 245.66C28.2613 242.536 30.8069 239.988 33.9266 239.988C37.0462 239.988 39.5918 242.536 39.5918 245.66C39.5918 248.784 37.0462 251.333 33.9266 251.333ZM33.9266 241.072C31.4026 241.072 29.3445 243.133 29.3445 245.66C29.3445 248.187 31.4026 250.248 33.9266 250.248C36.4505 250.248 38.5086 248.187 38.5086 245.66C38.5086 243.133 36.4505 241.072 33.9266 241.072Z" fill="#01004C"/>
<path d="M69.3046 261.072C69.3046 256.083 65.2642 252.038 60.2814 252.038C55.2985 252.038 51.2581 256.083 51.2581 261.072C51.2581 261.105 69.3046 261.116 69.3046 261.072Z" fill="#F2F1F6"/>
<path d="M61.2888 261.647C58.8841 261.647 56.371 261.647 54.4645 261.647C51.9659 261.647 50.7166 261.459 50.7166 261.083C50.7166 255.801 55.0061 251.506 60.2814 251.506C65.5567 251.506 69.8463 255.801 69.8463 261.083C69.8463 261.466 66.9902 261.658 61.278 261.658L61.2888 261.647ZM51.8214 260.541C54.4645 260.562 66.1417 260.562 68.7522 260.541C68.4814 256.105 64.7876 252.58 60.2923 252.58C55.7969 252.58 52.1031 256.105 51.8323 260.541H51.8214Z" fill="#01004C"/>
<path d="M55.2119 245.66C55.2119 248.491 57.5083 250.79 60.3356 250.79C63.1628 250.79 65.4592 248.491 65.4592 245.66C65.4592 242.829 63.1628 240.53 60.3356 240.53C57.5083 240.53 55.2119 242.829 55.2119 245.66Z" fill="#F2F1F6"/>
<path d="M60.3464 251.333C57.2267 251.333 54.6812 248.784 54.6812 245.66C54.6812 242.536 57.2267 239.988 60.3464 239.988C63.4661 239.988 66.0117 242.536 66.0117 245.66C66.0117 248.784 63.4661 251.333 60.3464 251.333ZM60.3464 241.072C57.8225 241.072 55.7644 243.133 55.7644 245.66C55.7644 248.187 57.8225 250.248 60.3464 250.248C62.8703 250.248 64.9285 248.187 64.9285 245.66C64.9285 243.133 62.8703 241.072 60.3464 241.072Z" fill="#01004C"/>
<path d="M56.8692 263.838C56.8692 258.176 52.2872 253.588 46.6328 253.588C40.9783 253.588 36.3963 258.176 36.3963 263.838C36.3963 263.881 56.8692 263.892 56.8692 263.838Z" fill="#F2F1F6"/>
<path d="M47.781 264.413C45.0404 264.413 42.1915 264.413 40.0359 264.413C37.2484 264.405 35.8547 264.217 35.8547 263.849C35.8547 257.894 40.6859 253.057 46.6328 253.057C52.5797 253.057 57.4108 257.894 57.4108 263.849C57.4108 264.232 54.2009 264.424 47.781 264.424V264.413ZM36.9487 263.306C39.8193 263.339 53.4787 263.339 56.3168 263.306C56.046 258.198 51.7997 254.131 46.6328 254.131C41.4658 254.131 37.2304 258.198 36.9487 263.306Z" fill="#01004C"/>
<path d="M40.8809 246.354C40.8809 249.575 43.4806 252.179 46.6978 252.179C49.9149 252.179 52.5147 249.575 52.5147 246.354C52.5147 243.133 49.9149 240.53 46.6978 240.53C43.4806 240.53 40.8809 243.133 40.8809 246.354Z" fill="#F2F1F6"/>
<path d="M46.6978 252.721C43.1881 252.721 40.3392 249.868 40.3392 246.354C40.3392 242.84 43.1881 239.988 46.6978 239.988C50.2074 239.988 53.0563 242.84 53.0563 246.354C53.0563 249.868 50.2074 252.721 46.6978 252.721ZM46.6978 241.072C43.7839 241.072 41.4225 243.437 41.4225 246.354C41.4225 249.272 43.7839 251.636 46.6978 251.636C49.6116 251.636 51.9731 249.272 51.9731 246.354C51.9731 243.437 49.6116 241.072 46.6978 241.072Z" fill="#01004C"/>
<path d="M117.185 109.004L115.682 104.854L111.537 106.359L113.04 110.509L117.185 109.004Z" fill="white"/>
<path d="M113.024 111.041C112.807 111.041 112.59 110.9 112.515 110.683L111.009 106.529C110.966 106.398 110.966 106.247 111.03 106.116C111.095 105.986 111.204 105.889 111.334 105.835L115.483 104.327C115.613 104.273 115.764 104.284 115.894 104.349C116.024 104.414 116.122 104.522 116.176 104.652L117.681 108.806C117.779 109.088 117.638 109.403 117.357 109.5L113.208 111.008C113.143 111.03 113.089 111.041 113.024 111.041ZM112.222 106.68L113.359 109.815L116.49 108.676L115.353 105.542L112.222 106.68Z" fill="#01004C"/>
<path d="M441.417 226.162L442.92 230.312L447.065 228.807L445.562 224.657L441.417 226.162Z" fill="white"/>
<path d="M442.952 230.855C442.735 230.855 442.519 230.714 442.443 230.498L440.937 226.344C440.883 226.213 440.894 226.062 440.959 225.931C441.024 225.801 441.132 225.704 441.262 225.649L445.411 224.142C445.682 224.044 446.007 224.185 446.104 224.467L447.61 228.621C447.707 228.903 447.567 229.218 447.285 229.315L443.136 230.823C443.071 230.845 443.017 230.855 442.952 230.855ZM442.14 226.495L443.277 229.63L446.397 228.491L445.259 225.357L442.129 226.495H442.14Z" fill="#01004C"/>
<path d="M480.063 243.534C479.987 243.534 479.923 243.523 479.847 243.491L445.205 228.567C444.934 228.448 444.804 228.133 444.923 227.851C445.043 227.58 445.357 227.45 445.638 227.569L480.28 242.493C480.551 242.612 480.681 242.927 480.562 243.209C480.475 243.415 480.269 243.534 480.063 243.534Z" fill="#01004C"/>
<path d="M536.157 275.287C546.381 260.613 542.788 240.418 528.132 230.181C513.477 219.944 493.307 223.542 483.083 238.216C472.859 252.89 476.452 273.085 491.108 283.322C505.764 293.559 525.933 289.962 536.157 275.287Z" fill="#CFCFE2"/>
<path d="M500.861 249.565H504.143V245.085C504.143 241.875 506.754 239.261 509.96 239.261C513.167 239.261 515.777 241.875 515.777 245.085V249.565H519.059V245.085C519.059 240.064 514.976 235.964 509.95 235.964C504.923 235.964 500.84 240.053 500.84 245.085V249.565H500.861Z" fill="#CACAE5"/>
<path d="M519.07 250.107H515.788C515.485 250.107 515.246 249.868 515.246 249.565V245.085C515.246 242.168 512.874 239.803 509.971 239.803C507.068 239.803 504.696 242.179 504.696 245.085V249.565C504.696 249.868 504.458 250.107 504.154 250.107H500.872C500.569 250.107 500.33 249.868 500.33 249.565V245.085C500.33 239.76 504.663 235.422 509.982 235.422C515.301 235.422 519.633 239.76 519.633 245.085V249.565C519.633 249.868 519.395 250.107 519.092 250.107H519.07ZM516.319 249.022H518.518V245.085C518.518 240.356 514.672 236.506 509.949 236.506C505.227 236.506 501.381 240.356 501.381 245.085V249.022H503.58V245.085C503.58 241.571 506.429 238.719 509.939 238.719C513.448 238.719 516.297 241.571 516.297 245.085V249.022H516.319Z" fill="#01004C"/>
<path d="M497.167 272.276H522.753C523.16 272.276 523.49 271.946 523.49 271.538V250.324C523.49 249.917 523.16 249.586 522.753 249.586H497.167C496.761 249.586 496.431 249.917 496.431 250.324V271.538C496.431 271.946 496.761 272.276 497.167 272.276Z" fill="white"/>
<path d="M522.753 272.818H497.178C496.474 272.818 495.889 272.243 495.889 271.528V250.324C495.889 249.619 496.463 249.033 497.178 249.033H522.753C523.457 249.033 524.042 249.608 524.042 250.324V271.528C524.042 272.233 523.468 272.818 522.753 272.818ZM497.178 250.129C497.07 250.129 496.973 250.215 496.973 250.335V271.538C496.973 271.647 497.059 271.745 497.178 271.745H522.753C522.862 271.745 522.959 271.658 522.959 271.538V250.335C522.959 250.226 522.872 250.129 522.753 250.129H497.178Z" fill="#01004C"/>
<path d="M508.866 260.953C508.043 260.552 507.469 259.706 507.469 258.729C507.469 257.352 508.585 256.235 509.96 256.235C511.336 256.235 512.452 257.352 512.452 258.729C512.452 259.673 511.921 260.476 511.152 260.899L512.203 264.662C512.333 265.15 511.975 265.627 511.477 265.627H508.563C508.065 265.627 507.696 265.15 507.837 264.662L508.866 260.953Z" fill="#02014F"/>
<path d="M511.477 266.17H508.563C508.151 266.17 507.772 265.985 507.523 265.66C507.274 265.335 507.198 264.922 507.306 264.521L508.227 261.202C507.415 260.638 506.927 259.727 506.927 258.719C506.927 257.048 508.281 255.682 509.96 255.682C511.639 255.682 512.993 257.037 512.993 258.719C512.993 259.673 512.538 260.562 511.78 261.126L512.722 264.51C512.831 264.901 512.755 265.324 512.506 265.649C512.257 265.975 511.878 266.159 511.477 266.159V266.17ZM509.96 256.777C508.888 256.777 508.01 257.656 508.01 258.729C508.01 259.467 508.433 260.139 509.105 260.465C509.343 260.584 509.462 260.844 509.386 261.094L508.357 264.803C508.335 264.89 508.368 264.955 508.39 264.988C508.411 265.02 508.465 265.074 508.563 265.074H511.477C511.563 265.074 511.618 265.02 511.65 264.988C511.672 264.955 511.715 264.89 511.683 264.803L510.632 261.04C510.567 260.801 510.675 260.541 510.892 260.421C511.52 260.074 511.91 259.424 511.91 258.719C511.91 257.645 511.033 256.766 509.96 256.766V256.777Z" fill="#01004C"/>
<path d="M437.688 178.744C437.623 178.744 437.569 178.744 437.504 178.712L433.355 177.204C433.225 177.15 433.106 177.052 433.052 176.922C432.987 176.792 432.987 176.64 433.03 176.51L434.536 172.356C434.633 172.074 434.948 171.933 435.229 172.031L439.378 173.538C439.66 173.636 439.8 173.951 439.703 174.233L438.197 178.387C438.121 178.603 437.905 178.744 437.688 178.744ZM434.233 176.369L437.363 177.508L438.5 174.374L435.381 173.235L434.243 176.369H434.233Z" fill="#01004C"/>
<path d="M439.544 174.323C439.338 174.323 439.133 174.204 439.046 173.998C438.927 173.727 439.046 173.402 439.328 173.282L473.969 158.358C474.24 158.239 474.565 158.358 474.684 158.64C474.803 158.911 474.684 159.237 474.402 159.356L439.761 174.28C439.696 174.313 439.62 174.323 439.544 174.323Z" fill="#01004C"/>
<path d="M522.225 171.676C536.881 161.439 540.474 141.245 530.25 126.57C520.026 111.896 499.856 108.299 485.201 118.536C470.545 128.773 466.952 148.967 477.176 163.642C487.4 178.316 507.569 181.913 522.225 171.676Z" fill="#CFCFE2"/>
<path d="M528.282 133.901C527.968 133.901 527.675 133.716 527.535 133.413C524.837 127.306 520.039 122.393 514.016 119.595C513.604 119.411 513.431 118.922 513.626 118.51C513.81 118.098 514.298 117.925 514.709 118.12C521.089 121.092 526.17 126.287 529.019 132.751C529.203 133.163 529.019 133.64 528.607 133.825C528.499 133.868 528.39 133.89 528.282 133.89V133.901Z" fill="white"/>
<path d="M517.081 128.771H489.405C488.561 128.771 487.878 129.455 487.878 130.3V162.469C487.878 163.313 488.561 163.998 489.405 163.998H517.081C517.925 163.998 518.609 163.313 518.609 162.469V130.3C518.609 129.455 517.925 128.771 517.081 128.771Z" fill="white"/>
<path d="M517.092 164.54H489.405C488.268 164.54 487.336 163.619 487.336 162.469V130.289C487.336 129.15 488.257 128.217 489.405 128.217H517.092C518.23 128.217 519.161 129.139 519.161 130.289V162.469C519.161 163.608 518.24 164.54 517.092 164.54ZM489.405 129.313C488.863 129.313 488.419 129.758 488.419 130.3V162.48C488.419 163.022 488.863 163.467 489.405 163.467H517.092C517.634 163.467 518.078 163.022 518.078 162.48V130.3C518.078 129.758 517.634 129.313 517.092 129.313H489.405Z" fill="#01004C"/>
<path d="M493.825 130.593C493.825 128.532 495.504 126.851 497.562 126.851H508.849C510.907 126.851 512.586 128.532 512.586 130.593C512.586 130.593 493.825 130.625 493.825 130.593Z" fill="#01004C"/>
<path d="M502.685 131.157C500.432 131.157 498.212 131.157 496.565 131.157C494.377 131.157 493.283 130.969 493.283 130.593C493.283 128.228 495.2 126.309 497.562 126.309H508.838C511.199 126.309 513.117 128.228 513.117 130.593C513.117 130.961 511.893 131.149 509.445 131.157C507.571 131.157 505.101 131.157 502.674 131.157H502.685ZM494.42 130.061C497.161 130.083 509.261 130.083 512.012 130.061C511.763 128.543 510.441 127.393 508.86 127.393H497.583C496.002 127.393 494.68 128.554 494.431 130.061H494.42Z" fill="#01004C"/>
<path d="M503.205 130.04C505 130.04 506.455 128.583 506.455 126.786C506.455 124.989 505 123.532 503.205 123.532C501.411 123.532 499.956 124.989 499.956 126.786C499.956 128.583 501.411 130.04 503.205 130.04Z" fill="#01004C"/>
<path d="M503.205 130.582C501.115 130.582 499.414 128.879 499.414 126.786C499.414 124.693 501.115 122.99 503.205 122.99C505.296 122.99 506.997 124.693 506.997 126.786C506.997 128.879 505.296 130.582 503.205 130.582ZM503.205 124.074C501.71 124.074 500.497 125.289 500.497 126.786C500.497 128.283 501.71 129.497 503.205 129.497C504.7 129.497 505.913 128.283 505.913 126.786C505.913 125.289 504.7 124.074 503.205 124.074Z" fill="#01004C"/>
<path d="M504.527 126.341C504.527 127.068 503.942 127.664 503.205 127.664C502.469 127.664 501.884 127.079 501.884 126.341C501.884 125.604 502.469 125.018 503.205 125.018C503.942 125.018 504.527 125.604 504.527 126.341Z" fill="#F2F1F6"/>
<path d="M503.205 128.207C502.176 128.207 501.353 127.371 501.353 126.341C501.353 125.311 502.187 124.476 503.205 124.476C504.224 124.476 505.069 125.311 505.069 126.341C505.069 127.371 504.234 128.207 503.205 128.207ZM503.205 125.571C502.783 125.571 502.436 125.918 502.436 126.352C502.436 126.786 502.783 127.133 503.205 127.133C503.628 127.133 503.985 126.786 503.985 126.352C503.985 125.918 503.639 125.571 503.205 125.571Z" fill="#01004C"/>
<path d="M513.431 138.63H493.586C493.283 138.63 493.045 138.391 493.045 138.087C493.045 137.784 493.283 137.545 493.586 137.545H513.431C513.734 137.545 513.973 137.784 513.973 138.087C513.973 138.391 513.734 138.63 513.431 138.63Z" fill="#2AAFEB"/>
<path d="M506.953 136.124H500.086C499.782 136.124 499.544 135.886 499.544 135.582C499.544 135.278 499.782 135.04 500.086 135.04H506.953C507.257 135.04 507.495 135.278 507.495 135.582C507.495 135.886 507.257 136.124 506.953 136.124Z" fill="#2AAFEB"/>
<path d="M506.953 144.595H500.086C499.782 144.595 499.544 144.356 499.544 144.052C499.544 143.749 499.782 143.51 500.086 143.51H506.953C507.257 143.51 507.495 143.749 507.495 144.052C507.495 144.356 507.257 144.595 506.953 144.595Z" fill="#2AAFEB"/>
<path d="M506.953 153.369H500.086C499.782 153.369 499.544 153.131 499.544 152.827C499.544 152.523 499.782 152.285 500.086 152.285H506.953C507.257 152.285 507.495 152.523 507.495 152.827C507.495 153.131 507.257 153.369 506.953 153.369Z" fill="#2AAFEB"/>
<path d="M513.431 141.233H493.586C493.283 141.233 493.045 140.994 493.045 140.69C493.045 140.387 493.283 140.148 493.586 140.148H513.431C513.734 140.148 513.973 140.387 513.973 140.69C513.973 140.994 513.734 141.233 513.431 141.233Z" fill="#2AAFEB"/>
<path d="M513.431 147.642H493.586C493.283 147.642 493.045 147.404 493.045 147.1C493.045 146.797 493.283 146.558 493.586 146.558H513.431C513.734 146.558 513.973 146.797 513.973 147.1C513.973 147.404 513.734 147.642 513.431 147.642Z" fill="#2AAFEB"/>
<path d="M513.431 150.246H493.586C493.283 150.246 493.045 150.007 493.045 149.703C493.045 149.4 493.283 149.161 493.586 149.161H513.431C513.734 149.161 513.973 149.4 513.973 149.703C513.973 150.007 513.734 150.246 513.431 150.246Z" fill="#2AAFEB"/>
<path d="M513.431 156.525H493.586C493.283 156.525 493.045 156.287 493.045 155.983C493.045 155.679 493.283 155.441 493.586 155.441H513.431C513.734 155.441 513.973 155.679 513.973 155.983C513.973 156.287 513.734 156.525 513.431 156.525Z" fill="#2AAFEB"/>
<path d="M86.8536 129C86.0629 129 85.413 129.64 85.413 130.443V146.386C85.413 147.178 86.0521 147.829 86.8536 147.829C87.6552 147.829 88.2943 147.189 88.2943 146.386V130.443C88.2943 129.651 87.6552 129 86.8536 129Z" fill="#01004C"/>
<path d="M86.8536 169.943C86.0629 169.943 85.413 170.583 85.413 171.386V187.329C85.413 188.121 86.0521 188.772 86.8536 188.772C87.6552 188.772 88.2943 188.132 88.2943 187.329V171.386C88.2943 170.594 87.6552 169.943 86.8536 169.943Z" fill="#01004C"/>
<path d="M115.256 157.449H99.3324C98.5417 157.449 97.8917 158.089 97.8917 158.891C97.8917 159.694 98.5308 160.334 99.3324 160.334H115.256C116.047 160.334 116.697 159.694 116.697 158.891C116.697 158.089 116.057 157.449 115.256 157.449Z" fill="#01004C"/>
<path d="M75.8048 158.881C75.8048 158.089 75.1657 157.438 74.3641 157.438H58.4407C57.65 157.438 57 158.078 57 158.881C57 159.683 57.6391 160.323 58.4407 160.323H74.3641C75.1548 160.323 75.8048 159.683 75.8048 158.881Z" fill="#01004C"/>
<path d="M77.0072 166.711L65.7525 177.98C65.1892 178.544 65.1892 179.455 65.7525 180.019C66.0341 180.301 66.4024 180.442 66.7707 180.442C67.139 180.442 67.5073 180.301 67.7889 180.019L79.0436 168.75C79.6069 168.186 79.6069 167.275 79.0436 166.711C78.4803 166.147 77.5704 166.147 77.0072 166.711Z" fill="#01004C"/>
<path d="M95.682 151.494C96.0503 151.494 96.4186 151.353 96.7002 151.071L107.955 139.803C108.518 139.239 108.518 138.327 107.955 137.764C107.392 137.2 106.482 137.2 105.918 137.764L94.6637 149.032C94.1005 149.596 94.1005 150.507 94.6637 151.071C94.9454 151.353 95.3137 151.494 95.682 151.494Z" fill="#01004C"/>
<path d="M67.7781 137.753C67.2148 137.189 66.3049 137.189 65.7416 137.753C65.1783 138.317 65.1783 139.228 65.7416 139.792L76.9963 151.061C77.278 151.343 77.6463 151.484 78.0146 151.484C78.3829 151.484 78.7511 151.343 79.0328 151.061C79.596 150.497 79.596 149.586 79.0328 149.022L67.7781 137.753Z" fill="#01004C"/>
<path d="M96.7002 166.711C96.1369 166.147 95.227 166.147 94.6637 166.711C94.1005 167.275 94.1005 168.186 94.6637 168.75L105.918 180.019C106.2 180.301 106.568 180.442 106.937 180.442C107.305 180.442 107.673 180.301 107.955 180.019C108.518 179.455 108.518 178.544 107.955 177.98L96.7002 166.711Z" fill="#01004C"/>
<path d="M196.94 359.238C197.071 358.995 196.981 358.691 196.738 358.56C196.495 358.429 196.191 358.519 196.06 358.762L196.5 359L196.94 359.238ZM-173.5 511L-173.571 511.495L-173.5 511ZM-487.935 573.746C-487.799 573.987 -487.494 574.071 -487.254 573.935L-483.338 571.717C-483.098 571.581 -483.013 571.276 -483.15 571.035C-483.286 570.795 -483.591 570.711 -483.831 570.847L-487.311 572.819L-489.283 569.338C-489.419 569.098 -489.724 569.013 -489.965 569.15C-490.205 569.286 -490.289 569.591 -490.153 569.831L-487.935 573.746ZM-485.068 568.94C-484.938 568.697 -485.028 568.394 -485.272 568.263C-485.515 568.132 -485.818 568.223 -485.949 568.466L-485.509 568.703L-485.068 568.94ZM-464.032 546.022C-464.256 546.183 -464.308 546.495 -464.148 546.72C-463.987 546.944 -463.675 546.996 -463.45 546.836L-463.741 546.429L-464.032 546.022ZM-454.704 541.082C-454.468 540.939 -454.393 540.631 -454.537 540.395C-454.68 540.159 -454.987 540.084 -455.223 540.227L-454.964 540.655L-454.704 541.082ZM-427.016 526.297C-427.272 526.4 -427.396 526.692 -427.293 526.948C-427.189 527.204 -426.898 527.328 -426.642 527.225L-426.829 526.761L-427.016 526.297ZM-416.894 523.54C-416.633 523.448 -416.497 523.162 -416.589 522.902C-416.682 522.642 -416.967 522.506 -417.228 522.598L-417.061 523.069L-416.894 523.54ZM-387.063 513.745C-387.331 513.809 -387.497 514.079 -387.433 514.347C-387.369 514.616 -387.099 514.782 -386.83 514.717L-386.947 514.231L-387.063 513.745ZM-376.615 512.437C-376.345 512.381 -376.171 512.116 -376.227 511.846C-376.283 511.575 -376.548 511.402 -376.818 511.458L-376.717 511.947L-376.615 512.437ZM-345.823 506.321C-346.097 506.356 -346.291 506.606 -346.256 506.88C-346.222 507.154 -345.971 507.348 -345.697 507.313L-345.76 506.817L-345.823 506.321ZM-335.322 506.119C-335.048 506.091 -334.848 505.845 -334.876 505.57C-334.905 505.296 -335.151 505.096 -335.425 505.125L-335.374 505.622L-335.322 506.119ZM-304.066 502.885C-304.342 502.897 -304.557 503.13 -304.545 503.405C-304.534 503.681 -304.301 503.896 -304.025 503.884L-304.046 503.385L-304.066 502.885ZM-293.572 503.553C-293.296 503.547 -293.077 503.318 -293.083 503.042C-293.089 502.766 -293.318 502.547 -293.594 502.553L-293.583 503.053L-293.572 503.553ZM-262.157 502.664C-262.433 502.656 -262.663 502.873 -262.671 503.149C-262.679 503.425 -262.462 503.655 -262.186 503.663L-262.171 503.163L-262.157 502.664ZM-251.699 504.042C-251.423 504.054 -251.189 503.84 -251.177 503.564C-251.165 503.289 -251.379 503.055 -251.655 503.043L-251.677 503.542L-251.699 504.042ZM-220.347 505.097C-220.623 505.073 -220.865 505.277 -220.889 505.552C-220.913 505.827 -220.709 506.069 -220.434 506.093L-220.391 505.595L-220.347 505.097ZM-209.977 507.068C-209.702 507.095 -209.457 506.895 -209.43 506.62C-209.402 506.345 -209.603 506.1 -209.878 506.073L-209.927 506.57L-209.977 507.068ZM-178.696 509.77C-178.969 509.732 -179.221 509.924 -179.259 510.197C-179.296 510.471 -179.105 510.723 -178.831 510.76L-178.763 510.265L-178.696 509.77ZM-168.707 512.167C-168.433 512.204 -168.182 512.012 -168.145 511.738C-168.108 511.464 -168.3 511.213 -168.574 511.176L-168.641 511.672L-168.707 512.167ZM-139.718 514.269C-139.993 514.247 -140.234 514.452 -140.256 514.727C-140.278 515.003 -140.073 515.244 -139.798 515.266L-139.758 514.767L-139.718 514.269ZM-130.154 515.945C-129.879 515.962 -129.642 515.752 -129.625 515.476C-129.608 515.201 -129.818 514.964 -130.094 514.947L-130.124 515.446L-130.154 515.945ZM-101.088 515.858C-101.365 515.857 -101.589 516.081 -101.589 516.357C-101.589 516.633 -101.366 516.857 -101.09 516.858L-101.089 516.358L-101.088 515.858ZM-91.399 516.767C-91.1229 516.761 -90.9036 516.533 -90.9091 516.257C-90.9146 515.981 -91.1429 515.761 -91.419 515.767L-91.409 516.267L-91.399 516.767ZM-62.4952 514.238C-62.7704 514.262 -62.974 514.504 -62.9502 514.779C-62.9263 515.054 -62.684 515.258 -62.4089 515.234L-62.4521 514.736L-62.4952 514.238ZM-52.7147 514.279C-52.4402 514.249 -52.2422 514.002 -52.2726 513.727C-52.3029 513.453 -52.5499 513.255 -52.8244 513.285L-52.7695 513.782L-52.7147 514.279ZM-24.1483 509.061C-24.4198 509.112 -24.5991 509.373 -24.5488 509.644C-24.4984 509.916 -24.2375 510.095 -23.966 510.044L-24.0571 509.553L-24.1483 509.061ZM-14.4881 508.162C-14.2179 508.105 -14.0453 507.839 -14.1026 507.569C-14.1599 507.299 -14.4253 507.126 -14.6954 507.184L-14.5917 507.673L-14.4881 508.162ZM13.4212 500.051C13.1565 500.129 13.0056 500.408 13.0843 500.672C13.1629 500.937 13.4413 501.088 13.706 501.009L13.5636 500.53L13.4212 500.051ZM22.9803 498.114C23.2428 498.028 23.3859 497.746 23.3 497.484C23.214 497.221 22.9316 497.078 22.6692 497.164L22.8248 497.639L22.9803 498.114ZM49.8116 486.986C49.5575 487.094 49.439 487.388 49.5469 487.642C49.6549 487.896 49.9485 488.015 50.2026 487.907L50.0071 487.446L49.8116 486.986ZM59.0618 483.99C59.3127 483.875 59.4226 483.578 59.3073 483.327C59.192 483.076 58.8951 482.966 58.6442 483.082L58.853 483.536L59.0618 483.99ZM84.4254 469.812C84.1859 469.949 84.1029 470.255 84.2402 470.494C84.3774 470.734 84.6829 470.817 84.9225 470.68L84.674 470.246L84.4254 469.812ZM93.2535 465.738C93.4888 465.593 93.5624 465.286 93.418 465.05C93.2735 464.815 92.9656 464.741 92.7303 464.886L92.9919 465.312L93.2535 465.738ZM116.715 448.597C116.494 448.763 116.449 449.076 116.614 449.297C116.78 449.518 117.093 449.563 117.314 449.398L117.015 448.998L116.715 448.597ZM124.986 443.462C125.202 443.29 125.237 442.975 125.065 442.76C124.892 442.544 124.578 442.509 124.362 442.681L124.674 443.072L124.986 443.462ZM146.109 423.555C145.91 423.747 145.905 424.064 146.097 424.262C146.289 424.461 146.606 424.466 146.804 424.274L146.457 423.915L146.109 423.555ZM153.654 417.427C153.846 417.229 153.841 416.913 153.643 416.72C153.445 416.528 153.128 416.533 152.936 416.732L153.295 417.08L153.654 417.427ZM172.051 394.93C171.88 395.147 171.917 395.461 172.133 395.632C172.35 395.804 172.664 395.767 172.836 395.55L172.443 395.24L172.051 394.93ZM178.714 387.844C178.878 387.621 178.83 387.308 178.608 387.145C178.385 386.981 178.072 387.029 177.909 387.252L178.312 387.548L178.714 387.844ZM193.742 362.944C193.605 363.184 193.689 363.49 193.929 363.626C194.169 363.763 194.475 363.679 194.611 363.439L194.177 363.191L193.742 362.944ZM-487.5 573.5L-487.018 573.633C-486.62 572.196 -485.975 570.623 -485.068 568.94L-485.509 568.703L-485.949 568.466C-486.884 570.202 -487.561 571.844 -487.982 573.367L-487.5 573.5ZM-463.741 546.429L-463.45 546.836C-460.773 544.922 -457.86 542.998 -454.704 541.082L-454.964 540.655L-455.223 540.227C-458.4 542.156 -461.334 544.093 -464.032 546.022L-463.741 546.429ZM-426.829 526.761L-426.642 527.225C-423.523 525.969 -420.275 524.739 -416.894 523.54L-417.061 523.069L-417.228 522.598C-420.622 523.801 -423.883 525.036 -427.016 526.297L-426.829 526.761ZM-386.947 514.231L-386.83 514.717C-383.516 513.924 -380.111 513.163 -376.615 512.437L-376.717 511.947L-376.818 511.458C-380.324 512.186 -383.738 512.949 -387.063 513.745L-386.947 514.231ZM-345.76 506.817L-345.697 507.313C-342.307 506.883 -338.849 506.484 -335.322 506.119L-335.374 505.622L-335.425 505.125C-338.959 505.49 -342.425 505.89 -345.823 506.321L-345.76 506.817ZM-304.046 503.385L-304.025 503.884C-300.595 503.743 -297.111 503.632 -293.572 503.553L-293.583 503.053L-293.594 502.553C-297.139 502.633 -300.63 502.744 -304.066 502.885L-304.046 503.385ZM-262.171 503.163L-262.186 503.663C-258.735 503.761 -255.239 503.887 -251.699 504.042L-251.677 503.542L-251.655 503.043C-255.201 502.888 -258.701 502.761 -262.157 502.664L-262.171 503.163ZM-220.391 505.595L-220.434 506.093C-216.986 506.391 -213.501 506.716 -209.977 507.068L-209.927 506.57L-209.878 506.073C-213.406 505.721 -216.896 505.396 -220.347 505.097L-220.391 505.595ZM-178.763 510.265L-178.831 510.76C-177.086 510.999 -175.333 511.244 -173.571 511.495L-173.5 511L-173.429 510.505C-175.193 510.253 -176.949 510.008 -178.696 509.77L-178.763 510.265ZM-173.5 511L-173.571 511.495C-171.944 511.727 -170.322 511.951 -168.707 512.167L-168.641 511.672L-168.574 511.176C-170.187 510.96 -171.805 510.737 -173.429 510.505L-173.5 511ZM-139.758 514.767L-139.798 515.266C-136.558 515.524 -133.344 515.751 -130.154 515.945L-130.124 515.446L-130.094 514.947C-133.276 514.753 -136.484 514.527 -139.718 514.269L-139.758 514.767ZM-101.089 516.358L-101.09 516.858C-97.8307 516.861 -94.6006 516.831 -91.399 516.767L-91.409 516.267L-91.419 515.767C-94.6136 515.831 -97.8367 515.861 -101.088 515.858L-101.089 516.358ZM-62.4521 514.736L-62.4089 515.234C-59.1449 514.951 -55.9136 514.632 -52.7147 514.279L-52.7695 513.782L-52.8244 513.285C-56.0155 513.638 -59.2391 513.956 -62.4952 514.238L-62.4521 514.736ZM-24.0571 509.553L-23.966 510.044C-20.7706 509.452 -17.6114 508.824 -14.4881 508.162L-14.5917 507.673L-14.6954 507.184C-17.8104 507.844 -20.9613 508.47 -24.1483 509.061L-24.0571 509.553ZM13.5636 500.53L13.706 501.009C16.8384 500.079 19.9298 499.113 22.9803 498.114L22.8248 497.639L22.6692 497.164C19.6274 498.16 16.5448 499.123 13.4212 500.051L13.5636 500.53ZM50.0071 487.446L50.2026 487.907C53.2014 486.633 56.1544 485.327 59.0618 483.99L58.853 483.536L58.6442 483.082C55.7455 484.414 52.8015 485.716 49.8116 486.986L50.0071 487.446ZM84.674 470.246L84.9225 470.68C87.7509 469.059 90.5277 467.411 93.2535 465.738L92.9919 465.312L92.7303 464.886C90.0131 466.554 87.2449 468.197 84.4254 469.812L84.674 470.246ZM117.015 448.998L117.314 449.398C119.93 447.439 122.487 445.459 124.986 443.462L124.674 443.072L124.362 442.681C121.871 444.671 119.322 446.645 116.715 448.597L117.015 448.998ZM146.457 423.915L146.804 424.274C149.155 421.999 151.438 419.715 153.654 417.427L153.295 417.08L152.936 416.732C150.727 419.012 148.452 421.288 146.109 423.555L146.457 423.915ZM172.443 395.24L172.836 395.55C174.879 392.967 176.838 390.396 178.714 387.844L178.312 387.548L177.909 387.252C176.039 389.794 174.087 392.356 172.051 394.93L172.443 395.24ZM194.177 363.191L194.611 363.439C195.416 362.024 196.192 360.623 196.94 359.238L196.5 359L196.06 358.762C195.316 360.141 194.543 361.536 193.742 362.944L194.177 363.191Z" fill="black"/>
<path d="M509.673 30C514.824 30.0002 519 34.2809 519 39.5615C519 44.8421 514.824 49.1228 509.673 49.123C504.521 49.123 500.345 44.8423 500.344 39.5615C500.344 34.2807 504.521 30 509.673 30ZM509.673 32.8086C506.035 32.8086 503.086 35.8317 503.086 39.5615C503.086 43.2913 506.035 46.3154 509.673 46.3154C513.31 46.3152 516.259 43.2912 516.259 39.5615C516.259 35.8319 513.31 32.8088 509.673 32.8086Z" fill="#0085F6"/>
<path d="M482.445 44.873C495.394 44.873 505.89 55.633 505.891 68.9062C505.891 82.1796 495.394 92.9403 482.445 92.9404C469.497 92.9404 459 82.1796 459 68.9062C459 55.633 469.497 44.873 482.445 44.873ZM482.445 51.9316C473.303 51.9316 465.891 59.5314 465.891 68.9062C465.891 78.2811 473.302 85.8817 482.445 85.8818C491.588 85.8818 499 78.2811 499 68.9062C499 59.5314 491.588 51.9316 482.445 51.9316Z" fill="#0085F6"/>
</g>
<defs>
<clipPath id="clip0_95_620">
<rect width="571" height="359" fill="white"/>
</clipPath>
</defs>
</svg>
