<svg width="75" height="75" viewBox="0 0 75 75" fill="none" xmlns="http://www.w3.org/2000/svg">
<path fill-rule="evenodd" clip-rule="evenodd" d="M37.5 3.90625C29.302 3.90625 22.6562 10.552 22.6562 18.75C22.6562 26.948 29.302 33.5938 37.5 33.5938C45.698 33.5938 52.3438 26.948 52.3438 18.75C52.3438 10.552 45.698 3.90625 37.5 3.90625ZM27.3438 18.75C27.3438 13.1409 31.8909 8.59375 37.5 8.59375C43.1091 8.59375 47.6562 13.1409 47.6562 18.75C47.6562 24.3591 43.1091 28.9062 37.5 28.9062C31.8909 28.9062 27.3438 24.3591 27.3438 18.75Z" fill="#0085F6"/>
<path d="M56.25 10.1562C54.9556 10.1562 53.9062 11.2056 53.9062 12.5C53.9062 13.7944 54.9556 14.8438 56.25 14.8438C60.5515 14.8438 63.2812 17.6742 63.2812 20.3125C63.2812 22.9508 60.5515 25.7812 56.25 25.7812C54.9556 25.7812 53.9062 26.8306 53.9062 28.125C53.9062 29.4194 54.9556 30.4688 56.25 30.4688C62.3038 30.4688 67.9688 26.3036 67.9688 20.3125C67.9688 14.3214 62.3038 10.1562 56.25 10.1562Z" fill="#0085F6"/>
<path d="M21.0938 12.5C21.0938 11.2056 20.0444 10.1562 18.75 10.1562C12.6962 10.1562 7.03125 14.3214 7.03125 20.3125C7.03125 26.3036 12.6962 30.4688 18.75 30.4688C20.0444 30.4688 21.0938 29.4194 21.0938 28.125C21.0938 26.8306 20.0444 25.7812 18.75 25.7812C14.4485 25.7812 11.7188 22.9508 11.7188 20.3125C11.7188 17.6742 14.4485 14.8438 18.75 14.8438C20.0444 14.8438 21.0938 13.7944 21.0938 12.5Z" fill="#0085F6"/>
<path fill-rule="evenodd" clip-rule="evenodd" d="M37.5 38.2812C31.9242 38.2812 26.7702 39.7837 22.9417 42.336C19.1296 44.8775 16.4062 48.6458 16.4062 53.125C16.4062 57.6042 19.1296 61.3725 22.9417 63.914C26.7702 66.4663 31.9242 67.9688 37.5 67.9688C43.0758 67.9688 48.2298 66.4663 52.0583 63.914C55.8704 61.3725 58.5938 57.6042 58.5938 53.125C58.5938 48.6458 55.8704 44.8775 52.0583 42.336C48.2298 39.7837 43.0758 38.2812 37.5 38.2812ZM21.0938 53.125C21.0938 50.7007 22.5678 48.219 25.5418 46.2363C28.4995 44.2645 32.7205 42.9688 37.5 42.9688C42.2795 42.9688 46.5005 44.2645 49.4582 46.2363C52.4322 48.219 53.9062 50.7007 53.9062 53.125C53.9062 55.5493 52.4322 58.031 49.4582 60.0137C46.5005 61.9855 42.2795 63.2812 37.5 63.2812C32.7205 63.2812 28.4995 61.9855 25.5418 60.0137C22.5678 58.031 21.0938 55.5493 21.0938 53.125Z" fill="#0085F6"/>
<path d="M60.2107 43.248C60.4879 41.9836 61.7377 41.1834 63.002 41.4607C66.0079 42.1198 68.7166 43.3105 70.7275 44.956C72.7367 46.6001 74.2188 48.8601 74.2188 51.5625C74.2188 54.2649 72.7367 56.5249 70.7275 58.169C68.7166 59.8145 66.0079 61.0052 63.002 61.6643C61.7377 61.9416 60.4879 61.1414 60.2107 59.877C59.9334 58.6127 60.7336 57.3629 61.998 57.0857C64.4741 56.5426 66.453 55.61 67.759 54.5412C69.0668 53.4711 69.5312 52.4259 69.5312 51.5625C69.5312 50.6991 69.0668 49.6539 67.759 48.5838C66.453 47.515 64.4741 46.5824 61.998 46.0393C60.7336 45.7621 59.9334 44.5123 60.2107 43.248Z" fill="#0085F6"/>
<path d="M11.998 41.4607C13.2623 41.1834 14.5121 41.9836 14.7893 43.248C15.0666 44.5123 14.2664 45.7621 13.002 46.0393C10.5259 46.5824 8.54703 47.515 7.24101 48.5838C5.93321 49.6539 5.46875 50.6991 5.46875 51.5625C5.46875 52.4259 5.93321 53.4711 7.24101 54.5412C8.54703 55.61 10.5259 56.5426 13.002 57.0857C14.2664 57.3629 15.0666 58.6127 14.7893 59.877C14.5121 61.1414 13.2623 61.9416 11.998 61.6643C8.99208 61.0052 6.28344 59.8145 4.27248 58.169C2.26328 56.5249 0.78125 54.2649 0.78125 51.5625C0.78125 48.8601 2.26328 46.6001 4.27248 44.956C6.28344 43.3105 8.99208 42.1198 11.998 41.4607Z" fill="#0085F6"/>
</svg>
