<svg width="75" height="75" viewBox="0 0 75 75" fill="none" xmlns="http://www.w3.org/2000/svg">
<path d="M51.4062 34.2187L40.7812 26.25C38.8368 24.7917 36.1632 24.7917 34.2187 26.25L23.5938 34.2187C22.5582 34.9954 22.3484 36.4645 23.125 37.5C23.9017 38.5355 25.3707 38.7454 26.4062 37.9687L37.0313 30C37.309 29.7917 37.691 29.7917 37.9687 30L48.5938 37.9687C49.6293 38.7454 51.0983 38.5355 51.875 37.5C52.6516 36.4645 52.4418 34.9954 51.4062 34.2187Z" fill="#0085F6"/>
<path d="M45.1562 42.0313L38.9062 37.3437C38.0729 36.7188 36.9271 36.7188 36.0938 37.3437L29.8438 42.0313C28.8082 42.8079 28.5984 44.277 29.375 45.3125C30.1517 46.348 31.6207 46.5579 32.6562 45.7812L37.5 42.1484L42.3438 45.7812C43.3793 46.5579 44.8483 46.348 45.625 45.3125C46.4016 44.277 46.1918 42.8079 45.1562 42.0313Z" fill="#0085F6"/>
<path fill-rule="evenodd" clip-rule="evenodd" d="M37.5 3.90625C34.5702 3.90625 31.7729 4.86432 27.2606 6.40974L24.9873 7.18793C20.3582 8.7725 16.7856 9.99539 14.2282 11.0343C12.94 11.5577 11.8324 12.0646 10.9406 12.5825C10.0823 13.0809 9.22132 13.7026 8.63635 14.5361C8.05814 15.3599 7.75917 16.3726 7.57129 17.3476C7.37597 18.3611 7.2582 19.577 7.18218 20.973C7.03125 23.7449 7.03125 27.5422 7.03125 32.4676V37.473C7.03125 56.5388 21.4313 65.6797 29.9948 69.4205L30.0795 69.4575C31.1413 69.9215 32.1394 70.3576 33.2863 70.6512C34.4971 70.9612 35.7836 71.0938 37.5 71.0938C39.2164 71.0938 40.5029 70.9612 41.7137 70.6512C42.8605 70.3576 43.8586 69.9215 44.9204 69.4576L45.0052 69.4205C53.5687 65.6798 67.9688 56.5388 67.9688 37.473V32.4682C67.9688 27.5425 67.9688 23.745 67.8178 20.973C67.7418 19.577 67.624 18.3611 67.4287 17.3476C67.2408 16.3726 66.9419 15.3599 66.3637 14.5361C65.7787 13.7026 64.9177 13.0809 64.0594 12.5825C63.1676 12.0646 62.06 11.5577 60.7718 11.0343C58.2144 9.99538 54.6418 8.77249 50.0126 7.18791L47.7394 6.40974C43.2271 4.86432 40.4298 3.90625 37.5 3.90625ZM28.3769 10.9822C33.4223 9.25511 35.4446 8.59375 37.5 8.59375C39.5554 8.59375 41.5777 9.25512 46.6231 10.9822L48.4131 11.5949C53.14 13.2129 56.5872 14.3939 59.0075 15.3771C60.2156 15.8679 61.0909 16.2792 61.7054 16.636C62.0087 16.8122 62.2177 16.9576 62.3573 17.071C62.4755 17.1671 62.5207 17.2216 62.5272 17.2296C62.5332 17.2394 62.5721 17.3043 62.6268 17.4579C62.6892 17.6333 62.7585 17.8846 62.8259 18.2346C62.9624 18.9428 63.0658 19.9157 63.1373 21.2279C63.2804 23.8566 63.2812 27.526 63.2812 32.552V37.473C63.2812 53.6452 51.1878 61.6046 43.1288 65.125C41.9679 65.6321 41.2975 65.9191 40.5512 66.1102C39.8385 66.2926 38.9688 66.4062 37.5 66.4062C36.0313 66.4062 35.1615 66.2926 34.4488 66.1102C33.7025 65.9191 33.0321 65.6321 31.8712 65.125C23.8122 61.6045 11.7188 53.6452 11.7188 37.473V32.552C11.7188 27.526 11.7196 23.8566 11.8628 21.2279C11.9342 19.9157 12.0376 18.9428 12.1741 18.2346C12.2415 17.8846 12.3108 17.6333 12.3732 17.4579C12.4279 17.3044 12.4667 17.2395 12.4728 17.2296C12.4793 17.2217 12.5244 17.1672 12.6427 17.071C12.7823 16.9576 12.9913 16.8122 13.2946 16.636C13.9091 16.2792 14.7844 15.8679 15.9925 15.3771C18.4128 14.3939 21.86 13.2129 26.5869 11.5949L28.3769 10.9822Z" fill="#0085F6"/>
</svg>
