<svg width="75" height="75" viewBox="0 0 75 75" fill="none" xmlns="http://www.w3.org/2000/svg">
<path fill-rule="evenodd" clip-rule="evenodd" d="M31.0737 3.90625L48.5451 3.90625C52.1018 3.90623 54.9203 3.90622 57.189 4.09918C59.5096 4.29657 61.4692 4.70858 63.2473 5.65898C65.8365 7.04292 67.9571 9.16355 69.341 11.7527C70.2914 13.5308 70.7034 15.4904 70.9008 17.811C71.0938 20.0796 71.0938 22.8981 71.0938 26.4548V26.5625C71.0938 27.8569 70.0444 28.9063 68.75 28.9063C67.4556 28.9063 66.4063 27.8569 66.4063 26.5625C66.4063 22.8743 66.4043 20.255 66.2302 18.2083C66.0586 16.1907 65.7326 14.9457 65.207 13.9624C64.2601 12.1908 62.8092 10.7399 61.0376 9.79299C60.0543 9.26741 58.8093 8.94143 56.7917 8.76982C54.745 8.59573 52.1257 8.59375 48.4375 8.59375H31.25C25.2912 8.59375 21.0579 8.59873 17.8464 9.0305C14.7024 9.4532 12.891 10.2459 11.5685 11.5684C10.2459 12.891 9.4532 14.7024 9.0305 17.8464C8.59873 21.0579 8.59375 25.2912 8.59375 31.25V34.375C8.59375 35.8095 8.59426 37.1051 8.60533 38.2813H34.375C35.6694 38.2813 36.7188 39.3306 36.7188 40.625C36.7188 41.9194 35.6694 42.9688 34.375 42.9688H8.77102C8.81012 43.4573 8.85784 43.9164 8.91609 44.3496C9.22438 46.6427 9.78827 47.857 10.6532 48.7218C11.518 49.5867 12.7323 50.1506 15.0254 50.4589C17.3859 50.7763 20.5143 50.7813 25 50.7813H34.375C35.6694 50.7813 36.7188 51.8306 36.7188 53.125V68.75C36.7188 70.0444 35.6694 71.0938 34.375 71.0938H25C23.7056 71.0938 22.6563 70.0444 22.6563 68.75C22.6563 67.4556 23.7056 66.4062 25 66.4062H32.0313V55.4688H24.8285C20.5548 55.4688 17.1101 55.4689 14.4008 55.1046C11.5879 54.7264 9.21959 53.9174 7.3386 52.0364C5.45761 50.1554 4.64856 47.7871 4.27039 44.9742C4.1189 43.8475 4.03043 42.5936 3.97876 41.2057C3.93142 41.02 3.90625 40.8255 3.90625 40.625C3.90625 40.4744 3.92045 40.3272 3.94758 40.1845C3.90619 38.4926 3.90622 36.6168 3.90625 34.5465L3.90625 31.0737C3.9062 25.3307 3.90616 20.7818 4.3848 17.2218C4.87739 13.558 5.91525 10.5925 8.25389 8.25389C10.5925 5.91525 13.558 4.87739 17.2218 4.3848C20.7819 3.90616 25.3307 3.9062 31.0737 3.90625ZM56.0875 32.0312H56.4125C59.2202 32.0312 61.5616 32.0311 63.4203 32.281C65.3821 32.5447 67.1534 33.125 68.5767 34.5483C70 35.9716 70.5803 37.7429 70.844 39.7048C71.0939 41.5635 71.0939 43.9048 71.0938 46.7125V56.4125C71.0939 59.2202 71.0939 61.5616 70.844 63.4202C70.5803 65.3821 70 67.1534 68.5767 68.5767C67.1534 70 65.3821 70.5803 63.4203 70.844C61.5616 71.0939 59.2202 71.0938 56.4125 71.0938H56.0875C53.2798 71.0938 50.9385 71.0939 49.0798 70.844C47.1179 70.5803 45.3466 70 43.9233 68.5767C42.5 67.1534 41.9197 65.3821 41.656 63.4202C41.4061 61.5616 41.4062 59.2202 41.4062 56.4125V46.7125C41.4062 43.9048 41.4061 41.5635 41.656 39.7048C41.9197 37.7429 42.5 35.9716 43.9233 34.5483C45.3466 33.125 47.1179 32.5447 49.0798 32.281C50.9385 32.0311 53.2798 32.0312 56.0875 32.0312ZM49.7044 36.9267C48.2623 37.1206 47.6451 37.4556 47.2379 37.8629C46.8306 38.2701 46.4956 38.8873 46.3017 40.3294C46.0987 41.8388 46.0938 43.8625 46.0938 46.875V56.25C46.0938 59.2625 46.0987 61.2862 46.3017 62.7957C46.4956 64.2377 46.8306 64.8549 47.2379 65.2621C47.6451 65.6694 48.2623 66.0044 49.7044 66.1983C51.2138 66.4013 53.2375 66.4062 56.25 66.4062C59.2625 66.4062 61.2862 66.4013 62.7957 66.1983C64.2377 66.0044 64.8549 65.6694 65.2621 65.2621C65.6694 64.8549 66.0044 64.2377 66.1983 62.7957C66.4013 61.2862 66.4063 59.2625 66.4063 56.25V46.875C66.4063 43.8625 66.4013 41.8388 66.1983 40.3294C66.0044 38.8873 65.6694 38.2701 65.2621 37.8629C64.8549 37.4556 64.2377 37.1206 62.7957 36.9267C61.2862 36.7237 59.2625 36.7188 56.25 36.7188C53.2375 36.7188 51.2138 36.7237 49.7044 36.9267ZM50.7813 62.5C50.7813 61.2056 51.8306 60.1562 53.125 60.1562H59.375C60.6694 60.1562 61.7188 61.2056 61.7188 62.5C61.7188 63.7944 60.6694 64.8438 59.375 64.8438H53.125C51.8306 64.8438 50.7813 63.7944 50.7813 62.5Z" fill="#0085F6"/>
</svg>
