<svg width="75" height="75" viewBox="0 0 75 75" fill="none" xmlns="http://www.w3.org/2000/svg">
<path fill-rule="evenodd" clip-rule="evenodd" d="M35.8427 48.3427C36.758 47.4274 38.242 47.4274 39.1573 48.3427L45.4073 54.5927C46.3226 55.508 46.3226 56.992 45.4073 57.9073C44.492 58.8226 43.008 58.8226 42.0927 57.9073L39.8438 55.6583V68.75C39.8438 70.0444 38.7944 71.0938 37.5 71.0938C36.2056 71.0938 35.1562 70.0444 35.1562 68.75V55.6583L32.9073 57.9073C31.992 58.8226 30.508 58.8226 29.5927 57.9073C28.6774 56.992 28.6774 55.508 29.5927 54.5927L35.8427 48.3427Z" fill="#0085F6"/>
<path d="M38.9881 11.7188C30.3941 11.7188 23.4747 18.5963 23.4747 27.0221C23.4747 28.4663 23.6769 29.861 24.054 31.1816C25.6078 31.6301 27.0622 32.309 28.3764 33.1784C29.456 33.8925 29.7522 35.3467 29.0381 36.4262C28.3239 37.5058 26.8698 37.8021 25.7903 37.0879C24.6002 36.3007 23.2474 35.736 21.7915 35.4535C21.0984 35.319 20.3802 35.2482 19.6429 35.2482C13.5144 35.2482 8.59375 40.1505 8.59375 46.1397C8.59375 52.1289 13.5144 57.0312 19.6429 57.0312C20.9373 57.0312 21.9866 58.0806 21.9866 59.375C21.9866 60.6694 20.9373 61.7188 19.6429 61.7188C10.978 61.7188 3.90625 54.7698 3.90625 46.1397C3.90625 37.6889 10.6871 30.8502 19.1047 30.5696C18.896 29.4173 18.7872 28.2317 18.7872 27.0221C18.7872 15.9554 27.8577 7.03125 38.9881 7.03125C48.8571 7.03125 57.1012 14.0428 58.8482 23.3477C66.0354 26.3985 71.0938 33.4665 71.0938 41.7279C71.0938 51.3341 64.2572 59.326 55.1776 61.2677C53.9118 61.5384 52.6663 60.7317 52.3956 59.4659C52.1249 58.2001 52.9316 56.9545 54.1974 56.6838C61.1965 55.187 66.4062 49.0405 66.4062 41.7279C66.4062 35.0507 62.0647 29.3465 55.9763 27.2645C54.387 26.721 52.6776 26.4246 50.8929 26.4246C49.0722 26.4246 47.3298 26.7331 45.7133 27.2977C44.4913 27.7245 43.1547 27.0799 42.7278 25.8579C42.301 24.6359 42.9456 23.2992 44.1676 22.8724C46.2747 22.1364 48.5393 21.7371 50.8929 21.7371C51.8162 21.7371 52.7259 21.7986 53.6177 21.9177C51.4907 15.9885 45.7567 11.7188 38.9881 11.7188Z" fill="#0085F6"/>
</svg>
