<svg width="75" height="75" viewBox="0 0 75 75" fill="none" xmlns="http://www.w3.org/2000/svg">
<path d="M35.1562 6.25C35.1562 4.95558 36.2056 3.90625 37.5 3.90625C56.0533 3.90625 71.0938 18.9467 71.0938 37.5C71.0938 56.0533 56.0533 71.0938 37.5 71.0938C18.9467 71.0938 3.90625 56.0533 3.90625 37.5C3.90625 28.103 7.76763 19.6036 13.9843 13.5094C14.9086 12.6032 16.3925 12.618 17.2987 13.5423C18.2048 14.4666 18.1901 15.9505 17.2657 16.8567C11.9114 22.1057 8.59375 29.4133 8.59375 37.5C8.59375 53.4645 21.5355 66.4062 37.5 66.4062C53.4645 66.4062 66.4062 53.4645 66.4062 37.5C66.4062 21.5355 53.4645 8.59375 37.5 8.59375C36.2056 8.59375 35.1562 7.54442 35.1562 6.25Z" fill="#0085F6"/>
<path d="M35.1562 15.625C35.1562 14.3306 36.2056 13.2812 37.5 13.2812C50.8756 13.2812 61.7188 24.1244 61.7188 37.5C61.7188 50.8756 50.8756 61.7188 37.5 61.7188C24.1244 61.7188 13.2812 50.8756 13.2812 37.5C13.2812 36.2056 14.3306 35.1562 15.625 35.1562C16.9194 35.1562 17.9688 36.2056 17.9688 37.5C17.9688 48.2868 26.7132 57.0312 37.5 57.0312C48.2868 57.0312 57.0312 48.2868 57.0312 37.5C57.0312 26.7132 48.2868 17.9688 37.5 17.9688C36.2056 17.9688 35.1562 16.9194 35.1562 15.625Z" fill="#0085F6"/>
<path d="M37.5 22.6562C36.2056 22.6562 35.1562 23.7056 35.1562 25C35.1562 26.2944 36.2056 27.3438 37.5 27.3438C43.1091 27.3438 47.6562 31.8909 47.6562 37.5C47.6562 43.1091 43.1091 47.6562 37.5 47.6562C36.2056 47.6562 35.1562 48.7056 35.1562 50C35.1562 51.2944 36.2056 52.3438 37.5 52.3438C45.698 52.3438 52.3438 45.698 52.3438 37.5C52.3438 29.302 45.698 22.6562 37.5 22.6562Z" fill="#0085F6"/>
</svg>
