<svg width="1440" height="5570" viewBox="0 0 1440 5570" fill="none" xmlns="http://www.w3.org/2000/svg">
<path d="M1120.49 525.17C1120.58 524.347 1119.99 523.604 1119.17 523.51C1118.35 523.416 1117.6 524.007 1117.51 524.83L1119 525L1120.49 525.17ZM682.312 632.373L682.485 630.883L682.312 632.373ZM559.552 859.324C560.283 858.935 560.561 858.027 560.172 857.296L553.833 845.376C553.444 844.645 552.535 844.367 551.804 844.756C551.073 845.145 550.795 846.054 551.184 846.785L556.819 857.38L546.224 863.015C545.492 863.404 545.215 864.312 545.604 865.043C545.993 865.775 546.901 866.052 547.633 865.663L559.552 859.324ZM554.785 854.986C554.014 854.682 553.143 855.06 552.839 855.83C552.535 856.601 552.913 857.472 553.683 857.776L554.234 856.381L554.785 854.986ZM548.108 855.305C548.851 855.67 549.75 855.363 550.115 854.619C550.479 853.875 550.172 852.976 549.428 852.612L548.768 853.959L548.108 855.305ZM540.893 847.833C540.192 847.392 539.266 847.604 538.826 848.306C538.385 849.008 538.597 849.934 539.299 850.374L540.096 849.103L540.893 847.833ZM534.204 846.987C534.882 847.463 535.817 847.299 536.293 846.621C536.769 845.943 536.605 845.007 535.927 844.531L535.065 845.759L534.204 846.987ZM528.1 838.588C527.459 838.065 526.514 838.16 525.99 838.802C525.466 839.444 525.561 840.389 526.203 840.912L527.152 839.75L528.1 838.588ZM521.652 837.049C522.274 837.597 523.222 837.537 523.769 836.916C524.317 836.295 524.258 835.347 523.636 834.799L522.644 835.924L521.652 837.049ZM516.431 828.058C515.842 827.475 514.892 827.48 514.31 828.069C513.727 828.657 513.731 829.607 514.32 830.19L515.375 829.124L516.431 828.058ZM510.085 825.857C510.655 826.459 511.604 826.485 512.206 825.916C512.808 825.346 512.834 824.397 512.264 823.795L511.175 824.826L510.085 825.857ZM505.678 816.469C505.14 815.839 504.193 815.765 503.563 816.303C502.933 816.841 502.859 817.788 503.397 818.418L504.538 817.443L505.678 816.469ZM499.563 813.795C500.083 814.44 501.027 814.542 501.673 814.023C502.318 813.503 502.42 812.559 501.901 811.914L500.732 812.854L499.563 813.795ZM495.892 804.065C495.404 803.396 494.466 803.248 493.796 803.736C493.126 804.223 492.979 805.161 493.466 805.831L494.679 804.948L495.892 804.065ZM490.001 800.924C490.469 801.608 491.403 801.783 492.086 801.315C492.77 800.847 492.945 799.913 492.477 799.23L491.239 800.077L490.001 800.924ZM487.096 790.946C486.662 790.24 485.738 790.02 485.033 790.454C484.327 790.888 484.107 791.812 484.541 792.518L485.818 791.732L487.096 790.946ZM481.467 787.348C481.879 788.066 482.796 788.314 483.514 787.901C484.233 787.489 484.481 786.572 484.068 785.854L482.767 786.601L481.467 787.348ZM479.377 777.172C479.002 776.433 478.099 776.137 477.36 776.512C476.622 776.886 476.326 777.789 476.701 778.528L478.039 777.85L479.377 777.172ZM474.065 773.11C474.415 773.861 475.308 774.186 476.059 773.836C476.809 773.486 477.135 772.594 476.785 771.843L475.425 772.476L474.065 773.11ZM472.883 762.794C472.577 762.024 471.706 761.647 470.935 761.952C470.165 762.258 469.788 763.129 470.094 763.9L471.488 763.347L472.883 762.794ZM467.977 758.253C468.253 759.034 469.11 759.443 469.891 759.167C470.672 758.891 471.081 758.034 470.805 757.253L469.391 757.753L467.977 758.253ZM467.839 747.862C467.617 747.064 466.79 746.597 465.992 746.819C465.194 747.041 464.727 747.868 464.948 748.666L466.394 748.264L467.839 747.862ZM463.467 742.84C463.653 743.647 464.458 744.151 465.266 743.965C466.073 743.779 466.577 742.974 466.391 742.167L464.929 742.503L463.467 742.84ZM464.576 732.515C464.457 731.695 463.697 731.127 462.877 731.245C462.057 731.364 461.488 732.125 461.607 732.945L463.092 732.73L464.576 732.515ZM460.901 726.914C460.974 727.739 461.703 728.348 462.528 728.275C463.353 728.202 463.963 727.473 463.889 726.648L462.395 726.781L460.901 726.914ZM463.507 716.871C463.518 716.043 462.855 715.363 462.026 715.352C461.198 715.342 460.518 716.005 460.508 716.833L462.007 716.852L463.507 716.871ZM460.784 710.789C460.719 711.615 461.335 712.337 462.16 712.403C462.986 712.469 463.709 711.853 463.775 711.027L462.28 710.908L460.784 710.789ZM465.135 701.364C465.301 700.552 464.778 699.759 463.966 699.593C463.155 699.427 462.362 699.95 462.196 700.761L463.665 701.062L465.135 701.364ZM463.648 694.859C463.419 695.655 463.877 696.486 464.673 696.716C465.469 696.946 466.301 696.487 466.531 695.691L465.09 695.275L463.648 694.859ZM469.861 686.565C470.198 685.808 469.859 684.922 469.102 684.584C468.346 684.246 467.459 684.586 467.121 685.343L468.491 685.954L469.861 686.565ZM469.847 679.873C469.446 680.598 469.709 681.511 470.434 681.912C471.159 682.313 472.071 682.05 472.472 681.325L471.159 680.599L469.847 679.873ZM477.756 673.182C478.254 672.52 478.121 671.579 477.46 671.081C476.798 670.583 475.857 670.716 475.359 671.377L476.558 672.28L477.756 673.182ZM479.19 666.695C478.641 667.314 478.697 668.263 479.317 668.812C479.937 669.362 480.885 669.305 481.435 668.686L480.312 667.69L479.19 666.695ZM488.37 661.81C488.993 661.264 489.056 660.317 488.51 659.693C487.964 659.07 487.017 659.007 486.393 659.553L487.382 660.682L488.37 661.81ZM491.06 655.743C490.401 656.245 490.274 657.186 490.776 657.845C491.278 658.504 492.219 658.632 492.878 658.13L491.969 656.936L491.06 655.743ZM500.939 652.636C501.646 652.204 501.87 651.281 501.438 650.574C501.006 649.867 500.083 649.644 499.376 650.075L500.158 651.356L500.939 652.636ZM504.685 647.037C503.955 647.429 503.681 648.338 504.073 649.068C504.464 649.798 505.373 650.072 506.103 649.681L505.394 648.359L504.685 647.037ZM514.852 645.444C515.611 645.112 515.958 644.228 515.626 643.469C515.295 642.71 514.411 642.363 513.651 642.695L514.252 644.069L514.852 645.444ZM519.354 640.355C518.581 640.652 518.196 641.521 518.494 642.294C518.791 643.067 519.659 643.452 520.432 643.154L519.893 641.754L519.354 640.355ZM529.583 639.964C530.373 639.716 530.812 638.874 530.564 638.083C530.315 637.293 529.473 636.854 528.683 637.103L529.133 638.533L529.583 639.964ZM534.576 635.362C533.777 635.583 533.309 636.41 533.53 637.208C533.751 638.006 534.578 638.475 535.376 638.254L534.976 636.808L534.576 635.362ZM544.809 635.9C545.617 635.719 546.126 634.917 545.945 634.109C545.764 633.301 544.962 632.792 544.154 632.973L544.481 634.436L544.809 635.9ZM550.089 631.731C549.276 631.89 548.745 632.678 548.904 633.491C549.062 634.304 549.85 634.834 550.663 634.676L550.376 633.204L550.089 631.731ZM560.379 632.991C561.198 632.865 561.76 632.1 561.635 631.281C561.509 630.462 560.744 629.9 559.925 630.025L560.152 631.508L560.379 632.991ZM565.804 629.193C564.982 629.3 564.403 630.053 564.51 630.874C564.618 631.696 565.37 632.275 566.192 632.167L565.998 630.68L565.804 629.193ZM576.258 631.032C577.083 630.953 577.687 630.221 577.609 629.396C577.53 628.572 576.797 627.967 575.972 628.046L576.115 629.539L576.258 631.032ZM581.733 627.547C580.907 627.611 580.29 628.333 580.354 629.159C580.419 629.984 581.14 630.602 581.966 630.538L581.85 629.042L581.733 627.547ZM591.852 629.91C592.679 629.869 593.317 629.165 593.276 628.338C593.235 627.51 592.531 626.873 591.703 626.914L591.778 628.412L591.852 629.91ZM597.909 626.656C597.081 626.684 596.433 627.378 596.46 628.206C596.488 629.034 597.182 629.683 598.01 629.655L597.96 628.156L597.909 626.656ZM607.634 629.445C608.462 629.437 609.127 628.758 609.118 627.93C609.109 627.102 608.431 626.437 607.603 626.446L607.618 627.946L607.634 629.445ZM613.584 626.424C612.756 626.421 612.083 627.091 612.08 627.919C612.078 628.748 612.747 629.421 613.576 629.424L613.58 627.924L613.584 626.424ZM623.783 629.563C624.611 629.583 625.299 628.928 625.319 628.099C625.339 627.271 624.683 626.584 623.855 626.564L623.819 628.063L623.783 629.563ZM629.61 626.734C628.782 626.705 628.088 627.353 628.059 628.181C628.03 629.009 628.677 629.703 629.505 629.732L629.558 628.233L629.61 626.734ZM639.309 630.164C640.137 630.208 640.843 629.573 640.886 628.746C640.93 627.918 640.295 627.212 639.468 627.169L639.389 628.666L639.309 630.164ZM645.543 627.521C644.716 627.469 644.004 628.097 643.951 628.923C643.899 629.75 644.527 630.463 645.354 630.515L645.448 629.018L645.543 627.521ZM655.317 631.223C656.143 631.289 656.865 630.672 656.93 629.846C656.996 629.02 656.379 628.298 655.553 628.233L655.435 629.728L655.317 631.223ZM661.357 628.717C660.532 628.644 659.805 629.255 659.732 630.08C659.66 630.905 660.27 631.633 661.095 631.705L661.226 630.211L661.357 628.717ZM670.956 632.64C671.78 632.724 672.516 632.124 672.6 631.3C672.684 630.476 672.084 629.74 671.26 629.656L671.108 631.148L670.956 632.64ZM677.339 630.299C676.516 630.209 675.775 630.803 675.684 631.626C675.594 632.45 676.188 633.191 677.011 633.281L677.175 631.79L677.339 630.299ZM687.153 634.449C687.976 634.545 688.721 633.956 688.818 633.134C688.914 632.311 688.325 631.566 687.503 631.469L687.328 632.959L687.153 634.449ZM693.484 632.172C692.662 632.075 691.916 632.664 691.819 633.486C691.722 634.309 692.311 635.054 693.134 635.151L693.309 633.662L693.484 632.172ZM703.007 636.318C703.83 636.416 704.576 635.828 704.673 635.005C704.771 634.182 704.183 633.436 703.36 633.339L703.184 634.828L703.007 636.318ZM709.275 634.041C708.452 633.943 707.706 634.531 707.608 635.353C707.511 636.176 708.098 636.922 708.921 637.02L709.098 635.531L709.275 634.041ZM718.904 638.21C719.727 638.308 720.473 637.721 720.571 636.898C720.669 636.075 720.082 635.329 719.26 635.231L719.082 636.72L718.904 638.21ZM725.191 635.939C724.368 635.841 723.622 636.428 723.523 637.251C723.425 638.073 724.012 638.82 724.835 638.918L725.013 637.429L725.191 635.939ZM734.706 640.099C735.528 640.197 736.275 639.61 736.373 638.788C736.472 637.965 735.885 637.219 735.062 637.12L734.884 638.61L734.706 640.099ZM741.058 637.837C740.235 637.739 739.489 638.326 739.39 639.149C739.292 639.971 739.879 640.718 740.702 640.816L740.88 639.327L741.058 637.837ZM750.59 641.997C751.412 642.095 752.159 641.508 752.257 640.685C752.355 639.863 751.768 639.116 750.945 639.018L750.767 640.508L750.59 641.997ZM756.84 639.72C756.017 639.623 755.271 640.21 755.173 641.033C755.075 641.855 755.663 642.602 756.485 642.699L756.662 641.21L756.84 639.72ZM766.481 643.885C767.303 643.982 768.049 643.394 768.146 642.571C768.244 641.748 767.655 641.002 766.833 640.905L766.657 642.395L766.481 643.885ZM772.761 641.604C771.938 641.507 771.193 642.096 771.096 642.918C770.999 643.741 771.588 644.487 772.411 644.583L772.586 643.094L772.761 641.604ZM782.302 645.739C783.125 645.835 783.87 645.245 783.965 644.422C784.061 643.6 783.471 642.855 782.648 642.759L782.475 644.249L782.302 645.739ZM788.638 643.452C787.815 643.358 787.071 643.948 786.976 644.771C786.882 645.594 787.472 646.338 788.295 646.433L788.467 644.943L788.638 643.452ZM798.163 647.56C798.986 647.653 799.729 647.062 799.822 646.239C799.916 645.415 799.324 644.673 798.501 644.579L798.332 646.07L798.163 647.56ZM804.456 645.25C803.633 645.158 802.891 645.75 802.798 646.574C802.706 647.397 803.299 648.139 804.122 648.231L804.289 646.74L804.456 645.25ZM814.091 649.334C814.914 649.423 815.655 648.829 815.745 648.005C815.835 647.182 815.24 646.441 814.417 646.351L814.254 647.842L814.091 649.334ZM820.315 646.99C819.492 646.902 818.752 647.498 818.664 648.321C818.575 649.145 819.171 649.885 819.995 649.973L820.155 648.482L820.315 646.99ZM829.976 651.028C830.8 651.113 831.538 650.515 831.623 649.691C831.709 648.867 831.11 648.13 830.286 648.044L830.131 649.536L829.976 651.028ZM836.24 648.655C835.415 648.572 834.679 649.172 834.596 649.996C834.512 650.82 835.112 651.556 835.937 651.64L836.088 650.148L836.24 648.655ZM845.832 652.623C846.656 652.703 847.39 652.1 847.47 651.275C847.55 650.45 846.946 649.717 846.122 649.637L845.977 651.13L845.832 652.623ZM852.13 650.211C851.305 650.134 850.573 650.74 850.496 651.564C850.418 652.389 851.024 653.121 851.849 653.198L851.989 651.705L852.13 650.211ZM861.728 654.1C862.553 654.174 863.282 653.564 863.355 652.739C863.428 651.913 862.818 651.185 861.993 651.112L861.861 652.606L861.728 654.1ZM867.997 651.632C867.172 651.562 866.446 652.175 866.376 653C866.306 653.826 866.919 654.552 867.744 654.622L867.871 653.127L867.997 651.632ZM877.705 655.432C878.531 655.496 879.253 654.878 879.317 654.053C879.381 653.227 878.764 652.505 877.938 652.441L877.822 653.936L877.705 655.432ZM883.855 652.887C883.029 652.827 882.31 653.448 882.249 654.274C882.189 655.1 882.81 655.819 883.636 655.879L883.745 654.383L883.855 652.887ZM893.675 656.572C894.502 656.625 895.215 655.998 895.269 655.171C895.322 654.345 894.695 653.631 893.868 653.578L893.772 655.075L893.675 656.572ZM899.771 653.942C898.944 653.894 898.234 654.525 898.185 655.352C898.137 656.179 898.768 656.889 899.595 656.937L899.683 655.44L899.771 653.942ZM909.648 657.477C910.475 657.517 911.179 656.879 911.219 656.051C911.259 655.224 910.62 654.521 909.793 654.481L909.72 655.979L909.648 657.477ZM915.725 654.747C914.897 654.713 914.198 655.356 914.164 656.184C914.13 657.011 914.773 657.71 915.601 657.744L915.663 656.246L915.725 654.747ZM925.632 658.095C926.46 658.119 927.151 657.466 927.174 656.638C927.197 655.81 926.545 655.12 925.717 655.096L925.675 656.596L925.632 658.095ZM931.669 655.24C930.841 655.224 930.156 655.882 930.14 656.71C930.124 657.538 930.782 658.223 931.61 658.239L931.64 656.74L931.669 655.24ZM941.632 658.359C942.461 658.362 943.135 657.693 943.138 656.865C943.141 656.036 942.472 655.362 941.643 655.359L941.638 656.859L941.632 658.359ZM947.603 655.35C946.775 655.356 946.108 656.032 946.114 656.861C946.119 657.689 946.795 658.356 947.624 658.35L947.614 656.85L947.603 655.35ZM957.645 658.185C958.473 658.163 959.127 657.474 959.105 656.646C959.083 655.818 958.394 655.164 957.566 655.186L957.605 656.686L957.645 658.185ZM963.515 654.99C962.688 655.023 962.043 655.72 962.076 656.548C962.109 657.376 962.807 658.02 963.634 657.987L963.575 656.489L963.515 654.99ZM973.658 657.469C974.484 657.416 975.111 656.702 975.058 655.876C975.005 655.049 974.292 654.422 973.465 654.475L973.561 655.972L973.658 657.469ZM979.38 654.047C978.554 654.113 977.939 654.837 978.006 655.663C978.072 656.488 978.796 657.104 979.621 657.037L979.501 655.542L979.38 654.047ZM989.636 656.077C990.459 655.985 991.052 655.243 990.96 654.42C990.868 653.597 990.126 653.004 989.303 653.096L989.47 654.587L989.636 656.077ZM995.151 652.383C994.33 652.492 993.752 653.246 993.861 654.067C993.969 654.888 994.723 655.466 995.544 655.357L995.348 653.87L995.151 652.383ZM1005.52 653.845C1006.34 653.705 1006.89 652.93 1006.75 652.113C1006.61 651.297 1005.83 650.748 1005.01 650.889L1005.27 652.367L1005.52 653.845ZM1010.83 649.813C1010.02 649.974 1009.49 650.763 1009.66 651.576C1009.82 652.388 1010.61 652.917 1011.42 652.755L1011.13 651.284L1010.83 649.813ZM1021.22 650.571C1022.02 650.371 1022.51 649.557 1022.31 648.753C1022.11 647.949 1021.3 647.46 1020.49 647.66L1020.85 649.116L1021.22 650.571ZM1026.27 646.121C1025.48 646.348 1025.01 647.177 1025.24 647.974C1025.47 648.771 1026.3 649.234 1027.09 649.007L1026.68 647.564L1026.27 646.121ZM1036.68 645.98C1037.46 645.707 1037.87 644.851 1037.6 644.069C1037.32 643.287 1036.47 642.875 1035.69 643.149L1036.18 644.565L1036.68 645.98ZM1041.24 641.079C1040.47 641.384 1040.1 642.255 1040.4 643.026C1040.71 643.796 1041.58 644.173 1042.35 643.869L1041.8 642.474L1041.24 641.079ZM1051.59 639.818C1052.34 639.457 1052.65 638.56 1052.29 637.814C1051.93 637.068 1051.03 636.756 1050.28 637.117L1050.94 638.467L1051.59 639.818ZM1055.53 634.425C1054.8 634.821 1054.53 635.732 1054.93 636.46C1055.32 637.187 1056.23 637.456 1056.96 637.06L1056.24 635.743L1055.53 634.425ZM1065.62 631.856C1066.31 631.398 1066.5 630.467 1066.04 629.777C1065.58 629.086 1064.65 628.897 1063.96 629.355L1064.79 630.605L1065.62 631.856ZM1068.8 625.952C1068.14 626.447 1068 627.387 1068.49 628.051C1068.99 628.715 1069.93 628.853 1070.59 628.358L1069.7 627.155L1068.8 625.952ZM1078.41 621.943C1079.02 621.387 1079.07 620.439 1078.51 619.824C1077.96 619.21 1077.01 619.162 1076.39 619.718L1077.4 620.83L1078.41 621.943ZM1080.65 615.634C1080.07 616.225 1080.08 617.174 1080.67 617.756C1081.26 618.337 1082.21 618.33 1082.79 617.739L1081.72 616.687L1080.65 615.634ZM1089.54 610.189C1090.07 609.546 1089.97 608.601 1089.33 608.079C1088.68 607.557 1087.74 607.655 1087.22 608.298L1088.38 609.243L1089.54 610.189ZM1090.79 603.64C1090.3 604.311 1090.45 605.249 1091.12 605.735C1091.79 606.221 1092.73 606.071 1093.22 605.4L1092 604.52L1090.79 603.64ZM1098.77 596.964C1099.2 596.253 1098.96 595.332 1098.25 594.907C1097.54 594.482 1096.62 594.714 1096.2 595.425L1097.48 596.195L1098.77 596.964ZM1099.12 590.239C1098.73 590.97 1099.01 591.879 1099.74 592.268C1100.47 592.657 1101.38 592.379 1101.77 591.648L1100.45 590.944L1099.12 590.239ZM1106.15 582.594C1106.48 581.835 1106.13 580.951 1105.38 580.618C1104.62 580.285 1103.73 580.631 1103.4 581.389L1104.77 581.992L1106.15 582.594ZM1105.66 575.92C1105.36 576.692 1105.74 577.561 1106.51 577.862C1107.29 578.163 1108.16 577.781 1108.46 577.009L1107.06 576.465L1105.66 575.92ZM1111.83 567.454C1112.08 566.665 1111.64 565.821 1110.86 565.57C1110.07 565.318 1109.22 565.754 1108.97 566.544L1110.4 566.999L1111.83 567.454ZM1110.65 560.944C1110.42 561.742 1110.89 562.57 1111.69 562.795C1112.48 563.02 1113.31 562.555 1113.54 561.758L1112.09 561.351L1110.65 560.944ZM1116.02 551.977C1116.2 551.169 1115.7 550.366 1114.89 550.182C1114.08 549.999 1113.28 550.505 1113.09 551.313L1114.56 551.645L1116.02 551.977ZM1114.32 545.532C1114.16 546.345 1114.69 547.134 1115.5 547.295C1116.31 547.457 1117.1 546.928 1117.26 546.116L1115.79 545.824L1114.32 545.532ZM1119.01 536.216C1119.14 535.397 1118.57 534.631 1117.76 534.504C1116.94 534.376 1116.17 534.937 1116.04 535.756L1117.53 535.986L1119.01 536.216ZM1116.89 529.869C1116.78 530.69 1117.36 531.444 1118.18 531.553C1119 531.662 1119.75 531.084 1119.86 530.263L1118.38 530.066L1116.89 529.869ZM558.847 858L559.286 856.565C557.807 856.114 556.306 855.586 554.785 854.986L554.234 856.381L553.683 857.776C555.273 858.404 556.85 858.958 558.409 859.435L558.847 858ZM548.768 853.959L549.428 852.612C546.623 851.236 543.771 849.638 540.893 847.833L540.096 849.103L539.299 850.374C542.256 852.229 545.199 853.88 548.108 855.305L548.768 853.959ZM535.065 845.759L535.927 844.531C533.322 842.703 530.708 840.717 528.1 838.588L527.152 839.75L526.203 840.912C528.864 843.084 531.535 845.114 534.204 846.987L535.065 845.759ZM522.644 835.924L523.636 834.799C521.217 832.666 518.811 830.415 516.431 828.058L515.375 829.124L514.32 830.19C516.739 832.586 519.188 834.876 521.652 837.049L522.644 835.924ZM511.175 824.826L512.264 823.795C510.035 821.439 507.836 818.994 505.678 816.469L504.538 817.443L503.397 818.418C505.588 820.981 507.82 823.464 510.085 825.857L511.175 824.826ZM500.732 812.854L501.901 811.914C499.849 809.365 497.843 806.746 495.892 804.065L494.679 804.948L493.466 805.831C495.446 808.551 497.482 811.208 499.563 813.795L500.732 812.854ZM491.239 800.077L492.477 799.23C490.621 796.519 488.824 793.755 487.096 790.946L485.818 791.732L484.541 792.518C486.295 795.369 488.118 798.174 490.001 800.924L491.239 800.077ZM482.767 786.601L484.068 785.854C482.427 782.997 480.86 780.1 479.377 777.172L478.039 777.85L476.701 778.528C478.209 781.504 479.8 784.447 481.467 787.348L482.767 786.601ZM475.425 772.476L476.785 771.843C475.39 768.85 474.086 765.83 472.883 762.794L471.488 763.347L470.094 763.9C471.32 766.992 472.647 770.065 474.065 773.11L475.425 772.476ZM469.391 757.753L470.805 757.253C469.703 754.132 468.71 750.998 467.839 747.862L466.394 748.264L464.948 748.666C465.839 751.871 466.852 755.069 467.977 758.253L469.391 757.753ZM464.929 742.503L466.391 742.167C465.648 738.942 465.04 735.722 464.576 732.515L463.092 732.73L461.607 732.945C462.083 736.237 462.707 739.539 463.467 742.84L464.929 742.503ZM462.395 726.781L463.889 726.648C463.598 723.363 463.466 720.1 463.507 716.871L462.007 716.852L460.508 716.833C460.465 720.169 460.601 723.533 460.901 726.914L462.395 726.781ZM462.28 710.908L463.775 711.027C464.036 707.76 464.485 704.535 465.135 701.364L463.665 701.062L462.196 700.761C461.52 704.058 461.054 707.405 460.784 710.789L462.28 710.908ZM465.09 695.275L466.531 695.691C467.428 692.586 468.533 689.54 469.861 686.565L468.491 685.954L467.121 685.343C465.736 688.447 464.583 691.624 463.648 694.859L465.09 695.275ZM471.159 680.599L472.472 681.325C474.014 678.536 475.772 675.818 477.756 673.182L476.558 672.28L475.359 671.377C473.29 674.126 471.457 676.962 469.847 679.873L471.159 680.599ZM480.312 667.69L481.435 668.686C483.537 666.315 485.846 664.02 488.37 661.81L487.382 660.682L486.393 659.553C483.777 661.844 481.379 664.228 479.19 666.695L480.312 667.69ZM491.969 656.936L492.878 658.13C495.381 656.223 498.066 654.39 500.939 652.636L500.158 651.356L499.376 650.075C496.418 651.881 493.648 653.772 491.06 655.743L491.969 656.936ZM505.394 648.359L506.103 649.681C508.864 648.2 511.778 646.786 514.852 645.444L514.252 644.069L513.651 642.695C510.507 644.068 507.52 645.517 504.685 647.037L505.394 648.359ZM519.893 641.754L520.432 643.154C523.351 642.03 526.4 640.966 529.583 639.964L529.133 638.533L528.683 637.103C525.442 638.122 522.334 639.207 519.354 640.355L519.893 641.754ZM534.976 636.808L535.376 638.254C538.408 637.414 541.551 636.629 544.809 635.9L544.481 634.436L544.154 632.973C540.849 633.712 537.657 634.509 534.576 635.362L534.976 636.808ZM550.376 633.204L550.663 634.676C553.802 634.064 557.039 633.501 560.379 632.991L560.152 631.508L559.925 630.025C556.547 630.542 553.269 631.111 550.089 631.731L550.376 633.204ZM565.998 630.68L566.192 632.167C569.455 631.741 572.81 631.362 576.258 631.032L576.115 629.539L575.972 628.046C572.491 628.379 569.102 628.762 565.804 629.193L565.998 630.68ZM581.85 629.042L581.966 630.538C585.184 630.287 588.478 630.078 591.852 629.91L591.778 628.412L591.703 626.914C588.302 627.083 584.98 627.294 581.733 627.547L581.85 629.042ZM597.96 628.156L598.01 629.655C601.152 629.549 604.36 629.479 607.634 629.445L607.618 627.946L607.603 626.446C604.306 626.48 601.075 626.55 597.909 626.656L597.96 628.156ZM613.58 627.924L613.576 629.424C616.912 629.433 620.314 629.48 623.783 629.563L623.819 628.063L623.855 626.564C620.365 626.48 616.942 626.434 613.584 626.424L613.58 627.924ZM629.558 628.233L629.505 629.732C632.717 629.845 635.985 629.989 639.309 630.164L639.389 628.666L639.468 627.169C636.126 626.992 632.841 626.848 629.61 626.734L629.558 628.233ZM645.448 629.018L645.354 630.515C648.622 630.721 651.943 630.957 655.317 631.223L655.435 629.728L655.553 628.233C652.164 627.965 648.827 627.728 645.543 627.521L645.448 629.018ZM661.226 630.211L661.095 631.705C664.334 631.989 667.621 632.301 670.956 632.64L671.108 631.148L671.26 629.656C667.911 629.315 664.611 629.002 661.357 628.717L661.226 630.211ZM677.175 631.79L677.011 633.281C678.708 633.468 680.417 633.662 682.138 633.862L682.312 632.373L682.485 630.883C680.758 630.681 679.042 630.487 677.339 630.299L677.175 631.79ZM682.312 632.373L682.138 633.862C683.814 634.058 685.486 634.254 687.153 634.449L687.328 632.959L687.503 631.469C685.835 631.274 684.163 631.078 682.485 630.883L682.312 632.373ZM693.309 633.662L693.134 635.151C696.444 635.541 699.736 635.93 703.007 636.318L703.184 634.828L703.36 633.339C700.088 632.951 696.796 632.562 693.484 632.172L693.309 633.662ZM709.098 635.531L708.921 637.02C712.269 637.418 715.597 637.815 718.904 638.21L719.082 636.72L719.26 635.231C715.952 634.836 712.624 634.439 709.275 634.041L709.098 635.531ZM725.013 637.429L724.835 638.918C728.146 639.314 731.436 639.708 734.706 640.099L734.884 638.61L735.062 637.12C731.793 636.729 728.502 636.335 725.191 635.939L725.013 637.429ZM740.88 639.327L740.702 640.816C744.02 641.213 747.316 641.607 750.59 641.997L750.767 640.508L750.945 639.018C747.671 638.628 744.376 638.234 741.058 637.837L740.88 639.327ZM756.662 641.21L756.485 642.699C759.84 643.098 763.172 643.494 766.481 643.885L766.657 642.395L766.833 640.905C763.525 640.514 760.194 640.119 756.84 639.72L756.662 641.21ZM772.586 643.094L772.411 644.583C775.732 644.974 779.029 645.359 782.302 645.739L782.475 644.249L782.648 642.759C779.377 642.379 776.081 641.994 772.761 641.604L772.586 643.094ZM788.467 644.943L788.295 646.433C791.609 646.814 794.899 647.191 798.163 647.56L798.332 646.07L798.501 644.579C795.238 644.21 791.951 643.834 788.638 643.452L788.467 644.943ZM804.289 646.74L804.122 648.231C807.472 648.606 810.795 648.974 814.091 649.334L814.254 647.842L814.417 646.351C811.123 645.992 807.803 645.624 804.456 645.25L804.289 646.74ZM820.155 648.482L819.995 649.973C823.35 650.333 826.677 650.685 829.976 651.028L830.131 649.536L830.286 648.044C826.991 647.702 823.668 647.35 820.315 646.99L820.155 648.482ZM836.088 650.148L835.937 651.64C839.264 651.978 842.563 652.306 845.832 652.623L845.977 651.13L846.122 649.637C842.857 649.32 839.563 648.993 836.24 648.655L836.088 650.148ZM851.989 651.705L851.849 653.198C855.173 653.511 858.466 653.812 861.728 654.1L861.861 652.606L861.993 651.112C858.736 650.824 855.449 650.524 852.13 650.211L851.989 651.705ZM867.871 653.127L867.744 654.622C871.098 654.906 874.418 655.176 877.705 655.432L877.822 653.936L877.938 652.441C874.658 652.186 871.345 651.916 867.997 651.632L867.871 653.127ZM883.745 654.383L883.636 655.879C887.019 656.127 890.365 656.358 893.675 656.572L893.772 655.075L893.868 653.578C890.567 653.365 887.229 653.134 883.855 652.887L883.745 654.383ZM899.683 655.44L899.595 656.937C902.985 657.137 906.336 657.317 909.648 657.477L909.72 655.979L909.793 654.481C906.492 654.321 903.151 654.142 899.771 653.942L899.683 655.44ZM915.663 656.246L915.601 657.744C918.986 657.884 922.33 658.002 925.632 658.095L925.675 656.596L925.717 655.096C922.429 655.003 919.098 654.886 915.725 654.747L915.663 656.246ZM931.64 656.74L931.61 658.239C934.996 658.306 938.337 658.347 941.632 658.359L941.638 656.859L941.643 655.359C938.365 655.347 935.04 655.306 931.669 655.24L931.64 656.74ZM947.614 656.85L947.624 658.35C951.014 658.327 954.354 658.273 957.645 658.185L957.605 656.686L957.566 655.186C954.295 655.273 950.974 655.327 947.603 655.35L947.614 656.85ZM963.575 656.489L963.634 657.987C967.03 657.853 970.371 657.68 973.658 657.469L973.561 655.972L973.465 654.475C970.204 654.685 966.887 654.856 963.515 654.99L963.575 656.489ZM979.501 655.542L979.621 657.037C983.02 656.763 986.358 656.444 989.636 656.077L989.47 654.587L989.303 653.096C986.057 653.458 982.75 653.775 979.38 654.047L979.501 655.542ZM995.348 653.87L995.544 655.357C998.938 654.908 1002.26 654.405 1005.52 653.845L1005.27 652.367L1005.01 650.889C1001.8 651.442 998.508 651.939 995.151 652.383L995.348 653.87ZM1011.13 651.284L1011.42 652.755C1014.76 652.093 1018.02 651.366 1021.22 650.571L1020.85 649.116L1020.49 647.66C1017.35 648.442 1014.13 649.159 1010.83 649.813L1011.13 651.284ZM1026.68 647.564L1027.09 649.007C1030.37 648.077 1033.57 647.069 1036.68 645.98L1036.18 644.565L1035.69 643.149C1032.63 644.217 1029.5 645.207 1026.27 646.121L1026.68 647.564ZM1041.8 642.474L1042.35 643.869C1045.52 642.612 1048.6 641.264 1051.59 639.818L1050.94 638.467L1050.28 637.117C1047.37 638.529 1044.35 639.849 1041.24 641.079L1041.8 642.474ZM1056.24 635.743L1056.96 637.06C1059.95 635.434 1062.83 633.701 1065.62 631.856L1064.79 630.605L1063.96 629.355C1061.25 631.15 1058.44 632.839 1055.53 634.425L1056.24 635.743ZM1069.7 627.155L1070.59 628.358C1073.3 626.339 1075.91 624.203 1078.41 621.943L1077.4 620.83L1076.39 619.718C1073.97 621.913 1071.44 623.99 1068.8 625.952L1069.7 627.155ZM1081.72 616.687L1082.79 617.739C1085.15 615.347 1087.4 612.832 1089.54 610.189L1088.38 609.243L1087.22 608.298C1085.13 610.867 1082.94 613.311 1080.65 615.634L1081.72 616.687ZM1092 604.52L1093.22 605.4C1095.17 602.709 1097.02 599.899 1098.77 596.964L1097.48 596.195L1096.2 595.425C1094.49 598.286 1092.68 601.023 1090.79 603.64L1092 604.52ZM1100.45 590.944L1101.77 591.648C1103.32 588.743 1104.77 585.726 1106.15 582.594L1104.77 581.992L1103.4 581.389C1102.06 584.454 1100.63 587.403 1099.12 590.239L1100.45 590.944ZM1107.06 576.465L1108.46 577.009C1109.66 573.929 1110.78 570.745 1111.83 567.454L1110.4 566.999L1108.97 566.544C1107.94 569.776 1106.84 572.901 1105.66 575.92L1107.06 576.465ZM1112.09 561.351L1113.54 561.758C1114.43 558.591 1115.26 555.332 1116.02 551.977L1114.56 551.645L1113.09 551.313C1112.34 554.62 1111.53 557.829 1110.65 560.944L1112.09 561.351ZM1115.79 545.824L1117.26 546.116C1117.9 542.9 1118.48 539.6 1119.01 536.216L1117.53 535.986L1116.04 535.756C1115.52 539.1 1114.95 542.359 1114.32 545.532L1115.79 545.824ZM1118.38 530.066L1119.86 530.263C1120.09 528.585 1120.29 526.888 1120.49 525.17L1119 525L1117.51 524.83C1117.32 526.53 1117.11 528.21 1116.89 529.869L1118.38 530.066Z" fill="#CFCFE2" />
<path d="M221.412 1703.8L222.856 1703.4V1703.4L221.412 1703.8ZM746.959 1842.38L746.818 1840.89L746.959 1842.38ZM921.183 1989.18C920.533 1988.66 920.422 1987.72 920.935 1987.07L929.3 1976.47C929.813 1975.82 930.756 1975.71 931.406 1976.23C932.057 1976.74 932.168 1977.68 931.654 1978.33L924.219 1987.75L933.638 1995.19C934.288 1995.7 934.4 1996.64 933.886 1997.29C933.373 1997.94 932.43 1998.06 931.779 1997.54L921.183 1989.18ZM746.959 1337.51L746.644 1336.04L746.959 1337.51ZM799.491 958.373C798.733 958.039 798.389 957.154 798.722 956.396C799.056 955.637 799.941 955.293 800.699 955.627L800.095 957L799.491 958.373ZM926.764 1985.77C927.579 1985.62 928.363 1986.15 928.516 1986.97C928.67 1987.78 928.134 1988.56 927.32 1988.72L927.042 1987.24L926.764 1985.77ZM933.284 1987.35C932.485 1987.57 931.661 1987.09 931.445 1986.29C931.229 1985.49 931.702 1984.67 932.502 1984.45L932.893 1985.9L933.284 1987.35ZM941.815 1981.33C942.584 1981.02 943.457 1981.39 943.766 1982.16C944.075 1982.93 943.702 1983.8 942.933 1984.11L942.374 1982.72L941.815 1981.33ZM948.52 1981.65C947.773 1982.01 946.877 1981.69 946.519 1980.94C946.161 1980.2 946.476 1979.3 947.222 1978.94L947.871 1980.3L948.52 1981.65ZM955.868 1974.23C956.574 1973.79 957.498 1974.01 957.931 1974.72C958.365 1975.42 958.144 1976.35 957.438 1976.78L956.653 1975.5L955.868 1974.23ZM962.535 1973.44C961.856 1973.91 960.921 1973.75 960.446 1973.07C959.971 1972.39 960.136 1971.45 960.815 1970.98L961.675 1972.21L962.535 1973.44ZM968.604 1964.94C969.233 1964.4 970.18 1964.47 970.72 1965.1C971.259 1965.73 971.187 1966.67 970.558 1967.21L969.581 1966.08L968.604 1964.94ZM975.059 1963.11C974.463 1963.69 973.514 1963.67 972.938 1963.08C972.361 1962.48 972.377 1961.53 972.972 1960.96L974.015 1962.04L975.059 1963.11ZM979.69 1953.75C980.222 1953.11 981.168 1953.03 981.803 1953.56C982.438 1954.09 982.521 1955.04 981.989 1955.68L980.839 1954.71L979.69 1953.75ZM985.745 1950.88C985.256 1951.55 984.317 1951.7 983.649 1951.21C982.98 1950.72 982.834 1949.78 983.322 1949.11L984.534 1950L985.745 1950.88ZM988.642 1940.84C989.046 1940.12 989.96 1939.86 990.683 1940.26C991.406 1940.67 991.665 1941.58 991.261 1942.31L989.951 1941.57L988.642 1940.84ZM994.028 1936.86C993.683 1937.61 992.793 1937.94 992.039 1937.6C991.286 1937.25 990.955 1936.36 991.3 1935.61L992.664 1936.23L994.028 1936.86ZM994.701 1926.44C994.927 1925.64 995.757 1925.18 996.554 1925.41C997.351 1925.63 997.813 1926.46 997.586 1927.26L996.144 1926.85L994.701 1926.44ZM998.965 1921.27C998.822 1922.09 998.044 1922.63 997.228 1922.49C996.412 1922.34 995.867 1921.57 996.01 1920.75L997.488 1921.01L998.965 1921.27ZM996.786 1911.08C996.771 1910.25 997.43 1909.57 998.258 1909.55C999.087 1909.54 999.77 1910.2 999.785 1911.02L998.286 1911.05L996.786 1911.08ZM999.291 1904.86C999.409 1905.68 998.84 1906.44 998.02 1906.56C997.2 1906.68 996.439 1906.11 996.321 1905.29L997.806 1905.08L999.291 1904.86ZM993.938 1895.94C993.65 1895.17 994.045 1894.3 994.821 1894.01C995.598 1893.72 996.461 1894.12 996.75 1894.9L995.344 1895.42L993.938 1895.94ZM994.237 1889.25C994.62 1889.98 994.334 1890.89 993.599 1891.27C992.865 1891.65 991.959 1891.37 991.576 1890.63L992.907 1889.94L994.237 1889.25ZM986.302 1882.52C985.789 1881.87 985.9 1880.93 986.551 1880.41C987.201 1879.9 988.144 1880.01 988.657 1880.66L987.48 1881.59L986.302 1882.52ZM984.582 1876C985.157 1876.6 985.14 1877.55 984.544 1878.12C983.947 1878.7 982.998 1878.68 982.423 1878.08L983.502 1877.04L984.582 1876ZM975.151 1871.56C974.498 1871.05 974.383 1870.11 974.894 1869.45C975.404 1868.8 976.347 1868.69 976.999 1869.2L976.075 1870.38L975.151 1871.56ZM972.089 1865.63C972.775 1866.09 972.956 1867.03 972.493 1867.71C972.029 1868.4 971.097 1868.58 970.41 1868.12L971.25 1866.87L972.089 1865.63ZM962.007 1863.05C961.278 1862.66 961.006 1861.75 961.399 1861.02C961.792 1860.29 962.702 1860.02 963.431 1860.41L962.719 1861.73L962.007 1863.05ZM957.933 1857.63C958.681 1857.98 959 1858.88 958.644 1859.62C958.288 1860.37 957.393 1860.69 956.645 1860.33L957.289 1858.98L957.933 1857.63ZM947.569 1856.42C946.797 1856.12 946.416 1855.25 946.717 1854.48C947.019 1853.71 947.889 1853.33 948.66 1853.63L948.115 1855.03L947.569 1856.42ZM943.058 1851.56C943.84 1851.83 944.252 1852.69 943.979 1853.47C943.706 1854.25 942.851 1854.66 942.069 1854.39L942.563 1852.98L943.058 1851.56ZM932.467 1851.34C931.671 1851.11 931.213 1850.28 931.443 1849.48C931.673 1848.68 932.505 1848.23 933.3 1848.46L932.884 1849.9L932.467 1851.34ZM927.653 1846.91C928.454 1847.12 928.936 1847.94 928.727 1848.74C928.519 1849.54 927.7 1850.02 926.898 1849.81L927.275 1848.36L927.653 1846.91ZM917.054 1847.48C916.244 1847.31 915.728 1846.51 915.902 1845.7C916.077 1844.89 916.874 1844.37 917.684 1844.55L917.369 1846.02L917.054 1847.48ZM911.946 1843.38C912.76 1843.54 913.292 1844.32 913.136 1845.14C912.979 1845.95 912.193 1846.48 911.379 1846.33L911.663 1844.85L911.946 1843.38ZM901.485 1844.6C900.667 1844.47 900.108 1843.7 900.237 1842.88C900.366 1842.06 901.135 1841.5 901.953 1841.63L901.719 1843.12L901.485 1844.6ZM896.03 1840.75C896.851 1840.87 897.423 1841.63 897.308 1842.45C897.194 1843.27 896.436 1843.84 895.615 1843.73L895.823 1842.24L896.03 1840.75ZM885.798 1842.49C884.975 1842.4 884.382 1841.66 884.474 1840.84C884.567 1840.01 885.309 1839.42 886.132 1839.51L885.965 1841L885.798 1842.49ZM879.938 1838.87C880.763 1838.95 881.367 1839.68 881.288 1840.5C881.208 1841.33 880.475 1841.93 879.651 1841.85L879.794 1840.36L879.938 1838.87ZM869.964 1841.03C869.138 1840.97 868.518 1840.25 868.579 1839.42C868.64 1838.6 869.359 1837.98 870.185 1838.04L870.075 1839.54L869.964 1841.03ZM864.133 1837.63C864.96 1837.68 865.589 1838.39 865.539 1839.22C865.488 1840.05 864.777 1840.68 863.95 1840.63L864.042 1839.13L864.133 1837.63ZM853.922 1840.11C853.094 1840.08 852.451 1839.38 852.485 1838.55C852.519 1837.73 853.218 1837.08 854.045 1837.12L853.984 1838.62L853.922 1840.11ZM848.154 1836.91C848.982 1836.93 849.633 1837.62 849.607 1838.45C849.582 1839.28 848.89 1839.93 848.062 1839.9L848.108 1838.41L848.154 1836.91ZM837.985 1839.68C837.157 1839.67 836.494 1838.99 836.506 1838.16C836.517 1837.34 837.197 1836.67 838.026 1836.68L838.005 1838.18L837.985 1839.68ZM831.912 1836.63C832.74 1836.64 833.409 1837.31 833.406 1838.14C833.403 1838.97 832.729 1839.64 831.901 1839.63L831.906 1838.13L831.912 1836.63ZM822.142 1839.67C821.314 1839.68 820.635 1839.01 820.626 1838.18C820.617 1837.35 821.281 1836.68 822.11 1836.67L822.126 1838.17L822.142 1839.67ZM816.069 1836.76C816.897 1836.74 817.581 1837.4 817.597 1838.23C817.613 1839.06 816.954 1839.74 816.126 1839.76L816.097 1838.26L816.069 1836.76ZM805.935 1840.02C805.107 1840.05 804.414 1839.4 804.387 1838.57C804.36 1837.74 805.009 1837.05 805.837 1837.02L805.886 1838.52L805.935 1840.02ZM800.01 1837.23C800.838 1837.2 801.536 1837.84 801.569 1838.67C801.602 1839.5 800.957 1840.2 800.129 1840.23L800.07 1838.73L800.01 1837.23ZM790.222 1840.68C789.395 1840.73 788.689 1840.09 788.647 1839.26C788.604 1838.43 789.24 1837.73 790.068 1837.69L790.145 1839.18L790.222 1840.68ZM783.963 1838.02C784.79 1837.97 785.499 1838.6 785.547 1839.43C785.596 1840.26 784.964 1840.97 784.137 1841.02L784.05 1839.52L783.963 1838.02ZM774.131 1841.65C773.304 1841.71 772.588 1841.09 772.531 1840.26C772.474 1839.43 773.098 1838.72 773.924 1838.66L774.027 1840.16L774.131 1841.65ZM768.06 1839.08C768.887 1839.02 769.606 1839.64 769.668 1840.47C769.73 1841.29 769.111 1842.01 768.285 1842.07L768.172 1840.58L768.06 1839.08ZM758.338 1842.87C757.513 1842.94 756.787 1842.33 756.717 1841.5C756.647 1840.67 757.26 1839.95 758.085 1839.88L758.212 1841.37L758.338 1842.87ZM751.978 1840.41C752.803 1840.34 753.532 1840.95 753.607 1841.77C753.681 1842.6 753.073 1843.33 752.247 1843.4L752.113 1841.91L751.978 1840.41ZM742.125 1844.35C741.3 1844.42 740.569 1843.82 740.491 1842.99C740.414 1842.17 741.02 1841.44 741.845 1841.36L741.985 1842.85L742.125 1844.35ZM735.899 1841.91C736.724 1841.83 737.454 1842.44 737.53 1843.27C737.606 1844.09 736.999 1844.82 736.174 1844.9L736.037 1843.4L735.899 1841.91ZM726.308 1845.79C725.483 1845.87 724.754 1845.26 724.68 1844.43C724.606 1843.61 725.215 1842.88 726.041 1842.81L726.174 1844.3L726.308 1845.79ZM720.141 1843.33C720.967 1843.26 721.694 1843.87 721.767 1844.69C721.839 1845.52 721.229 1846.25 720.404 1846.32L720.273 1844.82L720.141 1843.33ZM710.464 1847.18C709.639 1847.25 708.913 1846.64 708.842 1845.81C708.772 1844.98 709.385 1844.26 710.21 1844.19L710.337 1845.68L710.464 1847.18ZM704.285 1844.69C705.11 1844.62 705.835 1845.23 705.904 1846.06C705.972 1846.88 705.359 1847.61 704.533 1847.68L704.409 1846.18L704.285 1844.69ZM694.681 1848.48C693.855 1848.55 693.132 1847.93 693.066 1847.1C693 1846.28 693.616 1845.55 694.442 1845.49L694.561 1846.98L694.681 1848.48ZM688.471 1845.96C689.297 1845.9 690.019 1846.51 690.083 1847.34C690.148 1848.17 689.53 1848.89 688.704 1848.95L688.588 1847.46L688.471 1845.96ZM678.803 1849.71C677.976 1849.77 677.257 1849.15 677.195 1848.32C677.134 1847.5 677.754 1846.78 678.58 1846.71L678.691 1848.21L678.803 1849.71ZM672.681 1847.15C673.507 1847.09 674.226 1847.71 674.285 1848.54C674.345 1849.36 673.724 1850.08 672.897 1850.14L672.789 1848.64L672.681 1847.15ZM662.956 1850.84C662.129 1850.9 661.413 1850.27 661.357 1849.44C661.3 1848.62 661.924 1847.9 662.751 1847.85L662.853 1849.34L662.956 1850.84ZM656.808 1848.25C657.635 1848.19 658.349 1848.82 658.404 1849.64C658.458 1850.47 657.832 1851.18 657.006 1851.24L656.907 1849.74L656.808 1848.25ZM647.153 1851.87C646.326 1851.92 645.614 1851.29 645.563 1850.46C645.512 1849.64 646.141 1848.93 646.968 1848.87L647.06 1850.37L647.153 1851.87ZM640.99 1849.24C641.817 1849.19 642.527 1849.82 642.576 1850.64C642.625 1851.47 641.994 1852.18 641.167 1852.23L641.079 1850.73L640.99 1849.24ZM631.239 1852.8C630.412 1852.84 629.705 1852.21 629.66 1851.38C629.615 1850.55 630.249 1849.85 631.076 1849.8L631.157 1851.3L631.239 1852.8ZM625.169 1850.11C625.996 1850.07 626.701 1850.71 626.744 1851.53C626.787 1852.36 626.151 1853.07 625.324 1853.11L625.246 1851.61L625.169 1850.11ZM615.375 1853.6C614.548 1853.64 613.845 1853 613.807 1852.17C613.768 1851.34 614.408 1850.64 615.235 1850.6L615.305 1852.1L615.375 1853.6ZM609.284 1850.87C610.111 1850.83 610.811 1851.48 610.847 1852.3C610.883 1853.13 610.242 1853.83 609.414 1853.87L609.349 1852.37L609.284 1850.87ZM599.553 1854.27C598.725 1854.3 598.029 1853.65 597.997 1852.83C597.966 1852 598.612 1851.3 599.439 1851.27L599.496 1852.77L599.553 1854.27ZM593.449 1851.49C594.277 1851.46 594.971 1852.11 594.999 1852.94C595.028 1853.76 594.38 1854.46 593.552 1854.49L593.5 1852.99L593.449 1851.49ZM583.616 1854.8C582.788 1854.82 582.098 1854.17 582.074 1853.34C582.051 1852.51 582.703 1851.82 583.531 1851.8L583.574 1853.3L583.616 1854.8ZM577.629 1851.96C578.457 1851.94 579.145 1852.59 579.165 1853.42C579.186 1854.25 578.531 1854.93 577.703 1854.95L577.666 1853.46L577.629 1851.96ZM567.723 1855.17C566.894 1855.18 566.211 1854.52 566.196 1853.69C566.181 1852.87 566.841 1852.18 567.669 1852.17L567.696 1853.67L567.723 1855.17ZM561.725 1852.26C562.553 1852.25 563.234 1852.91 563.245 1853.74C563.256 1854.57 562.594 1855.25 561.766 1855.26L561.745 1853.76L561.725 1852.26ZM551.872 1855.36C551.044 1855.37 550.368 1854.7 550.363 1853.87C550.358 1853.04 551.025 1852.37 551.853 1852.36L551.863 1853.86L551.872 1855.36ZM545.865 1852.39C546.693 1852.38 547.366 1853.05 547.368 1853.88C547.369 1854.71 546.699 1855.38 545.87 1855.39L545.868 1853.89L545.865 1852.39ZM535.96 1855.36C535.132 1855.36 534.464 1854.68 534.469 1853.85C534.475 1853.03 535.15 1852.36 535.979 1852.36L535.969 1853.86L535.96 1855.36ZM530.049 1852.31C530.877 1852.32 531.541 1853 531.532 1853.83C531.523 1854.66 530.843 1855.32 530.015 1855.31L530.032 1853.81L530.049 1852.31ZM520.035 1855.15C519.207 1855.14 518.549 1854.45 518.566 1853.62C518.583 1852.8 519.268 1852.14 520.096 1852.15L520.066 1853.65L520.035 1855.15ZM514.186 1852.02C515.014 1852.04 515.668 1852.73 515.647 1853.56C515.625 1854.38 514.936 1855.04 514.108 1855.02L514.147 1853.52L514.186 1852.02ZM504.149 1854.71C503.322 1854.68 502.674 1853.99 502.704 1853.16C502.733 1852.33 503.429 1851.68 504.256 1851.71L504.203 1853.21L504.149 1854.71ZM498.311 1851.48C499.139 1851.52 499.782 1852.22 499.747 1853.04C499.713 1853.87 499.013 1854.51 498.186 1854.48L498.248 1852.98L498.311 1851.48ZM488.302 1854.01C487.474 1853.97 486.839 1853.26 486.883 1852.44C486.926 1851.61 487.632 1850.97 488.46 1851.02L488.381 1852.51L488.302 1854.01ZM482.481 1850.68C483.308 1850.73 483.939 1851.44 483.889 1852.27C483.84 1853.09 483.13 1853.73 482.303 1853.68L482.392 1852.18L482.481 1850.68ZM472.424 1853.03C471.598 1852.97 470.976 1852.25 471.035 1851.42C471.094 1850.6 471.812 1849.98 472.639 1850.04L472.531 1851.53L472.424 1853.03ZM466.697 1849.59C467.523 1849.65 468.14 1850.37 468.074 1851.2C468.008 1852.03 467.286 1852.64 466.46 1852.58L466.579 1851.08L466.697 1849.59ZM456.537 1851.72C455.713 1851.65 455.106 1850.91 455.183 1850.09C455.259 1849.26 455.99 1848.66 456.815 1848.73L456.676 1850.23L456.537 1851.72ZM450.962 1848.17C451.786 1848.25 452.386 1848.99 452.302 1849.81C452.219 1850.63 451.483 1851.23 450.659 1851.15L450.81 1849.66L450.962 1848.17ZM440.701 1850.07C439.879 1849.97 439.289 1849.22 439.385 1848.4C439.482 1847.58 440.226 1846.99 441.049 1847.09L440.875 1848.58L440.701 1850.07ZM435.188 1846.37C436.01 1846.48 436.592 1847.23 436.488 1848.05C436.384 1848.87 435.634 1849.45 434.812 1849.35L435 1847.86L435.188 1846.37ZM424.923 1848.02C424.103 1847.9 423.533 1847.14 423.651 1846.32C423.768 1845.5 424.529 1844.93 425.349 1845.05L425.136 1846.53L424.923 1848.02ZM419.484 1844.17C420.303 1844.3 420.865 1845.07 420.738 1845.89C420.612 1846.7 419.846 1847.27 419.027 1847.14L419.256 1845.66L419.484 1844.17ZM409.211 1845.53C408.395 1845.39 407.848 1844.61 407.99 1843.8C408.132 1842.98 408.909 1842.43 409.725 1842.58L409.468 1844.05L409.211 1845.53ZM403.869 1841.52C404.684 1841.67 405.221 1842.46 405.07 1843.27C404.918 1844.09 404.135 1844.62 403.321 1844.47L403.595 1843L403.869 1841.52ZM393.584 1842.55C392.773 1842.39 392.252 1841.59 392.421 1840.78C392.589 1839.97 393.384 1839.45 394.195 1839.62L393.889 1841.09L393.584 1842.55ZM388.363 1838.36C389.172 1838.54 389.682 1839.34 389.502 1840.15C389.322 1840.96 388.521 1841.47 387.712 1841.29L388.038 1839.83L388.363 1838.36ZM378.063 1839.03C377.259 1838.83 376.768 1838.02 376.967 1837.21C377.166 1836.41 377.979 1835.92 378.784 1836.12L378.423 1837.57L378.063 1839.03ZM372.995 1834.64C373.796 1834.85 374.274 1835.67 374.062 1836.47C373.851 1837.27 373.03 1837.75 372.229 1837.54L372.612 1836.09L372.995 1834.64ZM362.683 1834.88C361.888 1834.65 361.432 1833.82 361.665 1833.02C361.898 1832.23 362.731 1831.77 363.526 1832L363.105 1833.44L362.683 1834.88ZM357.804 1830.27C358.594 1830.52 359.036 1831.36 358.789 1832.15C358.542 1832.94 357.701 1833.38 356.91 1833.14L357.357 1831.7L357.804 1830.27ZM347.491 1830.04C346.708 1829.77 346.293 1828.92 346.563 1828.13C346.834 1827.35 347.688 1826.94 348.471 1827.21L347.981 1828.62L347.491 1830.04ZM342.844 1825.2C343.622 1825.48 344.02 1826.35 343.734 1827.12C343.448 1827.9 342.585 1828.3 341.808 1828.01L342.326 1826.61L342.844 1825.2ZM332.551 1824.43C331.784 1824.11 331.416 1823.24 331.729 1822.47C332.041 1821.7 332.917 1821.33 333.684 1821.65L333.117 1823.04L332.551 1824.43ZM328.188 1819.33C328.948 1819.66 329.296 1820.55 328.966 1821.31C328.636 1822.07 327.753 1822.42 326.993 1822.09L327.591 1820.71L328.188 1819.33ZM317.948 1817.95C317.202 1817.59 316.888 1816.69 317.248 1815.94C317.607 1815.2 318.504 1814.88 319.25 1815.24L318.599 1816.6L317.948 1817.95ZM313.926 1812.6C314.663 1812.97 314.954 1813.88 314.576 1814.62C314.198 1815.35 313.294 1815.64 312.557 1815.27L313.241 1813.93L313.926 1812.6ZM303.79 1810.52C303.071 1810.11 302.82 1809.2 303.23 1808.48C303.641 1807.76 304.557 1807.51 305.276 1807.92L304.533 1809.22L303.79 1810.52ZM300.171 1804.91C300.879 1805.34 301.104 1806.26 300.673 1806.97C300.243 1807.68 299.32 1807.9 298.612 1807.47L299.392 1806.19L300.171 1804.91ZM290.208 1802.08C289.523 1801.61 289.343 1800.68 289.808 1799.99C290.273 1799.31 291.205 1799.13 291.891 1799.59L291.05 1800.84L290.208 1802.08ZM287.054 1796.21C287.725 1796.69 287.876 1797.63 287.39 1798.3C286.904 1798.97 285.966 1799.12 285.295 1798.64L286.175 1797.42L287.054 1796.21ZM277.352 1792.56C276.708 1792.04 276.609 1791.09 277.13 1790.45C277.651 1789.81 278.595 1789.71 279.239 1790.23L278.296 1791.39L277.352 1792.56ZM274.722 1786.45C275.348 1786.99 275.416 1787.94 274.874 1788.56C274.332 1789.19 273.384 1789.26 272.758 1788.71L273.74 1787.58L274.722 1786.45ZM265.382 1781.94C264.788 1781.37 264.775 1780.42 265.353 1779.82C265.93 1779.23 266.88 1779.22 267.474 1779.79L266.428 1780.87L265.382 1781.94ZM263.325 1775.61C263.898 1776.21 263.877 1777.16 263.279 1777.73C262.68 1778.31 261.731 1778.28 261.158 1777.69L262.241 1776.65L263.325 1775.61ZM254.453 1770.25C253.917 1769.62 253.995 1768.67 254.627 1768.14C255.259 1767.6 256.205 1767.68 256.741 1768.31L255.597 1769.28L254.453 1770.25ZM253.012 1763.75C253.524 1764.4 253.412 1765.34 252.761 1765.85C252.11 1766.36 251.167 1766.25 250.654 1765.6L251.833 1764.67L253.012 1763.75ZM244.701 1757.54C244.23 1756.86 244.399 1755.93 245.081 1755.46C245.762 1754.98 246.696 1755.15 247.168 1755.84L245.935 1756.69L244.701 1757.54ZM243.907 1750.94C244.354 1751.64 244.151 1752.57 243.453 1753.01C242.755 1753.46 241.827 1753.25 241.381 1752.56L242.644 1751.75L243.907 1750.94ZM236.231 1743.95C235.827 1743.23 236.086 1742.32 236.81 1741.91C237.533 1741.51 238.447 1741.77 238.851 1742.49L237.541 1743.22L236.231 1743.95ZM236.078 1737.31C236.457 1738.05 236.166 1738.95 235.429 1739.33C234.692 1739.71 233.788 1739.42 233.409 1738.68L234.744 1738L236.078 1737.31ZM229.093 1729.64C228.758 1728.89 229.099 1728 229.857 1727.66C230.614 1727.33 231.5 1727.67 231.836 1728.43L230.464 1729.04L229.093 1729.64ZM229.542 1723.01C229.853 1723.78 229.481 1724.65 228.713 1724.96C227.945 1725.27 227.071 1724.9 226.761 1724.13L228.151 1723.57L229.542 1723.01ZM223.264 1714.76C222.995 1713.98 223.412 1713.12 224.195 1712.85C224.979 1712.58 225.832 1713 226.101 1713.79L224.682 1714.27L223.264 1714.76ZM224.27 1708.18C224.515 1708.97 224.072 1709.81 223.281 1710.05C222.49 1710.3 221.65 1709.85 221.404 1709.06L222.837 1708.62L224.27 1708.18ZM218.664 1699.34C218.461 1698.54 218.947 1697.72 219.75 1697.52C220.553 1697.32 221.369 1697.8 221.572 1698.6L220.118 1698.97L218.664 1699.34ZM220.204 1692.79C220.38 1693.6 219.866 1694.4 219.057 1694.57C218.247 1694.75 217.448 1694.23 217.273 1693.42L218.739 1693.11L220.204 1692.79ZM215.418 1683.48C215.291 1682.66 215.851 1681.89 216.669 1681.76C217.488 1681.64 218.255 1682.2 218.382 1683.02L216.9 1683.25L215.418 1683.48ZM217.575 1677.12C217.673 1677.95 217.085 1678.69 216.262 1678.79C215.439 1678.89 214.693 1678.3 214.596 1677.48L216.086 1677.3L217.575 1677.12ZM213.727 1667.39C213.682 1666.57 214.316 1665.86 215.143 1665.81C215.971 1665.77 216.678 1666.4 216.722 1667.23L215.225 1667.31L213.727 1667.39ZM216.516 1661.26C216.529 1662.09 215.867 1662.77 215.039 1662.78C214.21 1662.79 213.529 1662.13 213.517 1661.3L215.017 1661.28L216.516 1661.26ZM213.703 1651.18C213.745 1650.36 214.451 1649.72 215.278 1649.76C216.105 1649.8 216.741 1650.51 216.699 1651.34L215.201 1651.26L213.703 1651.18ZM217.124 1645.42C217.048 1646.24 216.318 1646.85 215.493 1646.77C214.668 1646.7 214.061 1645.97 214.137 1645.14L215.63 1645.28L217.124 1645.42ZM215.406 1635.1C215.538 1634.28 216.307 1633.72 217.125 1633.85C217.943 1633.99 218.5 1634.75 218.368 1635.57L216.887 1635.33L215.406 1635.1ZM219.435 1629.7C219.27 1630.51 218.479 1631.04 217.667 1630.87C216.855 1630.71 216.33 1629.92 216.495 1629.1L217.965 1629.4L219.435 1629.7ZM218.829 1619.27C219.047 1618.47 219.872 1618 220.671 1618.22C221.47 1618.43 221.942 1619.26 221.724 1620.06L220.276 1619.66L218.829 1619.27ZM223.406 1614.33C223.157 1615.12 222.314 1615.56 221.524 1615.31C220.734 1615.06 220.295 1614.22 220.544 1613.43L221.975 1613.88L223.406 1614.33ZM223.904 1603.85C224.202 1603.08 225.071 1602.69 225.844 1602.99C226.616 1603.29 227.001 1604.16 226.702 1604.93L225.303 1604.39L223.904 1603.85ZM228.929 1599.47C228.602 1600.23 227.72 1600.58 226.959 1600.26C226.197 1599.93 225.845 1599.05 226.171 1598.29L227.55 1598.88L228.929 1599.47ZM230.439 1589.1C230.81 1588.36 231.711 1588.06 232.451 1588.43C233.192 1588.8 233.492 1589.7 233.122 1590.44L231.78 1589.77L230.439 1589.1ZM235.874 1585.17C235.479 1585.89 234.568 1586.16 233.84 1585.77C233.112 1585.37 232.843 1584.46 233.238 1583.73L234.556 1584.45L235.874 1585.17ZM238.295 1575C238.729 1574.29 239.653 1574.07 240.359 1574.51C241.065 1574.94 241.285 1575.86 240.851 1576.57L239.573 1575.78L238.295 1575ZM244.073 1571.5C243.618 1572.2 242.688 1572.39 241.996 1571.93C241.304 1571.48 241.112 1570.55 241.567 1569.86L242.82 1570.68L244.073 1571.5ZM247.295 1561.59C247.783 1560.92 248.721 1560.78 249.391 1561.26C250.06 1561.75 250.207 1562.69 249.719 1563.36L248.507 1562.48L247.295 1561.59ZM253.345 1558.53C252.839 1559.18 251.897 1559.31 251.241 1558.8C250.585 1558.29 250.464 1557.35 250.97 1556.7L252.158 1557.61L253.345 1558.53ZM257.26 1548.9C257.794 1548.27 258.74 1548.19 259.374 1548.72C260.008 1549.25 260.089 1550.2 259.555 1550.83L258.408 1549.87L257.26 1548.9ZM263.516 1546.25C262.967 1546.87 262.019 1546.92 261.398 1546.38C260.778 1545.83 260.72 1544.88 261.269 1544.26L262.393 1545.25L263.516 1546.25ZM268.035 1536.9C268.607 1536.3 269.556 1536.28 270.155 1536.85C270.755 1537.43 270.777 1538.37 270.205 1538.97L269.12 1537.94L268.035 1536.9ZM274.435 1534.64C273.85 1535.23 272.9 1535.23 272.314 1534.64C271.727 1534.06 271.726 1533.11 272.311 1532.52L273.373 1533.58L274.435 1534.64ZM279.488 1525.56C280.092 1525 281.042 1525.03 281.608 1525.63C282.175 1526.24 282.144 1527.18 281.54 1527.75L280.514 1526.66L279.488 1525.56ZM285.98 1523.67C285.365 1524.22 284.416 1524.17 283.861 1523.56C283.306 1522.94 283.355 1522 283.97 1521.44L284.975 1522.55L285.98 1523.67ZM291.52 1514.83C292.152 1514.29 293.098 1514.37 293.635 1515C294.171 1515.63 294.094 1516.58 293.463 1517.12L292.492 1515.97L291.52 1514.83ZM298.058 1513.28C297.418 1513.81 296.472 1513.71 295.947 1513.07C295.421 1512.43 295.514 1511.49 296.154 1510.96L297.106 1512.12L298.058 1513.28ZM304.061 1504.65C304.715 1504.14 305.658 1504.26 306.166 1504.91C306.674 1505.57 306.556 1506.51 305.902 1507.02L304.982 1505.83L304.061 1504.65ZM310.606 1503.42C309.945 1503.92 309.004 1503.78 308.506 1503.12C308.007 1502.46 308.14 1501.52 308.801 1501.02L309.704 1502.22L310.606 1503.42ZM317.022 1494.99C317.695 1494.5 318.632 1494.66 319.115 1495.33C319.597 1496.01 319.442 1496.94 318.768 1497.43L317.895 1496.21L317.022 1494.99ZM323.587 1494.02C322.907 1494.5 321.972 1494.33 321.499 1493.65C321.025 1492.97 321.193 1492.04 321.873 1491.56L322.73 1492.79L323.587 1494.02ZM330.176 1485.91C330.866 1485.46 331.797 1485.64 332.256 1486.33C332.714 1487.02 332.527 1487.95 331.837 1488.41L331.007 1487.16L330.176 1485.91ZM336.964 1485.05C336.269 1485.5 335.34 1485.3 334.89 1484.61C334.44 1483.91 334.639 1482.98 335.335 1482.53L336.149 1483.79L336.964 1485.05ZM343.688 1477.24C344.392 1476.8 345.317 1477.02 345.754 1477.72C346.19 1478.43 345.974 1479.35 345.27 1479.79L344.479 1478.51L343.688 1477.24ZM350.403 1476.64C349.695 1477.07 348.772 1476.85 348.343 1476.14C347.914 1475.43 348.141 1474.51 348.85 1474.08L349.627 1475.36L350.403 1476.64ZM357.566 1468.91C358.282 1468.49 359.201 1468.73 359.617 1469.45C360.033 1470.17 359.79 1471.08 359.074 1471.5L358.32 1470.2L357.566 1468.91ZM364.192 1468.56C363.472 1468.97 362.556 1468.72 362.146 1468C361.737 1467.28 361.989 1466.36 362.709 1465.95L363.451 1467.25L364.192 1468.56ZM371.524 1461.03C372.251 1460.64 373.162 1460.9 373.56 1461.63C373.958 1462.36 373.691 1463.27 372.965 1463.67L372.244 1462.35L371.524 1461.03ZM378.352 1460.75C377.622 1461.14 376.713 1460.86 376.322 1460.13C375.931 1459.4 376.206 1458.5 376.936 1458.1L377.644 1459.43L378.352 1460.75ZM385.669 1453.51C386.405 1453.13 387.31 1453.42 387.69 1454.15C388.071 1454.89 387.783 1455.79 387.047 1456.17L386.358 1454.84L385.669 1453.51ZM392.397 1453.44C391.658 1453.81 390.755 1453.51 390.381 1452.78C390.006 1452.04 390.302 1451.13 391.041 1450.76L391.719 1452.1L392.397 1453.44ZM400.192 1446.2C400.936 1445.84 401.834 1446.14 402.199 1446.89C402.563 1447.63 402.255 1448.53 401.511 1448.89L400.852 1447.55L400.192 1446.2ZM406.79 1446.33C406.044 1446.69 405.148 1446.38 404.789 1445.63C404.43 1444.88 404.744 1443.99 405.491 1443.63L406.141 1444.98L406.79 1446.33ZM414.524 1439.36C415.275 1439.01 416.168 1439.33 416.517 1440.08C416.867 1440.83 416.542 1441.73 415.791 1442.08L415.158 1440.72L414.524 1439.36ZM421.313 1439.53C420.56 1439.87 419.67 1439.54 419.325 1438.79C418.981 1438.03 419.313 1437.14 420.066 1436.8L420.69 1438.16L421.313 1439.53ZM429.233 1432.67C429.99 1432.34 430.876 1432.68 431.212 1433.44C431.548 1434.19 431.206 1435.08 430.449 1435.42L429.841 1434.04L429.233 1432.67ZM435.87 1433.03C435.111 1433.36 434.227 1433.02 433.896 1432.26C433.565 1431.5 433.912 1430.61 434.672 1430.28L435.271 1431.66L435.87 1433.03ZM443.922 1426.31C444.685 1425.99 445.565 1426.34 445.888 1427.11C446.211 1427.87 445.854 1428.75 445.091 1429.07L444.507 1427.69L443.922 1426.31ZM450.736 1426.7C449.971 1427.02 449.093 1426.66 448.775 1425.9C448.457 1425.13 448.819 1424.25 449.583 1423.93L450.16 1425.32L450.736 1426.7ZM458.782 1420.16C459.55 1419.85 460.424 1420.22 460.735 1420.99C461.046 1421.75 460.676 1422.63 459.908 1422.94L459.345 1421.55L458.782 1420.16ZM465.429 1420.72C464.659 1421.03 463.787 1420.65 463.48 1419.88C463.174 1419.11 463.549 1418.24 464.319 1417.94L464.874 1419.33L465.429 1420.72ZM473.715 1414.24C474.488 1413.94 475.357 1414.33 475.656 1415.1C475.956 1415.87 475.573 1416.74 474.8 1417.04L474.258 1415.64L473.715 1414.24ZM480.525 1414.84C479.751 1415.13 478.884 1414.74 478.589 1413.97C478.294 1413.2 478.681 1412.33 479.455 1412.03L479.99 1413.43L480.525 1414.84ZM488.725 1408.54C489.502 1408.25 490.365 1408.65 490.654 1409.42C490.943 1410.2 490.548 1411.06 489.772 1411.35L489.248 1409.95L488.725 1408.54ZM495.357 1409.29C494.579 1409.57 493.717 1409.17 493.432 1408.4C493.147 1407.62 493.546 1406.76 494.324 1406.47L494.84 1407.88L495.357 1409.29ZM503.81 1403.04C504.59 1402.76 505.448 1403.16 505.727 1403.94C506.006 1404.72 505.6 1405.58 504.82 1405.86L504.315 1404.45L503.81 1403.04ZM510.592 1403.81C509.81 1404.09 508.954 1403.68 508.678 1402.9C508.403 1402.12 508.813 1401.26 509.595 1400.98L510.093 1402.4L510.592 1403.81ZM518.99 1397.71C519.773 1397.44 520.627 1397.86 520.896 1398.64C521.166 1399.43 520.749 1400.28 519.966 1400.55L519.478 1399.13L518.99 1397.71ZM525.586 1398.63C524.801 1398.9 523.949 1398.48 523.683 1397.69C523.417 1396.91 523.837 1396.05 524.622 1395.79L525.104 1397.21L525.586 1398.63ZM534.15 1392.59C534.937 1392.33 535.785 1392.76 536.046 1393.55C536.307 1394.33 535.88 1395.18 535.094 1395.44L534.622 1394.02L534.15 1392.59ZM540.885 1393.54C540.097 1393.79 539.25 1393.36 538.993 1392.58C538.736 1391.79 539.165 1390.94 539.953 1390.68L540.419 1392.11L540.885 1393.54ZM549.536 1387.59C550.326 1387.33 551.17 1387.77 551.422 1388.56C551.674 1389.35 551.239 1390.19 550.45 1390.44L549.993 1389.02L549.536 1387.59ZM556.081 1388.66C555.291 1388.91 554.448 1388.47 554.199 1387.68C553.95 1386.89 554.388 1386.04 555.178 1385.8L555.63 1387.23L556.081 1388.66ZM564.712 1382.82C565.503 1382.58 566.343 1383.02 566.587 1383.81C566.832 1384.6 566.388 1385.44 565.596 1385.69L565.154 1384.25L564.712 1382.82ZM571.384 1383.91C570.591 1384.16 569.753 1383.71 569.512 1382.92C569.271 1382.12 569.717 1381.29 570.51 1381.04L570.947 1382.48L571.384 1383.91ZM580.305 1378.09C581.099 1377.86 581.934 1378.31 582.171 1379.1C582.407 1379.9 581.956 1380.73 581.162 1380.97L580.733 1379.53L580.305 1378.09ZM586.83 1379.29C586.036 1379.52 585.202 1379.07 584.968 1378.27C584.734 1377.48 585.189 1376.65 585.984 1376.41L586.407 1377.85L586.83 1379.29ZM595.492 1373.64C596.288 1373.41 597.119 1373.87 597.349 1374.67C597.578 1375.46 597.119 1376.3 596.323 1376.52L595.907 1375.08L595.492 1373.64ZM602.09 1374.87C601.293 1375.1 600.463 1374.64 600.237 1373.84C600.01 1373.04 600.472 1372.21 601.268 1371.99L601.679 1373.43L602.09 1374.87ZM611.016 1369.24C611.814 1369.02 612.642 1369.48 612.864 1370.28C613.087 1371.08 612.62 1371.91 611.822 1372.13L611.419 1370.68L611.016 1369.24ZM617.735 1370.49C616.936 1370.71 616.11 1370.24 615.89 1369.44C615.67 1368.64 616.139 1367.82 616.938 1367.6L617.336 1369.04L617.735 1370.49ZM626.504 1364.99C627.303 1364.77 628.127 1365.25 628.343 1366.05C628.559 1366.85 628.086 1367.67 627.286 1367.88L626.895 1366.44L626.504 1364.99ZM633.019 1366.35C632.219 1366.56 631.397 1366.08 631.183 1365.28C630.969 1364.48 631.445 1363.66 632.245 1363.45L632.632 1364.9L633.019 1366.35ZM641.925 1360.89C642.726 1360.68 643.546 1361.16 643.756 1361.96C643.966 1362.76 643.486 1363.58 642.685 1363.79L642.305 1362.34L641.925 1360.89ZM648.55 1362.26C647.748 1362.47 646.93 1361.99 646.722 1361.19C646.515 1360.38 646.997 1359.57 647.799 1359.36L648.174 1360.81L648.55 1362.26ZM657.7 1356.82C658.503 1356.62 659.319 1357.1 659.523 1357.91C659.727 1358.71 659.241 1359.52 658.438 1359.73L658.069 1358.27L657.7 1356.82ZM664.199 1358.27C663.395 1358.48 662.58 1357.99 662.379 1357.18C662.177 1356.38 662.665 1355.57 663.468 1355.36L663.834 1356.82L664.199 1358.27ZM673.063 1352.98C673.867 1352.78 674.68 1353.27 674.878 1354.08C675.076 1354.88 674.585 1355.69 673.781 1355.89L673.422 1354.44L673.063 1352.98ZM679.591 1354.47C678.786 1354.66 677.974 1354.17 677.778 1353.37C677.582 1352.56 678.076 1351.75 678.881 1351.55L679.236 1353.01L679.591 1354.47ZM688.678 1349.19C689.484 1349 690.293 1349.49 690.486 1350.3C690.679 1351.1 690.182 1351.91 689.376 1352.11L689.027 1350.65L688.678 1349.19ZM695.309 1350.7C694.503 1350.89 693.695 1350.39 693.504 1349.58C693.313 1348.78 693.812 1347.97 694.618 1347.78L694.964 1349.24L695.309 1350.7ZM704.47 1345.47C705.277 1345.28 706.083 1345.78 706.271 1346.59C706.458 1347.4 705.956 1348.2 705.149 1348.39L704.81 1346.93L704.47 1345.47ZM710.896 1347.06C710.089 1347.25 709.284 1346.74 709.099 1345.94C708.913 1345.13 709.417 1344.32 710.225 1344.14L710.561 1345.6L710.896 1347.06ZM719.909 1341.93C720.717 1341.75 721.52 1342.26 721.702 1343.07C721.885 1343.87 721.377 1344.68 720.569 1344.86L720.239 1343.4L719.909 1341.93ZM726.429 1343.54C725.621 1343.72 724.819 1343.21 724.638 1342.41C724.458 1341.6 724.967 1340.8 725.775 1340.62L726.102 1342.08L726.429 1343.54ZM735.648 1338.43C736.457 1338.25 737.257 1338.76 737.434 1339.57C737.612 1340.38 737.1 1341.18 736.291 1341.36L735.969 1339.9L735.648 1338.43ZM742.264 1340.06C741.455 1340.23 740.656 1339.72 740.48 1338.91C740.305 1338.1 740.818 1337.3 741.628 1337.12L741.946 1338.59L742.264 1340.06ZM751.679 1334.95C752.488 1334.77 753.288 1335.28 753.465 1336.09C753.642 1336.9 753.129 1337.7 752.32 1337.88L751.999 1336.41L751.679 1334.95ZM758.304 1336.56C757.496 1336.74 756.694 1336.23 756.514 1335.42C756.334 1334.61 756.843 1333.81 757.652 1333.63L757.978 1335.09L758.304 1336.56ZM767.44 1331.41C768.247 1331.23 769.052 1331.73 769.238 1332.54C769.424 1333.35 768.92 1334.15 768.112 1334.34L767.776 1332.88L767.44 1331.41ZM773.898 1332.99C773.092 1333.18 772.285 1332.68 772.095 1331.88C771.906 1331.07 772.407 1330.26 773.213 1330.07L773.556 1331.53L773.898 1332.99ZM782.672 1327.82C783.477 1327.63 784.287 1328.12 784.482 1328.93C784.677 1329.73 784.182 1330.54 783.377 1330.74L783.024 1329.28L782.672 1327.82ZM788.967 1329.37C788.162 1329.57 787.35 1329.08 787.151 1328.27C786.953 1327.47 787.444 1326.66 788.248 1326.46L788.607 1327.91L788.967 1329.37ZM798.023 1324C798.825 1323.8 799.642 1324.28 799.847 1325.09C800.052 1325.89 799.567 1326.71 798.765 1326.91L798.394 1325.46L798.023 1324ZM804.668 1325.39C803.866 1325.6 803.047 1325.12 802.838 1324.32C802.629 1323.51 803.109 1322.69 803.911 1322.49L804.289 1323.94L804.668 1325.39ZM813.532 1319.93C814.332 1319.72 815.155 1320.19 815.371 1320.99C815.587 1321.79 815.114 1322.61 814.314 1322.83L813.923 1321.38L813.532 1319.93ZM819.987 1321.28C819.189 1321.5 818.363 1321.03 818.143 1320.23C817.922 1319.44 818.391 1318.61 819.19 1318.39L819.589 1319.84L819.987 1321.28ZM828.429 1315.8C829.226 1315.57 830.056 1316.03 830.283 1316.83C830.511 1317.62 830.05 1318.45 829.253 1318.68L828.841 1317.24L828.429 1315.8ZM835.043 1317.01C834.248 1317.24 833.415 1316.78 833.183 1315.99C832.95 1315.19 833.407 1314.36 834.202 1314.13L834.622 1315.57L835.043 1317.01ZM843.939 1311.23C844.732 1310.99 845.569 1311.43 845.81 1312.23C846.051 1313.02 845.604 1313.86 844.811 1314.1L844.375 1312.66L843.939 1311.23ZM850.537 1312.34C849.746 1312.58 848.905 1312.14 848.659 1311.35C848.413 1310.56 848.855 1309.72 849.646 1309.47L850.091 1310.91L850.537 1312.34ZM858.933 1306.53C859.721 1306.27 860.567 1306.7 860.822 1307.49C861.077 1308.28 860.645 1309.13 859.857 1309.38L859.395 1307.95L858.933 1306.53ZM865.316 1307.59C864.53 1307.85 863.681 1307.43 863.42 1306.64C863.16 1305.85 863.586 1305.01 864.372 1304.74L864.844 1306.17L865.316 1307.59ZM873.954 1301.5C874.737 1301.23 875.591 1301.64 875.862 1302.43C876.133 1303.21 875.718 1304.06 874.935 1304.33L874.445 1302.92L873.954 1301.5ZM880.663 1302.32C879.882 1302.6 879.024 1302.19 878.747 1301.41C878.469 1300.63 878.877 1299.78 879.658 1299.5L880.16 1300.91L880.663 1302.32ZM888.899 1296.14C889.675 1295.85 890.539 1296.24 890.828 1297.02C891.116 1297.8 890.721 1298.66 889.945 1298.95L889.422 1297.54L888.899 1296.14ZM895.357 1296.91C894.583 1297.2 893.716 1296.82 893.42 1296.04C893.124 1295.27 893.512 1294.4 894.286 1294.1L894.821 1295.51L895.357 1296.91ZM903.557 1290.47C904.326 1290.16 905.199 1290.54 905.508 1291.31C905.817 1292.07 905.444 1292.95 904.675 1293.26L904.116 1291.86L903.557 1290.47ZM910.324 1290.95C909.559 1291.27 908.681 1290.91 908.364 1290.14C908.047 1289.38 908.411 1288.5 909.176 1288.18L909.75 1289.57L910.324 1290.95ZM918.226 1284.33C918.985 1284 919.869 1284.35 920.2 1285.11C920.532 1285.87 920.185 1286.75 919.426 1287.08L918.826 1285.71L918.226 1284.33ZM924.701 1284.74C923.945 1285.08 923.057 1284.75 922.717 1283.99C922.376 1283.24 922.713 1282.35 923.468 1282.01L924.084 1283.38L924.701 1284.74ZM932.572 1277.79C933.319 1277.43 934.215 1277.75 934.572 1278.49C934.929 1279.24 934.612 1280.14 933.865 1280.49L933.218 1279.14L932.572 1277.79ZM939.312 1277.84C938.57 1278.21 937.67 1277.91 937.302 1277.17C936.934 1276.42 937.238 1275.52 937.98 1275.16L938.646 1276.5L939.312 1277.84ZM946.619 1270.74C947.352 1270.35 948.259 1270.63 948.646 1271.37C949.032 1272.1 948.752 1273.01 948.019 1273.39L947.319 1272.07L946.619 1270.74ZM953.173 1270.62C952.446 1271.02 951.535 1270.75 951.136 1270.03C950.737 1269.3 951.003 1268.39 951.729 1267.99L952.451 1269.3L953.173 1270.62ZM960.537 1262.98C961.25 1262.56 962.17 1262.79 962.591 1263.51C963.012 1264.22 962.775 1265.14 962.062 1265.56L961.299 1264.27L960.537 1262.98ZM967.126 1262.5C966.421 1262.94 965.497 1262.72 965.062 1262.02C964.626 1261.31 964.844 1260.39 965.549 1259.95L966.338 1261.23L967.126 1262.5ZM973.729 1254.69C974.417 1254.23 975.349 1254.42 975.81 1255.1C976.271 1255.79 976.087 1256.72 975.398 1257.18L974.564 1255.94L973.729 1254.69ZM980.461 1253.7C979.784 1254.18 978.848 1254.02 978.37 1253.34C977.892 1252.67 978.053 1251.73 978.729 1251.25L979.595 1252.48L980.461 1253.7ZM986.519 1245.49C987.173 1244.98 988.116 1245.1 988.624 1245.75C989.132 1246.4 989.013 1247.35 988.359 1247.86L987.439 1246.67L986.519 1245.49ZM993.038 1244.11C992.399 1244.64 991.454 1244.55 990.926 1243.91C990.398 1243.27 990.488 1242.32 991.126 1241.8L992.082 1242.95L993.038 1244.11ZM998.599 1235.26C999.206 1234.69 1000.16 1234.73 1000.72 1235.34C1001.28 1235.94 1001.25 1236.89 1000.64 1237.46L999.62 1236.36L998.599 1235.26ZM1004.82 1233.44C1004.23 1234.02 1003.28 1234.02 1002.69 1233.44C1002.11 1232.85 1002.11 1231.9 1002.69 1231.31L1003.75 1232.38L1004.82 1233.44ZM1009.51 1223.99C1010.05 1223.37 1011 1223.3 1011.63 1223.84C1012.25 1224.38 1012.32 1225.33 1011.78 1225.95L1010.65 1224.97L1009.51 1223.99ZM1015.53 1221.41C1015.02 1222.06 1014.07 1222.17 1013.42 1221.66C1012.77 1221.15 1012.66 1220.21 1013.17 1219.56L1014.35 1220.48L1015.53 1221.41ZM1018.9 1211.53C1019.35 1210.83 1020.28 1210.63 1020.98 1211.08C1021.67 1211.53 1021.87 1212.46 1021.42 1213.16L1020.16 1212.34L1018.9 1211.53ZM1024.5 1208.07C1024.09 1208.79 1023.18 1209.05 1022.45 1208.64C1021.73 1208.23 1021.48 1207.32 1021.89 1206.6L1023.19 1207.34L1024.5 1208.07ZM1026.23 1197.82C1026.56 1197.06 1027.44 1196.7 1028.2 1197.03C1028.96 1197.35 1029.32 1198.23 1028.99 1198.99L1027.61 1198.41L1026.23 1197.82ZM1031.14 1193.43C1030.87 1194.22 1030.01 1194.63 1029.23 1194.36C1028.45 1194.09 1028.03 1193.24 1028.3 1192.45L1029.72 1192.94L1031.14 1193.43ZM1030.91 1183.04C1031.08 1182.23 1031.87 1181.71 1032.68 1181.88C1033.49 1182.05 1034.01 1182.84 1033.84 1183.66L1032.37 1183.35L1030.91 1183.04ZM1034.85 1177.72C1034.74 1178.54 1033.99 1179.12 1033.17 1179.01C1032.35 1178.91 1031.77 1178.15 1031.87 1177.33L1033.36 1177.53L1034.85 1177.72ZM1032.5 1167.63C1032.5 1166.8 1033.17 1166.13 1034 1166.13C1034.83 1166.13 1035.5 1166.8 1035.5 1167.63L1034 1167.63L1032.5 1167.63ZM1035.28 1161.59C1035.34 1162.42 1034.72 1163.14 1033.89 1163.2C1033.07 1163.26 1032.35 1162.64 1032.29 1161.82L1033.78 1161.7L1035.28 1161.59ZM1030.99 1152.14C1030.83 1151.33 1031.36 1150.54 1032.18 1150.38C1032.99 1150.22 1033.78 1150.76 1033.93 1151.57L1032.46 1151.85L1030.99 1152.14ZM1032.61 1145.73C1032.82 1146.53 1032.34 1147.35 1031.53 1147.56C1030.73 1147.77 1029.91 1147.29 1029.7 1146.49L1031.16 1146.11L1032.61 1145.73ZM1026.76 1137.14C1026.48 1136.37 1026.88 1135.51 1027.65 1135.22C1028.43 1134.93 1029.29 1135.33 1029.58 1136.11L1028.17 1136.63L1026.76 1137.14ZM1027.36 1130.55C1027.69 1131.31 1027.34 1132.19 1026.58 1132.52C1025.81 1132.84 1024.93 1132.49 1024.61 1131.73L1025.98 1131.14L1027.36 1130.55ZM1020.38 1122.87C1019.99 1122.14 1020.27 1121.23 1021.01 1120.85C1021.74 1120.46 1022.65 1120.74 1023.03 1121.48L1021.71 1122.17L1020.38 1122.87ZM1020.14 1116.24C1020.55 1116.95 1020.31 1117.87 1019.59 1118.29C1018.88 1118.7 1017.96 1118.46 1017.54 1117.74L1018.84 1116.99L1020.14 1116.24ZM1012.34 1109.39C1011.88 1108.7 1012.07 1107.77 1012.76 1107.31C1013.45 1106.85 1014.38 1107.04 1014.84 1107.73L1013.59 1108.56L1012.34 1109.39ZM1011.44 1102.81C1011.92 1103.48 1011.76 1104.42 1011.09 1104.9C1010.42 1105.38 1009.48 1105.22 1009 1104.55L1010.22 1103.68L1011.44 1102.81ZM1003.05 1096.68C1002.54 1096.03 1002.65 1095.08 1003.3 1094.57C1003.95 1094.05 1004.89 1094.16 1005.4 1094.81L1004.23 1095.74L1003.05 1096.68ZM1001.63 1090.19C1002.17 1090.83 1002.08 1091.77 1001.45 1092.31C1000.81 1092.84 999.867 1092.76 999.334 1092.12L1000.48 1091.16L1001.63 1090.19ZM992.815 1084.67C992.257 1084.06 992.301 1083.11 992.913 1082.55C993.526 1082 994.474 1082.04 995.032 1082.65L993.924 1083.66L992.815 1084.67ZM990.983 1078.31C991.554 1078.91 991.531 1079.86 990.931 1080.43C990.331 1081 989.382 1080.98 988.811 1080.38L989.897 1079.34L990.983 1078.31ZM981.832 1073.3C981.241 1072.72 981.231 1071.77 981.811 1071.18C982.391 1070.59 983.341 1070.58 983.932 1071.16L982.882 1072.23L981.832 1073.3ZM979.67 1067.06C980.272 1067.63 980.299 1068.58 979.73 1069.18C979.161 1069.78 978.212 1069.81 977.61 1069.24L978.64 1068.15L979.67 1067.06ZM970.293 1062.52C969.675 1061.97 969.621 1061.02 970.172 1060.41C970.723 1059.79 971.672 1059.73 972.29 1060.29L971.292 1061.4L970.293 1062.52ZM967.825 1056.37C968.452 1056.91 968.521 1057.86 967.98 1058.48C967.438 1059.11 966.491 1059.18 965.864 1058.64L966.845 1057.5L967.825 1056.37ZM958.307 1052.27C957.667 1051.75 957.574 1050.8 958.1 1050.16C958.626 1049.52 959.571 1049.43 960.211 1049.96L959.259 1051.11L958.307 1052.27ZM955.545 1046.18C956.193 1046.69 956.298 1047.64 955.781 1048.29C955.265 1048.93 954.321 1049.04 953.673 1048.52L954.609 1047.35L955.545 1046.18ZM945.917 1042.46C945.259 1041.96 945.133 1041.02 945.636 1040.36C946.139 1039.7 947.08 1039.58 947.739 1040.08L946.828 1041.27L945.917 1042.46ZM942.946 1036.47C943.61 1036.96 943.748 1037.9 943.253 1038.56C942.758 1039.23 941.818 1039.37 941.154 1038.87L942.05 1037.67L942.946 1036.47ZM933.188 1033.06C932.514 1032.57 932.359 1031.64 932.841 1030.96C933.323 1030.29 934.26 1030.14 934.934 1030.62L934.061 1031.84L933.188 1033.06ZM930.059 1027.17C930.738 1027.64 930.904 1028.58 930.429 1029.26C929.954 1029.94 929.019 1030.1 928.34 1029.63L929.2 1028.4L930.059 1027.17ZM920.172 1024.02C919.485 1023.56 919.303 1022.63 919.767 1021.94C920.23 1021.25 921.162 1021.07 921.849 1021.53L921.01 1022.78L920.172 1024.02ZM916.898 1018.23C917.589 1018.69 917.78 1019.62 917.324 1020.31C916.867 1021 915.937 1021.19 915.246 1020.73L916.072 1019.48L916.898 1018.23ZM906.923 1015.34C906.225 1014.89 906.02 1013.96 906.465 1013.27C906.911 1012.57 907.838 1012.36 908.536 1012.81L907.73 1014.07L906.923 1015.34ZM903.504 1009.63C904.207 1010.07 904.42 1010.99 903.981 1011.7C903.542 1012.4 902.616 1012.61 901.914 1012.17L902.709 1010.9L903.504 1009.63ZM893.486 1006.99C892.778 1006.56 892.551 1005.64 892.98 1004.93C893.409 1004.22 894.331 1003.99 895.04 1004.42L894.263 1005.71L893.486 1006.99ZM889.918 1001.35C890.63 1001.77 890.864 1002.69 890.441 1003.41C890.018 1004.12 889.098 1004.35 888.385 1003.93L889.152 1002.64L889.918 1001.35ZM879.846 998.935C879.128 998.522 878.882 997.605 879.295 996.887C879.709 996.169 880.626 995.922 881.344 996.336L880.595 997.636L879.846 998.935ZM876.166 993.38C876.887 993.788 877.141 994.703 876.733 995.424C876.325 996.145 875.41 996.399 874.689 995.991L875.428 994.686L876.166 993.38ZM866.036 991.168C865.31 990.77 865.045 989.858 865.444 989.131C865.842 988.405 866.754 988.14 867.48 988.539L866.758 989.854L866.036 991.168ZM862.243 985.688C862.972 986.081 863.244 986.991 862.851 987.72C862.457 988.449 861.548 988.721 860.818 988.328L861.531 987.008L862.243 985.688ZM852.089 983.685C851.355 983.301 851.072 982.394 851.456 981.66C851.841 980.927 852.747 980.644 853.481 981.028L852.785 982.357L852.089 983.685ZM848.174 978.271C848.911 978.65 849.2 979.555 848.821 980.291C848.441 981.028 847.537 981.317 846.8 980.938L847.487 979.604L848.174 978.271ZM837.986 976.463C837.245 976.092 836.945 975.191 837.316 974.45C837.686 973.709 838.588 973.409 839.328 973.78L838.657 975.121L837.986 976.463ZM833.986 971.13C834.729 971.495 835.036 972.394 834.67 973.138C834.305 973.881 833.406 974.187 832.662 973.822L833.324 972.476L833.986 971.13ZM823.735 969.495C822.988 969.138 822.671 968.243 823.028 967.495C823.385 966.748 824.28 966.431 825.028 966.788L824.382 968.142L823.735 969.495ZM819.673 964.253C820.423 964.605 820.745 965.498 820.394 966.248C820.042 966.998 819.148 967.321 818.398 966.969L819.036 965.611L819.673 964.253ZM809.367 962.795C808.613 962.451 808.28 961.562 808.624 960.808C808.967 960.054 809.856 959.721 810.61 960.064L809.989 961.429L809.367 962.795ZM805.191 957.62C805.948 957.958 806.287 958.845 805.949 959.601C805.611 960.357 804.723 960.696 803.967 960.358L804.579 958.989L805.191 957.62ZM922.112 1988L921.937 1986.51C923.545 1986.32 925.156 1986.07 926.764 1985.77L927.042 1987.24L927.32 1988.72C925.645 1989.03 923.967 1989.29 922.288 1989.49L922.112 1988ZM932.893 1985.9L932.502 1984.45C935.634 1983.61 938.746 1982.56 941.815 1981.33L942.374 1982.72L942.933 1984.11C939.76 1985.38 936.536 1986.47 933.284 1987.35L932.893 1985.9ZM947.871 1980.3L947.222 1978.94C950.168 1977.53 953.057 1975.95 955.868 1974.23L956.653 1975.5L957.438 1976.78C954.541 1978.56 951.561 1980.19 948.52 1981.65L947.871 1980.3ZM961.675 1972.21L960.815 1970.98C963.511 1969.09 966.114 1967.07 968.604 1964.94L969.581 1966.08L970.558 1967.21C967.993 1969.42 965.311 1971.5 962.535 1973.44L961.675 1972.21ZM974.015 1962.04L972.972 1960.96C975.35 1958.66 977.597 1956.25 979.69 1953.75L980.839 1954.71L981.989 1955.68C979.827 1958.26 977.509 1960.74 975.059 1963.11L974.015 1962.04ZM984.534 1950L983.322 1949.11C985.282 1946.43 987.063 1943.67 988.642 1940.84L989.951 1941.57L991.261 1942.31C989.62 1945.24 987.773 1948.11 985.745 1950.88L984.534 1950ZM992.664 1936.23L991.3 1935.61C992.679 1932.6 993.822 1929.53 994.701 1926.44L996.144 1926.85L997.586 1927.26C996.663 1930.51 995.466 1933.71 994.028 1936.86L992.664 1936.23ZM997.488 1921.01L996.01 1920.75C996.576 1917.53 996.844 1914.3 996.786 1911.08L998.286 1911.05L999.785 1911.02C999.847 1914.45 999.562 1917.87 998.965 1921.27L997.488 1921.01ZM997.806 1905.08L996.321 1905.29C995.869 1902.15 995.084 1899.02 993.938 1895.94L995.344 1895.42L996.75 1894.9C997.972 1898.18 998.808 1901.51 999.291 1904.86L997.806 1905.08ZM992.907 1889.94L991.576 1890.63C990.142 1887.88 988.393 1885.17 986.302 1882.52L987.48 1881.59L988.657 1880.66C990.86 1883.45 992.713 1886.32 994.237 1889.25L992.907 1889.94ZM983.502 1877.04L982.423 1878.08C980.271 1875.85 977.853 1873.67 975.151 1871.56L976.075 1870.38L976.999 1869.2C979.805 1871.39 982.328 1873.66 984.582 1876L983.502 1877.04ZM971.25 1866.87L970.41 1868.12C967.826 1866.37 965.028 1864.68 962.007 1863.05L962.719 1861.73L963.431 1860.41C966.535 1862.08 969.418 1863.83 972.089 1865.63L971.25 1866.87ZM957.289 1858.98L956.645 1860.33C953.795 1858.98 950.771 1857.67 947.569 1856.42L948.115 1855.03L948.66 1853.63C951.926 1854.9 955.015 1856.24 957.933 1857.63L957.289 1858.98ZM942.563 1852.98L942.069 1854.39C939.016 1853.33 935.817 1852.31 932.467 1851.34L932.884 1849.9L933.3 1848.46C936.7 1849.44 939.951 1850.47 943.058 1851.56L942.563 1852.98ZM927.275 1848.36L926.898 1849.81C923.742 1848.99 920.461 1848.21 917.054 1847.48L917.369 1846.02L917.684 1844.55C921.131 1845.29 924.453 1846.08 927.653 1846.91L927.275 1848.36ZM911.663 1844.85L911.379 1846.33C908.186 1845.71 904.889 1845.13 901.485 1844.6L901.719 1843.12L901.953 1841.63C905.389 1842.18 908.719 1842.76 911.946 1843.38L911.663 1844.85ZM895.823 1842.24L895.615 1843.73C892.431 1843.28 889.16 1842.87 885.798 1842.49L885.965 1841L886.132 1839.51C889.52 1839.89 892.818 1840.31 896.03 1840.75L895.823 1842.24ZM879.794 1840.36L879.651 1841.85C876.497 1841.55 873.269 1841.28 869.964 1841.03L870.075 1839.54L870.185 1838.04C873.511 1838.28 876.762 1838.56 879.938 1838.87L879.794 1840.36ZM864.042 1839.13L863.95 1840.63C860.679 1840.43 857.337 1840.26 853.922 1840.11L853.984 1838.62L854.045 1837.12C857.479 1837.26 860.842 1837.43 864.133 1837.63L864.042 1839.13ZM848.108 1838.41L848.062 1839.9C844.768 1839.8 841.41 1839.73 837.985 1839.68L838.005 1838.18L838.026 1836.68C841.467 1836.73 844.843 1836.8 848.154 1836.91L848.108 1838.41ZM831.906 1838.13L831.901 1839.63C828.703 1839.62 825.451 1839.63 822.142 1839.67L822.126 1838.17L822.11 1836.67C825.433 1836.63 828.7 1836.62 831.912 1836.63L831.906 1838.13ZM816.097 1838.26L816.126 1839.76C812.784 1839.82 809.387 1839.91 805.935 1840.02L805.886 1838.52L805.837 1837.02C809.303 1836.91 812.713 1836.82 816.069 1836.76L816.097 1838.26ZM800.07 1838.73L800.129 1840.23C796.875 1840.36 793.573 1840.51 790.222 1840.68L790.145 1839.18L790.068 1837.69C793.43 1837.51 796.744 1837.36 800.01 1837.23L800.07 1838.73ZM784.05 1839.52L784.137 1841.02C780.848 1841.21 777.512 1841.42 774.131 1841.65L774.027 1840.16L773.924 1838.66C777.316 1838.43 780.662 1838.21 783.963 1838.02L784.05 1839.52ZM768.172 1840.58L768.285 1842.07C765.011 1842.32 761.696 1842.58 758.338 1842.87L758.212 1841.37L758.085 1839.88C761.453 1839.59 764.778 1839.33 768.06 1839.08L768.172 1840.58ZM752.113 1841.91L752.247 1843.4C750.543 1843.55 748.827 1843.71 747.101 1843.88L746.959 1842.38L746.818 1840.89C748.549 1840.73 750.269 1840.57 751.978 1840.41L752.113 1841.91ZM746.959 1842.38L747.101 1843.88C745.44 1844.03 743.781 1844.19 742.125 1844.35L741.985 1842.85L741.845 1841.36C743.5 1841.2 745.158 1841.05 746.818 1840.89L746.959 1842.38ZM736.037 1843.4L736.174 1844.9C732.875 1845.2 729.586 1845.5 726.308 1845.79L726.174 1844.3L726.041 1842.81C729.316 1842.51 732.602 1842.21 735.899 1841.91L736.037 1843.4ZM720.273 1844.82L720.404 1846.32C717.079 1846.61 713.766 1846.9 710.464 1847.18L710.337 1845.68L710.21 1844.19C713.509 1843.91 716.819 1843.62 720.141 1843.33L720.273 1844.82ZM704.409 1846.18L704.533 1847.68C701.237 1847.95 697.953 1848.22 694.681 1848.48L694.561 1846.98L694.442 1845.49C697.711 1845.23 700.992 1844.96 704.285 1844.69L704.409 1846.18ZM688.588 1847.46L688.704 1848.95C685.391 1849.21 682.091 1849.46 678.803 1849.71L678.691 1848.21L678.58 1846.71C681.864 1846.47 685.162 1846.22 688.471 1845.96L688.588 1847.46ZM672.789 1848.64L672.897 1850.14C669.57 1850.38 666.256 1850.61 662.956 1850.84L662.853 1849.34L662.751 1847.85C666.048 1847.62 669.358 1847.39 672.681 1847.15L672.789 1848.64ZM656.907 1849.74L657.006 1851.24C653.708 1851.46 650.424 1851.67 647.153 1851.87L647.06 1850.37L646.968 1848.87C650.234 1848.67 653.514 1848.46 656.808 1848.25L656.907 1849.74ZM641.079 1850.73L641.167 1852.23C637.844 1852.43 634.534 1852.62 631.239 1852.8L631.157 1851.3L631.076 1849.8C634.366 1849.62 637.671 1849.43 640.99 1849.24L641.079 1850.73ZM625.246 1851.61L625.324 1853.11C621.992 1853.28 618.676 1853.45 615.375 1853.6L615.305 1852.1L615.235 1850.6C618.531 1850.45 621.842 1850.29 625.169 1850.11L625.246 1851.61ZM609.349 1852.37L609.414 1853.87C606.111 1854.01 602.824 1854.14 599.553 1854.27L599.496 1852.77L599.439 1851.27C602.705 1851.15 605.987 1851.01 609.284 1850.87L609.349 1852.37ZM593.5 1852.99L593.552 1854.49C590.223 1854.6 586.911 1854.7 583.616 1854.8L583.574 1853.3L583.531 1851.8C586.82 1851.71 590.126 1851.6 593.449 1851.49L593.5 1852.99ZM577.666 1853.46L577.703 1854.95C574.358 1855.04 571.032 1855.11 567.723 1855.17L567.696 1853.67L567.669 1852.17C570.971 1852.11 574.291 1852.04 577.629 1851.96L577.666 1853.46ZM561.745 1853.76L561.766 1855.26C558.45 1855.31 555.152 1855.34 551.872 1855.36L551.863 1853.86L551.853 1852.36C555.125 1852.34 558.416 1852.31 561.725 1852.26L561.745 1853.76ZM545.868 1853.89L545.87 1855.39C542.547 1855.39 539.244 1855.38 535.96 1855.36L535.969 1853.86L535.979 1852.36C539.254 1852.38 542.55 1852.39 545.865 1852.39L545.868 1853.89ZM530.032 1853.81L530.015 1855.31C526.668 1855.27 523.341 1855.22 520.035 1855.15L520.066 1853.65L520.096 1852.15C523.392 1852.22 526.71 1852.27 530.049 1852.31L530.032 1853.81ZM514.147 1853.52L514.108 1855.02C510.766 1854.93 507.447 1854.83 504.149 1854.71L504.203 1853.21L504.256 1851.71C507.544 1851.83 510.854 1851.93 514.186 1852.02L514.147 1853.52ZM498.248 1852.98L498.186 1854.48C494.868 1854.34 491.573 1854.19 488.302 1854.01L488.381 1852.51L488.46 1851.02C491.72 1851.19 495.004 1851.34 498.311 1851.48L498.248 1852.98ZM482.392 1852.18L482.303 1853.68C478.985 1853.48 475.692 1853.26 472.424 1853.03L472.531 1851.53L472.639 1850.04C475.894 1850.27 479.175 1850.48 482.481 1850.68L482.392 1852.18ZM466.579 1851.08L466.46 1852.58C463.125 1852.31 459.818 1852.03 456.537 1851.72L456.676 1850.23L456.815 1848.73C460.082 1849.04 463.376 1849.32 466.697 1849.59L466.579 1851.08ZM450.81 1849.66L450.659 1851.15C447.31 1850.81 443.991 1850.45 440.701 1850.07L440.875 1848.58L441.049 1847.09C444.324 1847.47 447.628 1847.83 450.962 1848.17L450.81 1849.66ZM435 1847.86L434.812 1849.35C431.484 1848.93 428.188 1848.49 424.923 1848.02L425.136 1846.53L425.349 1845.05C428.597 1845.51 431.876 1845.96 435.188 1846.37L435 1847.86ZM419.256 1845.66L419.027 1847.14C415.722 1846.63 412.45 1846.09 409.211 1845.53L409.468 1844.05L409.725 1842.58C412.944 1843.13 416.197 1843.67 419.484 1844.17L419.256 1845.66ZM403.595 1843L403.321 1844.47C400.039 1843.86 396.793 1843.22 393.584 1842.55L393.889 1841.09L394.195 1839.62C397.383 1840.28 400.608 1840.92 403.869 1841.52L403.595 1843ZM388.038 1839.83L387.712 1841.29C384.457 1840.57 381.24 1839.81 378.063 1839.03L378.423 1837.57L378.784 1836.12C381.937 1836.9 385.13 1837.64 388.363 1838.36L388.038 1839.83ZM372.612 1836.09L372.229 1837.54C369.005 1836.69 365.823 1835.8 362.683 1834.88L363.105 1833.44L363.526 1832C366.639 1832.91 369.796 1833.79 372.995 1834.64L372.612 1836.09ZM357.357 1831.7L356.91 1833.14C353.725 1832.14 350.584 1831.11 347.491 1830.04L347.981 1828.62L348.471 1827.21C351.535 1828.27 354.646 1829.29 357.804 1830.27L357.357 1831.7ZM342.326 1826.61L341.808 1828.01C338.672 1826.86 335.586 1825.66 332.551 1824.43L333.117 1823.04L333.684 1821.65C336.687 1822.87 339.74 1824.06 342.844 1825.2L342.326 1826.61ZM327.591 1820.71L326.993 1822.09C323.924 1820.75 320.908 1819.37 317.948 1817.95L318.599 1816.6L319.25 1815.24C322.174 1816.65 325.154 1818.02 328.188 1819.33L327.591 1820.71ZM313.241 1813.93L312.557 1815.27C309.575 1813.74 306.653 1812.15 303.79 1810.52L304.533 1809.22L305.276 1807.92C308.1 1809.53 310.983 1811.09 313.926 1812.6L313.241 1813.93ZM299.392 1806.19L298.612 1807.47C295.747 1805.73 292.945 1803.93 290.208 1802.08L291.05 1800.84L291.891 1799.59C294.587 1801.42 297.347 1803.19 300.171 1804.91L299.392 1806.19ZM286.175 1797.42L285.295 1798.64C282.579 1796.67 279.931 1794.65 277.352 1792.56L278.296 1791.39L279.239 1790.23C281.776 1792.28 284.381 1794.27 287.054 1796.21L286.175 1797.42ZM273.74 1787.58L272.758 1788.71C270.227 1786.52 267.768 1784.26 265.382 1781.94L266.428 1780.87L267.474 1779.79C269.818 1782.07 272.234 1784.29 274.722 1786.45L273.74 1787.58ZM262.241 1776.65L261.158 1777.69C258.848 1775.27 256.613 1772.8 254.453 1770.25L255.597 1769.28L256.741 1768.31C258.861 1770.81 261.056 1773.24 263.325 1775.61L262.241 1776.65ZM251.833 1764.67L250.654 1765.6C248.594 1762.98 246.609 1760.3 244.701 1757.54L245.935 1756.69L247.168 1755.84C249.041 1758.54 250.989 1761.18 253.012 1763.75L251.833 1764.67ZM242.644 1751.75L241.381 1752.56C239.588 1749.76 237.872 1746.89 236.231 1743.95L237.541 1743.22L238.851 1742.49C240.462 1745.37 242.148 1748.19 243.907 1750.94L242.644 1751.75ZM234.744 1738L233.409 1738.68C231.897 1735.74 230.458 1732.72 229.093 1729.64L230.464 1729.04L231.836 1728.43C233.178 1731.46 234.592 1734.42 236.078 1737.31L234.744 1738ZM228.151 1723.57L226.761 1724.13C225.524 1721.07 224.358 1717.95 223.264 1714.76L224.682 1714.27L226.101 1713.79C227.179 1716.92 228.326 1720 229.542 1723.01L228.151 1723.57ZM222.837 1708.62L221.404 1709.06C220.909 1707.46 220.43 1705.84 219.969 1704.21L221.412 1703.8L222.856 1703.4C223.31 1705.01 223.782 1706.6 224.27 1708.18L222.837 1708.62ZM221.412 1703.8L219.969 1704.21C219.513 1702.6 219.078 1700.97 218.664 1699.34L220.118 1698.97L221.572 1698.6C221.979 1700.21 222.407 1701.81 222.856 1703.4L221.412 1703.8ZM218.739 1693.11L217.273 1693.42C216.561 1690.14 215.94 1686.83 215.418 1683.48L216.9 1683.25L218.382 1683.02C218.895 1686.31 219.505 1689.56 220.204 1692.79L218.739 1693.11ZM216.086 1677.3L214.596 1677.48C214.203 1674.15 213.91 1670.78 213.727 1667.39L215.225 1667.31L216.722 1667.23C216.902 1670.56 217.189 1673.86 217.575 1677.12L216.086 1677.3ZM215.017 1661.28L213.517 1661.3C213.467 1657.95 213.527 1654.58 213.703 1651.18L215.201 1651.26L216.699 1651.34C216.526 1654.67 216.468 1657.98 216.516 1661.26L215.017 1661.28ZM215.63 1645.28L214.137 1645.14C214.444 1641.82 214.864 1638.47 215.406 1635.1L216.887 1635.33L218.368 1635.57C217.837 1638.87 217.425 1642.16 217.124 1645.42L215.63 1645.28ZM217.965 1629.4L216.495 1629.1C217.155 1625.84 217.931 1622.56 218.829 1619.27L220.276 1619.66L221.724 1620.06C220.843 1623.29 220.082 1626.5 219.435 1629.7L217.965 1629.4ZM221.975 1613.88L220.544 1613.43C221.547 1610.25 222.665 1607.06 223.904 1603.85L225.303 1604.39L226.702 1604.93C225.486 1608.08 224.389 1611.21 223.406 1614.33L221.975 1613.88ZM227.55 1598.88L226.171 1598.29C227.481 1595.23 228.902 1592.17 230.439 1589.1L231.78 1589.77L233.122 1590.44C231.611 1593.46 230.214 1596.47 228.929 1599.47L227.55 1598.88ZM234.556 1584.45L233.238 1583.73C234.817 1580.83 236.502 1577.92 238.295 1575L239.573 1575.78L240.851 1576.57C239.085 1579.44 237.427 1582.31 235.874 1585.17L234.556 1584.45ZM242.82 1570.68L241.567 1569.86C243.377 1567.11 245.285 1564.35 247.295 1561.59L248.507 1562.48L249.719 1563.36C247.737 1566.08 245.856 1568.79 244.073 1571.5L242.82 1570.68ZM252.158 1557.61L250.97 1556.7C252.974 1554.1 255.07 1551.5 257.26 1548.9L258.408 1549.87L259.555 1550.83C257.392 1553.4 255.322 1555.97 253.345 1558.53L252.158 1557.61ZM262.393 1545.25L261.269 1544.26C263.439 1541.81 265.693 1539.35 268.035 1536.9L269.12 1537.94L270.205 1538.97C267.888 1541.4 265.66 1543.82 263.516 1546.25L262.393 1545.25ZM273.373 1533.58L272.311 1532.52C274.623 1530.2 277.015 1527.88 279.488 1525.56L280.514 1526.66L281.54 1527.75C279.091 1530.05 276.724 1532.34 274.435 1534.64L273.373 1533.58ZM284.975 1522.55L283.97 1521.44C286.412 1519.24 288.928 1517.03 291.52 1514.83L292.492 1515.97L293.463 1517.12C290.893 1519.3 288.399 1521.48 285.98 1523.67L284.975 1522.55ZM297.106 1512.12L296.154 1510.96C298.719 1508.86 301.354 1506.75 304.061 1504.65L304.982 1505.83L305.902 1507.02C303.216 1509.1 300.602 1511.19 298.058 1513.28L297.106 1512.12ZM309.704 1502.22L308.801 1501.02C311.474 1499.01 314.214 1497 317.022 1494.99L317.895 1496.21L318.768 1497.43C315.98 1499.42 313.26 1501.42 310.606 1503.42L309.704 1502.22ZM322.73 1492.79L321.873 1491.56C324.58 1489.68 327.347 1487.79 330.176 1485.91L331.007 1487.16L331.837 1488.41C329.026 1490.28 326.276 1492.15 323.587 1494.02L322.73 1492.79ZM336.149 1483.79L335.335 1482.53C338.064 1480.77 340.848 1479 343.688 1477.24L344.479 1478.51L345.27 1479.79C342.446 1481.54 339.677 1483.29 336.964 1485.05L336.149 1483.79ZM349.627 1475.36L348.85 1474.08C351.701 1472.35 354.606 1470.63 357.566 1468.91L358.32 1470.2L359.074 1471.5C356.129 1473.21 353.239 1474.93 350.403 1476.64L349.627 1475.36ZM363.451 1467.25L362.709 1465.95C365.597 1464.31 368.535 1462.67 371.524 1461.03L372.244 1462.35L372.965 1463.67C369.989 1465.29 367.065 1466.93 364.192 1468.56L363.451 1467.25ZM377.644 1459.43L376.936 1458.1C379.801 1456.57 382.712 1455.04 385.669 1453.51L386.358 1454.84L387.047 1456.17C384.103 1457.7 381.205 1459.22 378.352 1460.75L377.644 1459.43ZM391.719 1452.1L391.041 1450.76C394.045 1449.24 397.095 1447.72 400.192 1446.2L400.852 1447.55L401.511 1448.89C398.426 1450.41 395.389 1451.92 392.397 1453.44L391.719 1452.1ZM406.141 1444.98L405.491 1443.63C408.46 1442.2 411.471 1440.78 414.524 1439.36L415.158 1440.72L415.791 1442.08C412.748 1443.49 409.748 1444.91 406.79 1446.33L406.141 1444.98ZM420.69 1438.16L420.066 1436.8C423.081 1435.42 426.137 1434.05 429.233 1432.67L429.841 1434.04L430.449 1435.42C427.363 1436.78 424.318 1438.16 421.313 1439.53L420.69 1438.16ZM435.271 1431.66L434.672 1430.28C437.717 1428.96 440.8 1427.63 443.922 1426.31L444.507 1427.69L445.091 1429.07C441.979 1430.39 438.905 1431.71 435.87 1433.03L435.271 1431.66ZM450.16 1425.32L449.583 1423.93C452.614 1422.67 455.68 1421.41 458.782 1420.16L459.345 1421.55L459.908 1422.94C456.815 1424.19 453.757 1425.45 450.736 1426.7L450.16 1425.32ZM464.874 1419.33L464.319 1417.94C467.416 1416.7 470.548 1415.47 473.715 1414.24L474.258 1415.64L474.8 1417.04C471.641 1418.26 468.517 1419.49 465.429 1420.72L464.874 1419.33ZM479.99 1413.43L479.455 1412.03C482.513 1410.87 485.603 1409.7 488.725 1408.54L489.248 1409.95L489.772 1411.35C486.657 1412.51 483.575 1413.67 480.525 1414.84L479.99 1413.43ZM494.84 1407.88L494.324 1406.47C497.454 1405.32 500.615 1404.18 503.81 1403.04L504.315 1404.45L504.82 1405.86C501.633 1407 498.479 1408.14 495.357 1409.29L494.84 1407.88ZM510.093 1402.4L509.595 1400.98C512.696 1399.89 515.828 1398.8 518.99 1397.71L519.478 1399.13L519.966 1400.55C516.811 1401.64 513.686 1402.72 510.592 1403.81L510.093 1402.4ZM525.104 1397.21L524.622 1395.79C527.768 1394.72 530.944 1393.66 534.15 1392.59L534.622 1394.02L535.094 1395.44C531.895 1396.5 528.726 1397.56 525.586 1398.63L525.104 1397.21ZM540.419 1392.11L539.953 1390.68C543.119 1389.65 546.313 1388.62 549.536 1387.59L549.993 1389.02L550.45 1390.44C547.233 1391.47 544.044 1392.5 540.885 1393.54L540.419 1392.11ZM555.63 1387.23L555.178 1385.8C558.329 1384.8 561.507 1383.81 564.712 1382.82L565.154 1384.25L565.596 1385.69C562.397 1386.68 559.225 1387.66 556.081 1388.66L555.63 1387.23ZM570.947 1382.48L570.51 1381.04C573.748 1380.06 577.013 1379.07 580.305 1378.09L580.733 1379.53L581.162 1380.97C577.875 1381.95 574.616 1382.93 571.384 1383.91L570.947 1382.48ZM586.407 1377.85L585.984 1376.41C589.128 1375.49 592.298 1374.56 595.492 1373.64L595.907 1375.08L596.323 1376.52C593.134 1377.44 589.97 1378.37 586.83 1379.29L586.407 1377.85ZM601.679 1373.43L601.268 1371.99C604.493 1371.07 607.742 1370.15 611.016 1369.24L611.419 1370.68L611.822 1372.13C608.553 1373.04 605.309 1373.96 602.09 1374.87L601.679 1373.43ZM617.336 1369.04L616.938 1367.6C620.103 1366.73 623.292 1365.86 626.504 1364.99L626.895 1366.44L627.286 1367.88C624.079 1368.75 620.895 1369.62 617.735 1370.49L617.336 1369.04ZM632.632 1364.9L632.245 1363.45C635.449 1362.59 638.675 1361.74 641.925 1360.89L642.305 1362.34L642.685 1363.79C639.44 1364.64 636.218 1365.49 633.019 1366.35L632.632 1364.9ZM648.174 1360.81L647.799 1359.36C651.076 1358.51 654.376 1357.66 657.7 1356.82L658.069 1358.27L658.438 1359.73C655.119 1360.57 651.823 1361.42 648.55 1362.26L648.174 1360.81ZM663.834 1356.82L663.468 1355.36C666.646 1354.57 669.844 1353.77 673.063 1352.98L673.422 1354.44L673.781 1355.89C670.565 1356.68 667.372 1357.48 664.199 1358.27L663.834 1356.82ZM679.236 1353.01L678.881 1351.55C682.125 1350.76 685.391 1349.98 688.678 1349.19L689.027 1350.65L689.376 1352.11C686.093 1352.89 682.831 1353.68 679.591 1354.47L679.236 1353.01ZM694.964 1349.24L694.618 1347.78C697.882 1347 701.166 1346.23 704.47 1345.47L704.81 1346.93L705.149 1348.39C701.848 1349.16 698.568 1349.92 695.309 1350.7L694.964 1349.24ZM710.561 1345.6L710.225 1344.14C713.433 1343.4 716.661 1342.67 719.909 1341.93L720.239 1343.4L720.569 1344.86C717.325 1345.59 714.101 1346.33 710.896 1347.06L710.561 1345.6ZM726.102 1342.08L725.775 1340.62C729.047 1339.88 732.337 1339.16 735.648 1338.43L735.969 1339.9L736.291 1341.36C732.984 1342.09 729.697 1342.81 726.429 1343.54L726.102 1342.08ZM741.946 1338.59L741.628 1337.12C743.295 1336.76 744.967 1336.4 746.644 1336.04L746.959 1337.51L747.275 1338.97C745.6 1339.33 743.93 1339.69 742.264 1340.06L741.946 1338.59ZM746.959 1337.51L746.644 1336.04C748.331 1335.68 750.009 1335.31 751.679 1334.95L751.999 1336.41L752.32 1337.88C750.647 1338.24 748.965 1338.61 747.275 1338.97L746.959 1337.51ZM757.978 1335.09L757.652 1333.63C760.949 1332.9 764.212 1332.16 767.44 1331.41L767.776 1332.88L768.112 1334.34C764.877 1335.08 761.608 1335.82 758.304 1336.56L757.978 1335.09ZM773.556 1331.53L773.213 1330.07C776.4 1329.33 779.553 1328.58 782.672 1327.82L783.024 1329.28L783.377 1330.74C780.252 1331.49 777.092 1332.25 773.898 1332.99L773.556 1331.53ZM788.607 1327.91L788.248 1326.46C791.545 1325.64 794.803 1324.83 798.023 1324L798.394 1325.46L798.765 1326.91C795.537 1327.74 792.271 1328.56 788.967 1329.37L788.607 1327.91ZM804.289 1323.94L803.911 1322.49C807.158 1321.64 810.365 1320.79 813.532 1319.93L813.923 1321.38L814.314 1322.83C811.139 1323.69 807.923 1324.54 804.668 1325.39L804.289 1323.94ZM819.589 1319.84L819.19 1318.39C822.309 1317.53 825.389 1316.67 828.429 1315.8L828.841 1317.24L829.253 1318.68C826.204 1319.55 823.115 1320.42 819.987 1321.28L819.589 1319.84ZM834.622 1315.57L834.202 1314.13C837.495 1313.17 840.74 1312.2 843.939 1311.23L844.375 1312.66L844.811 1314.1C841.602 1315.07 838.346 1316.04 835.043 1317.01L834.622 1315.57ZM850.091 1310.91L849.646 1309.47C852.788 1308.5 855.884 1307.51 858.933 1306.53L859.395 1307.95L859.857 1309.38C856.796 1310.37 853.69 1311.36 850.537 1312.34L850.091 1310.91ZM864.844 1306.17L864.372 1304.74C867.62 1303.67 870.814 1302.59 873.954 1301.5L874.445 1302.92L874.935 1304.33C871.782 1305.43 868.576 1306.51 865.316 1307.59L864.844 1306.17ZM880.16 1300.91L879.658 1299.5C882.793 1298.38 885.873 1297.26 888.899 1296.14L889.422 1297.54L889.945 1298.95C886.905 1300.08 883.812 1301.2 880.663 1302.32L880.16 1300.91ZM894.821 1295.51L894.286 1294.1C897.438 1292.9 900.528 1291.69 903.557 1290.47L904.116 1291.86L904.675 1293.26C901.63 1294.48 898.524 1295.7 895.357 1296.91L894.821 1295.51ZM909.75 1289.57L909.176 1288.18C912.258 1286.9 915.274 1285.62 918.226 1284.33L918.826 1285.71L919.426 1287.08C916.456 1288.38 913.423 1289.67 910.324 1290.95L909.75 1289.57ZM924.084 1283.38L923.468 1282.01C926.578 1280.61 929.612 1279.2 932.572 1277.79L933.218 1279.14L933.865 1280.49C930.884 1281.92 927.83 1283.33 924.701 1284.74L924.084 1283.38ZM938.646 1276.5L937.98 1275.16C940.938 1273.69 943.817 1272.22 946.619 1270.74L947.319 1272.07L948.019 1273.39C945.194 1274.88 942.292 1276.37 939.312 1277.84L938.646 1276.5ZM952.451 1269.3L951.729 1267.99C954.76 1266.33 957.696 1264.66 960.537 1262.98L961.299 1264.27L962.062 1265.56C959.193 1267.26 956.23 1268.94 953.173 1270.62L952.451 1269.3ZM966.338 1261.23L965.549 1259.95C968.375 1258.2 971.101 1256.45 973.729 1254.69L974.564 1255.94L975.398 1257.18C972.739 1258.97 969.982 1260.74 967.126 1262.5L966.338 1261.23ZM979.595 1252.48L978.729 1251.25C981.439 1249.34 984.035 1247.42 986.519 1245.49L987.439 1246.67L988.359 1247.86C985.838 1249.81 983.206 1251.76 980.461 1253.7L979.595 1252.48ZM992.082 1242.95L991.126 1241.8C993.754 1239.62 996.244 1237.44 998.599 1235.26L999.62 1236.36L1000.64 1237.46C998.241 1239.68 995.708 1241.9 993.038 1244.11L992.082 1242.95ZM1003.75 1232.38L1002.69 1231.31C1005.13 1228.88 1007.4 1226.44 1009.51 1223.99L1010.65 1224.97L1011.78 1225.95C1009.62 1228.46 1007.3 1230.95 1004.82 1233.44L1003.75 1232.38ZM1014.35 1220.48L1013.17 1219.56C1015.26 1216.89 1017.17 1214.21 1018.9 1211.53L1020.16 1212.34L1021.42 1213.16C1019.64 1215.92 1017.67 1218.67 1015.53 1221.41L1014.35 1220.48ZM1023.19 1207.34L1021.89 1206.6C1023.54 1203.68 1024.98 1200.75 1026.23 1197.82L1027.61 1198.41L1028.99 1198.99C1027.7 1202.03 1026.2 1205.06 1024.5 1208.07L1023.19 1207.34ZM1029.72 1192.94L1028.3 1192.45C1029.38 1189.32 1030.25 1186.18 1030.91 1183.04L1032.37 1183.35L1033.84 1183.66C1033.16 1186.92 1032.26 1190.18 1031.14 1193.43L1029.72 1192.94ZM1033.36 1177.53L1031.87 1177.33C1032.29 1174.1 1032.5 1170.87 1032.5 1167.63L1034 1167.63L1035.5 1167.63C1035.5 1170.99 1035.28 1174.36 1034.85 1177.72L1033.36 1177.53ZM1033.78 1161.7L1032.29 1161.82C1032.05 1158.59 1031.61 1155.37 1030.99 1152.14L1032.46 1151.85L1033.93 1151.57C1034.58 1154.91 1035.03 1158.25 1035.28 1161.59L1033.78 1161.7ZM1031.16 1146.11L1029.7 1146.49C1028.89 1143.37 1027.91 1140.26 1026.76 1137.14L1028.17 1136.63L1029.58 1136.11C1030.76 1139.31 1031.77 1142.51 1032.61 1145.73L1031.16 1146.11ZM1025.98 1131.14L1024.61 1131.73C1023.34 1128.77 1021.93 1125.82 1020.38 1122.87L1021.71 1122.17L1023.03 1121.48C1024.62 1124.49 1026.06 1127.51 1027.36 1130.55L1025.98 1131.14ZM1018.84 1116.99L1017.54 1117.74C1015.93 1114.95 1014.19 1112.16 1012.34 1109.39L1013.59 1108.56L1014.84 1107.73C1016.72 1110.55 1018.49 1113.39 1020.14 1116.24L1018.84 1116.99ZM1010.22 1103.68L1009 1104.55C1007.11 1101.92 1005.13 1099.29 1003.05 1096.68L1004.23 1095.74L1005.4 1094.81C1007.51 1097.46 1009.52 1100.13 1011.44 1102.81L1010.22 1103.68ZM1000.48 1091.16L999.334 1092.12C997.243 1089.63 995.068 1087.14 992.815 1084.67L993.924 1083.66L995.032 1082.65C997.312 1085.15 999.513 1087.67 1001.63 1090.19L1000.48 1091.16ZM989.897 1079.34L988.811 1080.38C986.553 1078.01 984.225 1075.65 981.832 1073.3L982.882 1072.23L983.932 1071.16C986.349 1073.53 988.7 1075.91 990.983 1078.31L989.897 1079.34ZM978.64 1068.15L977.61 1069.24C975.228 1066.99 972.788 1064.75 970.293 1062.52L971.292 1061.4L972.29 1060.29C974.806 1062.53 977.267 1064.79 979.67 1067.06L978.64 1068.15ZM966.845 1057.5L965.864 1058.64C963.393 1056.5 960.872 1054.38 958.307 1052.27L959.259 1051.11L960.211 1049.96C962.795 1052.08 965.334 1054.22 967.825 1056.37L966.845 1057.5ZM954.609 1047.35L953.673 1048.52C951.128 1046.49 948.541 1044.47 945.917 1042.46L946.828 1041.27L947.739 1040.08C950.379 1042.1 952.983 1044.13 955.545 1046.18L954.609 1047.35ZM942.05 1037.67L941.154 1038.87C938.532 1036.92 935.876 1034.98 933.188 1033.06L934.061 1031.84L934.934 1030.62C937.637 1032.55 940.308 1034.5 942.946 1036.47L942.05 1037.67ZM929.2 1028.4L928.34 1029.63C925.645 1027.74 922.922 1025.87 920.172 1024.02L921.01 1022.78L921.849 1021.53C924.612 1023.4 927.35 1025.27 930.059 1027.17L929.2 1028.4ZM916.072 1019.48L915.246 1020.73C912.494 1018.92 909.719 1017.12 906.923 1015.34L907.73 1014.07L908.536 1012.81C911.345 1014.6 914.133 1016.41 916.898 1018.23L916.072 1019.48ZM902.709 1010.9L901.914 1012.17C899.122 1010.43 896.312 1008.7 893.486 1006.99L894.263 1005.71L895.04 1004.42C897.878 1006.14 900.7 1007.88 903.504 1009.63L902.709 1010.9ZM889.152 1002.64L888.385 1003.93C885.552 1002.25 882.705 1000.58 879.846 998.935L880.595 997.636L881.344 996.336C884.214 997.989 887.073 999.661 889.918 1001.35L889.152 1002.64ZM875.428 994.686L874.689 995.991C871.814 994.364 868.928 992.757 866.036 991.168L866.758 989.854L867.48 988.539C870.383 990.133 873.28 991.747 876.166 993.38L875.428 994.686ZM861.531 987.008L860.818 988.328C857.913 986.76 855.002 985.212 852.089 983.685L852.785 982.357L853.481 981.028C856.405 982.561 859.327 984.114 862.243 985.688L861.531 987.008ZM847.487 979.604L846.8 980.938C843.862 979.424 840.923 977.932 837.986 976.463L838.657 975.121L839.328 973.78C842.276 975.255 845.225 976.752 848.174 978.271L847.487 979.604ZM833.324 972.476L832.662 973.822C829.681 972.356 826.705 970.914 823.735 969.495L824.382 968.142L825.028 966.788C828.008 968.211 830.995 969.659 833.986 971.13L833.324 972.476ZM819.036 965.611L818.398 966.969C815.378 965.552 812.366 964.16 809.367 962.795L809.989 961.429L810.61 960.064C813.62 961.434 816.641 962.831 819.673 964.253L819.036 965.611ZM804.579 958.989L803.967 960.358C802.471 959.69 800.979 959.028 799.491 958.373L800.095 957L800.699 955.627C802.193 956.284 803.69 956.949 805.191 957.62L804.579 958.989Z" fill="#CFCFE2" />
</svg>
