<svg width="175" height="57" viewBox="0 0 175 57" fill="none" xmlns="http://www.w3.org/2000/svg">
<path d="M30.2748 16.2856H29.4248C27.205 16.2856 25.8261 17.659 25.8261 19.8691V37.6483C25.8261 46.0777 23.2507 49.5159 16.9368 49.5159C10.6228 49.5159 8.04738 46.062 8.04738 37.5952V19.8691C8.04738 17.659 6.66844 16.2856 4.449 16.2856H3.5985C1.37893 16.2856 0 17.659 0 19.8691V37.6483C0 50.4891 5.6985 56.9999 16.9368 56.9999C28.1751 56.9999 33.8733 50.4891 33.8733 37.6483V19.8691C33.8733 17.659 32.4943 16.2856 30.2748 16.2856Z" fill="#FA4616"/>
<path d="M44.043 27.0742H43.3386C41.064 27.0742 39.6512 28.5008 39.6512 30.7967V53.2774C39.6512 55.5732 41.064 56.9998 43.3386 56.9998H44.043C46.3174 56.9998 47.7302 55.5732 47.7302 53.2774V30.7967C47.7302 28.5008 46.3174 27.0742 44.043 27.0742Z" fill="#FA4616"/>
<path d="M53.8 13.1582C48.6592 12.3321 44.6025 8.27379 43.7768 3.13091C43.7613 3.03384 43.6355 3.03384 43.6199 3.13091C42.7943 8.27379 38.7376 12.3321 33.5968 13.1582C33.4997 13.1737 33.4997 13.2996 33.5968 13.3152C38.7376 14.1411 42.7943 18.1996 43.6199 23.3424C43.6355 23.4395 43.7613 23.4395 43.7768 23.3424C44.6025 18.1996 48.6592 14.1411 53.8 13.3152C53.8971 13.2996 53.8971 13.1737 53.8 13.1582ZM48.7492 13.2759C46.1788 13.6889 44.1504 15.7181 43.7376 18.2896C43.7298 18.3381 43.6669 18.3381 43.6592 18.2896C43.2463 15.7181 41.218 13.6889 38.6476 13.2759C38.599 13.2681 38.599 13.2052 38.6476 13.1974C41.218 12.7844 43.2463 10.7552 43.6592 8.18379C43.6669 8.13526 43.7298 8.13526 43.7376 8.18379C44.1504 10.7552 46.1788 12.7844 48.7492 13.1974C48.7977 13.2052 48.7977 13.2681 48.7492 13.2759Z" fill="#FA4616"/>
<path d="M56.8799 5.12854C54.3095 5.54149 52.2811 7.57073 51.8683 10.1422C51.8605 10.1907 51.7976 10.1907 51.7899 10.1422C51.377 7.57073 49.3487 5.54149 46.7783 5.12854C46.7297 5.12076 46.7297 5.05782 46.7783 5.05004C49.3487 4.63701 51.377 2.60784 51.7899 0.0364016C51.7976 -0.0121339 51.8605 -0.0121339 51.8683 0.0364016C52.2811 2.60784 54.3095 4.63701 56.8799 5.05004C56.9284 5.05782 56.9284 5.12076 56.8799 5.12854Z" fill="#FA4616"/>
<path d="M65.3944 16.2856H57.5528C55.3096 16.2856 53.916 17.6736 53.916 19.9073V53.3783C53.916 55.6119 55.3096 56.9999 57.5528 56.9999H58.4124C60.6557 56.9999 62.0493 55.6119 62.0493 53.3783V45.4553H65.4481C79.0559 45.4553 84.6066 41.2299 84.6066 30.8705C84.6066 20.5111 79.0404 16.2856 65.3944 16.2856ZM76.366 30.7636C76.366 36.093 73.8277 37.8913 66.3072 37.8913H62.0493V23.6891H66.3072C73.8277 23.6891 76.366 25.474 76.366 30.7636Z" fill="#FA4616"/>
<path d="M114.811 23.819H114.166C111.923 23.819 110.53 25.207 110.53 27.4407V27.4453C108.226 24.7887 104.657 23.231 100.579 23.231C96.4229 23.231 92.6652 24.7513 89.9973 27.5124C87.0915 30.5192 85.5556 34.859 85.5556 40.062C85.5556 45.2877 87.1005 49.6525 90.0233 52.6843C92.7063 55.4672 96.474 56.9999 100.632 56.9999C104.634 56.9999 108.229 55.4227 110.533 52.8045C110.533 52.8074 110.533 53.5592 110.533 53.5621C110.608 55.6881 111.985 56.9999 114.166 56.9999H114.811C117.054 56.9999 118.448 55.6124 118.448 53.3787V27.4407C118.448 25.207 117.054 23.819 114.811 23.819ZM110.691 40.062C110.691 46.1737 107.413 49.9708 102.136 49.9708C96.793 49.9708 93.4739 46.1737 93.4739 40.062C93.4739 33.9827 96.7519 30.2065 102.029 30.2065C107.291 30.2065 110.691 34.0752 110.691 40.062Z" fill="#FA4616"/>
<path d="M142.335 52.9039C142.223 51.8266 141.576 50.2877 138.492 50.2877C134.847 50.2877 133.111 49.1562 133.111 42.7268V30.3504H138.546C140.787 30.3504 142.179 29.0847 142.179 27.0477C142.179 25.0436 140.787 23.7983 138.546 23.7983H133.118V19.9096C133.118 17.6745 131.715 16.2856 129.457 16.2856H128.808C126.55 16.2856 125.147 17.6745 125.147 19.9096V23.7983H123.898C121.921 23.7983 120.694 25.0436 120.694 27.0477C120.694 29.0847 122.086 30.3504 124.327 30.3504H125.147V43.4226C125.147 52.9395 128.865 56.9999 137.58 56.9999C137.594 56.9999 137.608 56.9995 137.623 56.9991C138.129 56.9986 138.672 56.9907 139.225 56.9417C140.324 56.8379 141.154 56.4523 141.695 55.794C142.233 55.139 142.448 53.988 142.335 52.9039Z" fill="#FA4616"/>
<path d="M161.634 23.2631C157.422 23.2631 154.417 24.9334 152.536 27.0384V19.9096C152.536 17.6745 151.142 16.2856 148.897 16.2856H148.252C146.007 16.2856 144.613 17.6745 144.613 19.9096V53.376C144.613 55.6111 146.007 56.9999 148.252 56.9999H148.897C151.142 56.9999 152.536 55.6111 152.536 53.376V39.944C152.536 31.3448 156.655 30.3504 159.753 30.3504C164.955 30.3504 167.077 32.9285 167.077 39.2487V53.376C167.077 55.6111 168.471 56.9999 170.716 56.9999H171.361C173.606 56.9999 175 55.6111 175 53.376V38.7667C175 28.3342 170.628 23.2631 161.634 23.2631Z" fill="#FA4616"/>
</svg>
