<svg width="660" height="343" viewBox="0 0 660 343" fill="none" xmlns="http://www.w3.org/2000/svg">
<path d="M659.99 1.67027C660.084 0.84719 659.493 0.103774 658.67 0.00980341C657.847 -0.0841669 657.104 0.506893 657.01 1.32997L658.5 1.50012L659.99 1.67027ZM221.812 108.873L221.985 107.383V107.383L221.812 108.873ZM99.0517 335.824C99.7831 335.435 100.061 334.527 99.6717 333.796L93.3328 321.877C92.9438 321.145 92.0355 320.868 91.3041 321.257C90.5727 321.646 90.2951 322.554 90.6841 323.285L96.3187 333.88L85.7239 339.515C84.9924 339.904 84.7148 340.812 85.1038 341.543C85.4928 342.275 86.4011 342.552 87.1325 342.163L99.0517 335.824ZM94.2846 331.486C93.5141 331.182 92.6428 331.56 92.3387 332.331C92.0346 333.101 92.4127 333.972 93.1833 334.276L93.734 332.881L94.2846 331.486ZM87.6076 331.806C88.3515 332.17 89.2501 331.863 89.6148 331.119C89.9794 330.375 89.672 329.476 88.9282 329.112L88.2679 330.459L87.6076 331.806ZM80.3934 324.333C79.6916 323.893 78.7659 324.105 78.3256 324.806C77.8854 325.508 78.0975 326.434 78.7993 326.874L79.5963 325.603L80.3934 324.333ZM73.7037 323.487C74.3818 323.963 75.3173 323.799 75.7932 323.121C76.2691 322.443 76.1053 321.507 75.4272 321.031L74.5655 322.259L73.7037 323.487ZM67.6003 315.089C66.9585 314.565 66.0136 314.66 65.4897 315.302C64.9658 315.944 65.0614 316.889 65.7031 317.413L66.6517 316.251L67.6003 315.089ZM61.1523 313.549C61.7737 314.097 62.7216 314.038 63.2695 313.416C63.8173 312.795 63.7577 311.847 63.1363 311.299L62.1443 312.424L61.1523 313.549ZM55.9308 304.558C55.3422 303.975 54.3925 303.98 53.8095 304.569C53.2266 305.157 53.2313 306.107 53.8199 306.69L54.8754 305.624L55.9308 304.558ZM49.5853 302.357C50.1547 302.959 51.1041 302.985 51.7058 302.416C52.3075 301.846 52.3336 300.897 51.7642 300.295L50.6748 301.326L49.5853 302.357ZM45.1781 292.969C44.6399 292.339 43.6931 292.265 43.0633 292.803C42.4335 293.341 42.3592 294.288 42.8973 294.918L44.0377 293.944L45.1781 292.969ZM39.0635 290.295C39.5829 290.94 40.5271 291.042 41.1725 290.523C41.8179 290.004 41.92 289.059 41.4006 288.414L40.232 289.354L39.0635 290.295ZM35.3915 280.566C34.9039 279.896 33.9657 279.748 33.296 280.236C32.6263 280.723 32.4786 281.662 32.9662 282.331L34.1789 281.448L35.3915 280.566ZM29.5012 277.425C29.9692 278.108 30.9028 278.283 31.5863 277.815C32.2699 277.347 32.4446 276.413 31.9766 275.73L30.7389 276.577L29.5012 277.425ZM26.5961 267.446C26.1621 266.74 25.2382 266.52 24.5326 266.954C23.827 267.388 23.6068 268.312 24.0409 269.018L25.3185 268.232L26.5961 267.446ZM20.9667 263.848C21.3793 264.566 22.2961 264.814 23.0145 264.402C23.7329 263.989 23.9807 263.072 23.5682 262.354L22.2674 263.101L20.9667 263.848ZM18.8765 253.672C18.502 252.933 17.5994 252.638 16.8605 253.012C16.1215 253.387 15.826 254.289 16.2005 255.028L17.5385 254.35L18.8765 253.672ZM13.5654 249.61C13.9153 250.361 14.8076 250.686 15.5586 250.336C16.3095 249.986 16.6346 249.094 16.2847 248.343L14.9251 248.976L13.5654 249.61ZM12.3826 239.294C12.0773 238.524 11.2055 238.147 10.4354 238.452C9.66529 238.758 9.28849 239.63 9.59379 240.4L10.9882 239.847L12.3826 239.294ZM7.47666 234.753C7.75261 235.534 8.60953 235.943 9.39065 235.667C10.1718 235.391 10.5813 234.535 10.3053 233.753L8.891 234.253L7.47666 234.753ZM7.33895 224.363C7.11712 223.564 6.29024 223.097 5.49207 223.319C4.69389 223.541 4.22667 224.368 4.4485 225.166L5.89373 224.764L7.33895 224.363ZM2.9674 219.34C3.15328 220.147 3.95841 220.651 4.76572 220.465C5.57302 220.279 6.07678 219.474 5.8909 218.667L4.42915 219.003L2.9674 219.34ZM4.07609 209.015C3.95747 208.195 3.19665 207.627 2.37676 207.746C1.55687 207.864 0.98838 208.625 1.107 209.445L2.59154 209.23L4.07609 209.015ZM0.401173 203.414C0.474491 204.239 1.20286 204.848 2.02804 204.775C2.85322 204.702 3.46272 203.973 3.3894 203.148L1.89529 203.281L0.401173 203.414ZM3.00734 193.371C3.01785 192.543 2.35484 191.863 1.52648 191.852C0.698124 191.842 0.0180867 192.505 0.00757897 193.333L1.50746 193.352L3.00734 193.371ZM0.284424 187.289C0.218514 188.115 0.834527 188.838 1.66033 188.903C2.48613 188.969 3.209 188.353 3.27491 187.528L1.77967 187.408L0.284424 187.289ZM4.6347 177.864C4.80099 177.052 4.2779 176.259 3.46633 176.093C2.65477 175.927 1.86205 176.45 1.69576 177.261L3.16523 177.563L4.6347 177.864ZM3.14849 171.359C2.91861 172.155 3.37746 172.987 4.17335 173.216C4.96924 173.446 5.8008 172.988 6.03067 172.192L4.58958 171.775L3.14849 171.359ZM9.36073 163.065C9.69828 162.309 9.35861 161.422 8.60207 161.084C7.84553 160.747 6.9586 161.086 6.62105 161.843L7.99089 162.454L9.36073 163.065ZM9.34681 156.374C8.94594 157.098 9.20867 158.011 9.93365 158.412C10.6586 158.813 11.5713 158.55 11.9722 157.825L10.6595 157.099L9.34681 156.374ZM17.256 149.682C17.7542 149.02 17.6215 148.079 16.9596 147.581C16.2977 147.083 15.3573 147.216 14.8591 147.878L16.0575 148.78L17.256 149.682ZM18.6903 143.195C18.1406 143.815 18.1973 144.763 18.817 145.312C19.4367 145.862 20.3848 145.806 20.9345 145.186L19.8124 144.19L18.6903 143.195ZM27.8697 138.31C28.493 137.764 28.5558 136.817 28.01 136.193C27.4642 135.57 26.5165 135.507 25.8933 136.053L26.8815 137.182L27.8697 138.31ZM30.5604 132.243C29.9014 132.745 29.774 133.686 30.2759 134.345C30.7779 135.004 31.719 135.132 32.3781 134.63L31.4693 133.437L30.5604 132.243ZM40.4391 129.136C41.1462 128.704 41.3695 127.781 40.9379 127.074C40.5063 126.367 39.5832 126.144 38.8761 126.575L39.6576 127.856L40.4391 129.136ZM44.1854 123.537C43.4554 123.929 43.181 124.838 43.5726 125.568C43.9641 126.298 44.8734 126.573 45.6034 126.181L44.8944 124.859L44.1854 123.537ZM54.352 121.944C55.1112 121.612 55.4579 120.728 55.1263 119.969C54.7948 119.21 53.9106 118.863 53.1514 119.195L53.7517 120.569L54.352 121.944ZM58.8542 116.855C58.0811 117.153 57.6958 118.021 57.9935 118.794C58.2912 119.567 59.1593 119.952 59.9324 119.654L59.3933 118.255L58.8542 116.855ZM69.083 116.464C69.8732 116.216 70.3123 115.374 70.0637 114.583C69.8151 113.793 68.9729 113.354 68.1827 113.603L68.6328 115.034L69.083 116.464ZM74.0758 111.862C73.2774 112.083 72.8093 112.91 73.0303 113.708C73.2513 114.507 74.0777 114.975 74.8761 114.754L74.476 113.308L74.0758 111.862ZM84.3087 112.4C85.1172 112.22 85.6259 111.418 85.445 110.609C85.2642 109.801 84.4622 109.292 83.6537 109.473L83.9812 110.937L84.3087 112.4ZM89.589 108.231C88.7758 108.39 88.2452 109.178 88.4038 109.991C88.5624 110.804 89.3501 111.335 90.1632 111.176L89.8761 109.704L89.589 108.231ZM99.8787 109.491C100.698 109.365 101.26 108.6 101.135 107.781C101.009 106.962 100.244 106.4 99.4251 106.525L99.6519 108.008L99.8787 109.491ZM105.304 105.693C104.482 105.8 103.903 106.553 104.01 107.374C104.118 108.196 104.87 108.775 105.692 108.667L105.498 107.18L105.304 105.693ZM115.758 107.532C116.583 107.453 117.187 106.721 117.109 105.896C117.03 105.072 116.297 104.467 115.472 104.546L115.615 106.039L115.758 107.532ZM121.233 104.047C120.407 104.111 119.79 104.833 119.854 105.659C119.919 106.485 120.64 107.102 121.466 107.038L121.35 105.542L121.233 104.047ZM131.352 106.41C132.179 106.369 132.817 105.665 132.776 104.838C132.735 104.01 132.031 103.373 131.203 103.414L131.278 104.912L131.352 106.41ZM137.409 103.157C136.581 103.184 135.933 103.878 135.96 104.706C135.988 105.534 136.682 106.183 137.51 106.155L137.46 104.656L137.409 103.157ZM147.134 105.946C147.962 105.937 148.627 105.259 148.618 104.43C148.609 103.602 147.931 102.937 147.103 102.946L147.118 104.446L147.134 105.946ZM153.084 102.924C152.256 102.921 151.583 103.591 151.58 104.42C151.578 105.248 152.247 105.921 153.076 105.924L153.08 104.424L153.084 102.924ZM163.283 106.063C164.111 106.083 164.799 105.428 164.819 104.6C164.839 103.771 164.183 103.084 163.355 103.064L163.319 104.563L163.283 106.063ZM169.11 103.234C168.282 103.205 167.588 103.853 167.559 104.681C167.53 105.509 168.177 106.203 169.005 106.232L169.058 104.733L169.11 103.234ZM178.809 106.664C179.637 106.708 180.343 106.073 180.386 105.246C180.43 104.418 179.795 103.712 178.968 103.669L178.889 105.167L178.809 106.664ZM185.043 104.021C184.216 103.969 183.504 104.597 183.451 105.424C183.399 106.25 184.027 106.963 184.854 107.015L184.948 105.518L185.043 104.021ZM194.817 107.724C195.643 107.789 196.365 107.172 196.43 106.346C196.496 105.521 195.879 104.798 195.053 104.733L194.935 106.228L194.817 107.724ZM200.857 105.217C200.032 105.144 199.305 105.755 199.232 106.58C199.16 107.405 199.77 108.133 200.595 108.205L200.726 106.711L200.857 105.217ZM210.456 109.14C211.28 109.224 212.016 108.624 212.1 107.8C212.184 106.976 211.584 106.24 210.76 106.156L210.608 107.648L210.456 109.14ZM216.839 106.8C216.016 106.709 215.275 107.303 215.184 108.127C215.094 108.95 215.688 109.691 216.511 109.782L216.675 108.291L216.839 106.8ZM226.653 110.949C227.476 111.045 228.221 110.457 228.318 109.634C228.414 108.811 227.825 108.066 227.003 107.969L226.828 109.459L226.653 110.949ZM232.984 108.672C232.162 108.575 231.416 109.164 231.319 109.986C231.222 110.809 231.811 111.555 232.634 111.651L232.809 110.162L232.984 108.672ZM242.507 112.818C243.33 112.916 244.076 112.328 244.173 111.505C244.271 110.682 243.683 109.937 242.86 109.839L242.684 111.329L242.507 112.818ZM248.775 110.541C247.952 110.443 247.206 111.031 247.108 111.854C247.011 112.676 247.598 113.422 248.421 113.52L248.598 112.031L248.775 110.541ZM258.404 114.71C259.227 114.808 259.973 114.221 260.071 113.398C260.169 112.576 259.582 111.829 258.76 111.731L258.582 113.22L258.404 114.71ZM264.691 112.44C263.868 112.341 263.122 112.928 263.023 113.751C262.925 114.573 263.512 115.32 264.335 115.418L264.513 113.929L264.691 112.44ZM274.206 116.599C275.028 116.697 275.775 116.11 275.873 115.288C275.972 114.465 275.385 113.719 274.562 113.62L274.384 115.11L274.206 116.599ZM280.558 114.338C279.735 114.239 278.989 114.826 278.89 115.649C278.792 116.471 279.379 117.218 280.202 117.316L280.38 115.827L280.558 114.338ZM290.09 118.497C290.912 118.595 291.659 118.008 291.757 117.186C291.855 116.363 291.268 115.617 290.445 115.518L290.267 117.008L290.09 118.497ZM296.34 116.221C295.517 116.123 294.771 116.71 294.673 117.533C294.575 118.356 295.163 119.102 295.985 119.2L296.162 117.71L296.34 116.221ZM305.981 120.385C306.803 120.482 307.549 119.894 307.646 119.071C307.744 118.248 307.155 117.503 306.333 117.405L306.157 118.895L305.981 120.385ZM312.261 118.104C311.438 118.007 310.693 118.596 310.596 119.419C310.499 120.241 311.088 120.987 311.911 121.083L312.086 119.594L312.261 118.104ZM321.802 122.239C322.625 122.335 323.37 121.745 323.465 120.923C323.561 120.1 322.971 119.355 322.148 119.259L321.975 120.749L321.802 122.239ZM328.138 119.953C327.315 119.858 326.571 120.448 326.476 121.271C326.382 122.094 326.972 122.838 327.795 122.933L327.967 121.443L328.138 119.953ZM337.663 124.06C338.486 124.154 339.229 123.562 339.322 122.739C339.416 121.916 338.824 121.173 338.001 121.079L337.832 122.57L337.663 124.06ZM343.956 121.75C343.133 121.658 342.391 122.25 342.298 123.074C342.206 123.897 342.799 124.639 343.622 124.731L343.789 123.241L343.956 121.75ZM353.591 125.834C354.414 125.924 355.155 125.329 355.245 124.505C355.335 123.682 354.74 122.941 353.917 122.851L353.754 124.342L353.591 125.834ZM359.815 123.49C358.992 123.402 358.252 123.998 358.164 124.822C358.075 125.645 358.671 126.385 359.495 126.473L359.655 124.982L359.815 123.49ZM369.476 127.528C370.3 127.614 371.038 127.015 371.123 126.191C371.209 125.367 370.61 124.63 369.786 124.544L369.631 126.036L369.476 127.528ZM375.74 125.156C374.915 125.072 374.179 125.672 374.096 126.496C374.012 127.321 374.612 128.057 375.437 128.14L375.588 126.648L375.74 125.156ZM385.332 129.123C386.156 129.203 386.89 128.6 386.97 127.775C387.05 126.951 386.446 126.217 385.622 126.137L385.477 127.63L385.332 129.123ZM391.63 126.711C390.805 126.634 390.073 127.24 389.996 128.064C389.918 128.889 390.524 129.621 391.349 129.698L391.489 128.205L391.63 126.711ZM401.228 130.601C402.053 130.674 402.782 130.064 402.855 129.239C402.928 128.413 402.318 127.685 401.493 127.612L401.361 129.106L401.228 130.601ZM407.497 128.132C406.672 128.063 405.946 128.675 405.876 129.5C405.806 130.326 406.419 131.052 407.244 131.122L407.371 129.627L407.497 128.132ZM417.205 131.932C418.031 131.996 418.753 131.379 418.817 130.553C418.881 129.727 418.264 129.005 417.438 128.941L417.322 130.436L417.205 131.932ZM423.355 129.388C422.529 129.327 421.81 129.948 421.749 130.774C421.689 131.6 422.31 132.319 423.136 132.38L423.245 130.884L423.355 129.388ZM433.175 133.072C434.002 133.125 434.715 132.498 434.769 131.672C434.822 130.845 434.195 130.131 433.368 130.078L433.272 131.575L433.175 133.072ZM439.271 130.443C438.444 130.394 437.734 131.025 437.685 131.852C437.637 132.679 438.268 133.389 439.095 133.437L439.183 131.94L439.271 130.443ZM449.148 133.977C449.975 134.017 450.679 133.379 450.719 132.551C450.759 131.724 450.12 131.021 449.293 130.981L449.22 132.479L449.148 133.977ZM455.225 131.247C454.397 131.213 453.698 131.856 453.664 132.684C453.63 133.511 454.273 134.21 455.101 134.244L455.163 132.746L455.225 131.247ZM465.132 134.595C465.96 134.619 466.651 133.967 466.674 133.138C466.697 132.31 466.045 131.62 465.217 131.597L465.175 133.096L465.132 134.595ZM471.169 131.74C470.341 131.724 469.656 132.382 469.64 133.21C469.624 134.038 470.282 134.723 471.11 134.739L471.14 133.24L471.169 131.74ZM481.132 134.859C481.961 134.862 482.635 134.193 482.638 133.365C482.641 132.536 481.972 131.862 481.143 131.859L481.138 133.359L481.132 134.859ZM487.103 131.851C486.275 131.856 485.608 132.532 485.614 133.361C485.619 134.189 486.295 134.856 487.124 134.851L487.114 133.351L487.103 131.851ZM497.145 134.685C497.973 134.663 498.627 133.974 498.605 133.146C498.583 132.318 497.894 131.665 497.066 131.687L497.105 133.186L497.145 134.685ZM503.015 131.49C502.188 131.523 501.543 132.22 501.576 133.048C501.609 133.876 502.307 134.52 503.134 134.488L503.075 132.989L503.015 131.49ZM513.158 133.969C513.984 133.916 514.611 133.203 514.558 132.376C514.505 131.549 513.792 130.922 512.965 130.975L513.061 132.472L513.158 133.969ZM518.88 130.547C518.054 130.614 517.439 131.337 517.506 132.163C517.572 132.988 518.296 133.604 519.121 133.537L519.001 132.042L518.88 130.547ZM529.136 132.577C529.959 132.485 530.552 131.743 530.46 130.92C530.368 130.097 529.626 129.504 528.803 129.596L528.97 131.087L529.136 132.577ZM534.651 128.883C533.83 128.992 533.252 129.746 533.361 130.567C533.469 131.388 534.223 131.966 535.044 131.857L534.848 130.37L534.651 128.883ZM545.022 130.346C545.838 130.205 546.386 129.43 546.246 128.613C546.106 127.797 545.33 127.249 544.514 127.389L544.768 128.867L545.022 130.346ZM550.335 126.313C549.522 126.474 548.994 127.263 549.155 128.076C549.316 128.889 550.106 129.417 550.918 129.255L550.626 127.784L550.335 126.313ZM560.716 127.071C561.52 126.871 562.01 126.057 561.81 125.253C561.609 124.45 560.795 123.96 559.992 124.16L560.354 125.616L560.716 127.071ZM565.774 122.622C564.977 122.848 564.515 123.677 564.741 124.474C564.967 125.271 565.797 125.734 566.594 125.508L566.184 124.065L565.774 122.622ZM576.176 122.481C576.958 122.207 577.37 121.351 577.097 120.569C576.823 119.787 575.967 119.375 575.185 119.649L575.681 121.065L576.176 122.481ZM580.743 117.579C579.973 117.884 579.596 118.756 579.9 119.526C580.205 120.296 581.077 120.673 581.847 120.369L581.295 118.974L580.743 117.579ZM591.091 116.318C591.836 115.957 592.149 115.06 591.788 114.314C591.427 113.569 590.53 113.257 589.784 113.617L590.438 114.968L591.091 116.318ZM595.026 110.925C594.299 111.322 594.03 112.233 594.427 112.96C594.823 113.688 595.734 113.956 596.461 113.56L595.744 112.243L595.026 110.925ZM605.116 108.356C605.807 107.898 605.996 106.967 605.538 106.277C605.081 105.586 604.15 105.397 603.459 105.855L604.288 107.105L605.116 108.356ZM608.301 102.452C607.637 102.947 607.5 103.887 607.995 104.551C608.489 105.216 609.429 105.353 610.094 104.858L609.197 103.655L608.301 102.452ZM617.906 98.4431C618.52 97.8875 618.568 96.9389 618.012 96.3245C617.456 95.71 616.508 95.6624 615.893 96.218L616.899 97.3306L617.906 98.4431ZM620.154 92.1346C619.573 92.7248 619.58 93.6745 620.171 94.2558C620.761 94.8371 621.711 94.8298 622.292 94.2395L621.223 93.187L620.154 92.1346ZM629.045 86.6889C629.567 86.0459 629.469 85.1012 628.826 84.5789C628.183 84.0567 627.238 84.1546 626.716 84.7977L627.881 85.7433L629.045 86.6889ZM630.288 80.1404C629.802 80.8114 629.952 81.7492 630.623 82.2351C631.294 82.721 632.232 82.5709 632.718 81.8999L631.503 81.0202L630.288 80.1404ZM638.271 73.4646C638.696 72.7535 638.464 71.8325 637.753 71.4075C637.042 70.9825 636.121 71.2144 635.696 71.9255L636.983 72.6951L638.271 73.4646ZM638.621 66.7391C638.232 67.4705 638.51 68.3788 639.241 68.7679C639.972 69.157 640.881 68.8795 641.27 68.1481L639.946 67.4436L638.621 66.7391ZM645.648 59.0941C645.98 58.3354 645.635 57.4507 644.876 57.1181C644.117 56.7854 643.233 57.1308 642.9 57.8896L644.274 58.4919L645.648 59.0941ZM645.162 52.4201C644.861 53.1919 645.243 54.0615 646.015 54.3623C646.787 54.6631 647.656 54.2812 647.957 53.5093L646.56 52.9647L645.162 52.4201ZM651.329 43.9542C651.581 43.1648 651.145 42.3211 650.355 42.0698C649.566 41.8184 648.722 42.2546 648.471 43.0439L649.9 43.4991L651.329 43.9542ZM650.149 37.4443C649.925 38.2417 650.389 39.0703 651.186 39.295C651.984 39.5197 652.812 39.0555 653.037 38.2581L651.593 37.8512L650.149 37.4443ZM655.518 28.4771C655.701 27.6693 655.195 26.8657 654.387 26.6822C653.579 26.4988 652.776 27.005 652.592 27.8129L654.055 28.145L655.518 28.4771ZM653.82 22.0325C653.659 22.8451 654.187 23.6344 655 23.7956C655.813 23.9567 656.602 23.4285 656.763 22.6159L655.292 22.3242L653.82 22.0325ZM658.508 12.7161C658.635 11.8975 658.075 11.1308 657.256 11.0037C656.437 10.8765 655.671 11.4371 655.543 12.2557L657.026 12.4859L658.508 12.7161ZM656.389 6.36934C656.28 7.19061 656.858 7.94449 657.679 8.05318C658.501 8.16186 659.255 7.58421 659.363 6.76294L657.876 6.56614L656.389 6.36934ZM98.3474 334.5L98.7858 333.066C97.3075 332.614 95.8059 332.086 94.2846 331.486L93.734 332.881L93.1833 334.276C94.7733 334.904 96.3498 335.458 97.909 335.935L98.3474 334.5ZM88.2679 330.459L88.9282 329.112C86.1226 327.736 83.2707 326.138 80.3934 324.333L79.5963 325.603L78.7993 326.874C81.7562 328.729 84.6992 330.38 87.6076 331.806L88.2679 330.459ZM74.5655 322.259L75.4272 321.031C72.8221 319.203 70.208 317.217 67.6003 315.089L66.6517 316.251L65.7031 317.413C68.3636 319.584 71.0355 321.614 73.7037 323.487L74.5655 322.259ZM62.1443 312.424L63.1363 311.299C60.7165 309.166 58.3106 306.915 55.9308 304.558L54.8754 305.624L53.8199 306.69C56.2393 309.086 58.6876 311.376 61.1523 313.549L62.1443 312.424ZM50.6748 301.326L51.7642 300.295C49.5347 297.94 47.3359 295.494 45.1781 292.969L44.0377 293.944L42.8973 294.918C45.0876 297.481 47.3204 299.964 49.5853 302.357L50.6748 301.326ZM40.232 289.354L41.4006 288.414C39.3491 285.865 37.3429 283.246 35.3915 280.566L34.1789 281.448L32.9662 282.331C34.9461 285.051 36.9817 287.708 39.0635 290.295L40.232 289.354ZM30.7389 276.577L31.9766 275.73C30.1208 273.019 28.3243 270.255 26.5961 267.446L25.3185 268.232L24.0409 269.018C25.795 271.869 27.6183 274.675 29.5012 277.425L30.7389 276.577ZM22.2674 263.101L23.5682 262.354C21.9273 259.497 20.3603 256.6 18.8765 253.672L17.5385 254.35L16.2005 255.028C17.7086 258.004 19.3005 260.947 20.9667 263.848L22.2674 263.101ZM14.9251 248.976L16.2847 248.343C14.8902 245.35 13.5864 242.33 12.3826 239.294L10.9882 239.847L9.59379 240.4C10.8199 243.493 12.1471 246.566 13.5654 249.61L14.9251 248.976ZM8.891 234.253L10.3053 233.753C9.20256 230.632 8.21047 227.498 7.33895 224.363L5.89373 224.764L4.4485 225.166C5.33921 228.371 6.35213 231.57 7.47666 234.753L8.891 234.253ZM4.42915 219.003L5.8909 218.667C5.14843 215.442 4.53997 212.222 4.07609 209.015L2.59154 209.23L1.107 209.445C1.58333 212.737 2.20737 216.039 2.9674 219.34L4.42915 219.003ZM1.89529 203.281L3.3894 203.148C3.09752 199.863 2.96637 196.601 3.00734 193.371L1.50746 193.352L0.00757897 193.333C-0.0347387 196.669 0.100822 200.033 0.401173 203.414L1.89529 203.281ZM1.77967 187.408L3.27491 187.528C3.53569 184.26 3.98487 181.035 4.6347 177.864L3.16523 177.563L1.69576 177.261C1.0202 180.558 0.554483 183.905 0.284424 187.289L1.77967 187.408ZM4.58958 171.775L6.03067 172.192C6.92772 169.086 8.0335 166.04 9.36073 163.065L7.99089 162.454L6.62105 161.843C5.23581 164.947 4.08289 168.124 3.14849 171.359L4.58958 171.775ZM10.6595 157.099L11.9722 157.825C13.5145 155.036 15.2717 152.318 17.256 149.682L16.0575 148.78L14.8591 147.878C12.7904 150.626 10.9569 153.462 9.34681 156.374L10.6595 157.099ZM19.8124 144.19L20.9345 145.186C23.0374 142.815 25.3456 140.521 27.8697 138.31L26.8815 137.182L25.8933 136.053C23.2767 138.345 20.8787 140.728 18.6903 143.195L19.8124 144.19ZM31.4693 133.437L32.3781 134.63C34.8812 132.724 37.5656 130.89 40.4391 129.136L39.6576 127.856L38.8761 126.575C35.9181 128.381 33.1484 130.272 30.5604 132.243L31.4693 133.437ZM44.8944 124.859L45.6034 126.181C48.3638 124.7 51.2782 123.286 54.352 121.944L53.7517 120.569L53.1514 119.195C50.0068 120.568 47.0197 122.017 44.1854 123.537L44.8944 124.859ZM59.3933 118.255L59.9324 119.654C62.8513 118.53 65.9002 117.466 69.083 116.464L68.6328 115.034L68.1827 113.603C64.9425 114.622 61.8341 115.707 58.8542 116.855L59.3933 118.255ZM74.476 113.308L74.8761 114.754C77.9076 113.915 81.0508 113.129 84.3087 112.4L83.9812 110.937L83.6537 109.473C80.3491 110.212 77.1573 111.009 74.0758 111.862L74.476 113.308ZM89.8761 109.704L90.1632 111.176C93.3016 110.564 96.5394 110.001 99.8787 109.491L99.6519 108.008L99.4251 106.525C96.0469 107.042 92.7689 107.611 89.589 108.231L89.8761 109.704ZM105.498 107.18L105.692 108.667C108.955 108.241 112.31 107.862 115.758 107.532L115.615 106.039L115.472 104.546C111.991 104.879 108.602 105.262 105.304 105.693L105.498 107.18ZM121.35 105.542L121.466 107.038C124.684 106.787 127.978 106.578 131.352 106.41L131.278 104.912L131.203 103.414C127.802 103.583 124.48 103.794 121.233 104.047L121.35 105.542ZM137.46 104.656L137.51 106.155C140.652 106.05 143.86 105.979 147.134 105.946L147.118 104.446L147.103 102.946C143.806 102.98 140.575 103.05 137.409 103.157L137.46 104.656ZM153.08 104.424L153.076 105.924C156.412 105.934 159.814 105.98 163.283 106.063L163.319 104.563L163.355 103.064C159.865 102.98 156.442 102.934 153.084 102.924L153.08 104.424ZM169.058 104.733L169.005 106.232C172.217 106.345 175.485 106.489 178.809 106.664L178.889 105.167L178.968 103.669C175.626 103.492 172.341 103.348 169.11 103.234L169.058 104.733ZM184.948 105.518L184.854 107.015C188.122 107.221 191.443 107.457 194.817 107.724L194.935 106.228L195.053 104.733C191.664 104.465 188.327 104.228 185.043 104.021L184.948 105.518ZM200.726 106.711L200.595 108.205C203.834 108.489 207.121 108.801 210.456 109.14L210.608 107.648L210.76 106.156C207.411 105.815 204.111 105.502 200.857 105.217L200.726 106.711ZM216.675 108.291L216.511 109.782C218.208 109.968 219.917 110.162 221.638 110.363L221.812 108.873L221.985 107.383C220.258 107.181 218.542 106.987 216.839 106.8L216.675 108.291ZM221.812 108.873L221.638 110.363C223.314 110.558 224.986 110.754 226.653 110.949L226.828 109.459L227.003 107.969C225.335 107.774 223.663 107.578 221.985 107.383L221.812 108.873ZM232.809 110.162L232.634 111.651C235.944 112.041 239.236 112.43 242.507 112.818L242.684 111.329L242.86 109.839C239.588 109.451 236.296 109.062 232.984 108.672L232.809 110.162ZM248.598 112.031L248.421 113.52C251.769 113.918 255.097 114.315 258.404 114.71L258.582 113.22L258.76 111.731C255.452 111.336 252.124 110.939 248.775 110.541L248.598 112.031ZM264.513 113.929L264.335 115.418C267.646 115.814 270.936 116.208 274.206 116.599L274.384 115.11L274.562 113.62C271.293 113.229 268.002 112.835 264.691 112.44L264.513 113.929ZM280.38 115.827L280.202 117.316C283.52 117.713 286.816 118.107 290.09 118.497L290.267 117.008L290.445 115.518C287.171 115.128 283.876 114.734 280.558 114.338L280.38 115.827ZM296.162 117.71L295.985 119.2C299.34 119.599 302.672 119.994 305.981 120.385L306.157 118.895L306.333 117.405C303.025 117.015 299.694 116.62 296.34 116.221L296.162 117.71ZM312.086 119.594L311.911 121.083C315.232 121.474 318.529 121.859 321.802 122.239L321.975 120.749L322.148 119.259C318.877 118.879 315.581 118.494 312.261 118.104L312.086 119.594ZM327.967 121.443L327.795 122.933C331.109 123.315 334.399 123.691 337.663 124.06L337.832 122.57L338.001 121.079C334.738 120.71 331.451 120.334 328.138 119.953L327.967 121.443ZM343.789 123.241L343.622 124.731C346.972 125.106 350.295 125.474 353.591 125.834L353.754 124.342L353.917 122.851C350.623 122.492 347.303 122.124 343.956 121.75L343.789 123.241ZM359.655 124.982L359.495 126.473C362.85 126.833 366.177 127.185 369.476 127.528L369.631 126.036L369.786 124.544C366.491 124.202 363.168 123.85 359.815 123.49L359.655 124.982ZM375.588 126.648L375.437 128.14C378.764 128.478 382.063 128.806 385.332 129.123L385.477 127.63L385.622 126.137C382.357 125.82 379.063 125.493 375.74 125.156L375.588 126.648ZM391.489 128.205L391.349 129.698C394.673 130.011 397.966 130.312 401.228 130.601L401.361 129.106L401.493 127.612C398.236 127.324 394.949 127.024 391.63 126.711L391.489 128.205ZM407.371 129.627L407.244 131.122C410.598 131.406 413.918 131.676 417.205 131.932L417.322 130.436L417.438 128.941C414.158 128.686 410.845 128.416 407.497 128.132L407.371 129.627ZM423.245 130.884L423.136 132.38C426.519 132.627 429.865 132.858 433.175 133.072L433.272 131.575L433.368 130.078C430.067 129.865 426.729 129.634 423.355 129.388L423.245 130.884ZM439.183 131.94L439.095 133.437C442.485 133.637 445.836 133.817 449.148 133.977L449.22 132.479L449.293 130.981C445.992 130.821 442.651 130.642 439.271 130.443L439.183 131.94ZM455.163 132.746L455.101 134.244C458.486 134.384 461.83 134.502 465.132 134.595L465.175 133.096L465.217 131.597C461.929 131.503 458.598 131.386 455.225 131.247L455.163 132.746ZM471.14 133.24L471.11 134.739C474.496 134.806 477.837 134.847 481.132 134.859L481.138 133.359L481.143 131.859C477.865 131.847 474.54 131.807 471.169 131.74L471.14 133.24ZM487.114 133.351L487.124 134.851C490.514 134.827 493.854 134.773 497.145 134.685L497.105 133.186L497.066 131.687C493.795 131.773 490.474 131.828 487.103 131.851L487.114 133.351ZM503.075 132.989L503.134 134.488C506.53 134.353 509.871 134.18 513.158 133.969L513.061 132.472L512.965 130.975C509.704 131.185 506.387 131.356 503.015 131.49L503.075 132.989ZM519.001 132.042L519.121 133.537C522.52 133.263 525.858 132.944 529.136 132.577L528.97 131.087L528.803 129.596C525.557 129.959 522.25 130.275 518.88 130.547L519.001 132.042ZM534.848 130.37L535.044 131.857C538.438 131.408 541.763 130.905 545.022 130.346L544.768 128.867L544.514 127.389C541.295 127.942 538.008 128.439 534.651 128.883L534.848 130.37ZM550.626 127.784L550.918 129.255C554.259 128.593 557.525 127.866 560.716 127.071L560.354 125.616L559.992 124.16C556.849 124.942 553.63 125.659 550.335 126.313L550.626 127.784ZM566.184 124.065L566.594 125.508C569.871 124.577 573.065 123.57 576.176 122.481L575.681 121.065L575.185 119.649C572.134 120.717 568.997 121.707 565.774 122.622L566.184 124.065ZM581.295 118.974L581.847 120.369C585.021 119.113 588.102 117.764 591.091 116.318L590.438 114.968L589.784 113.617C586.865 115.03 583.852 116.349 580.743 117.579L581.295 118.974ZM595.744 112.243L596.461 113.56C599.447 111.934 602.332 110.201 605.116 108.356L604.288 107.105L603.459 105.855C600.749 107.651 597.939 109.339 595.026 110.925L595.744 112.243ZM609.197 103.655L610.094 104.858C612.803 102.839 615.407 100.703 617.906 98.4431L616.899 97.3306L615.893 96.218C613.466 98.4131 610.935 100.49 608.301 102.452L609.197 103.655ZM621.223 93.187L622.292 94.2395C624.648 91.8474 626.899 89.332 629.045 86.6889L627.881 85.7433L626.716 84.7977C624.63 87.3669 622.443 89.8109 620.154 92.1346L621.223 93.187ZM631.503 81.0202L632.718 81.8999C634.666 79.2095 636.517 76.3989 638.271 73.4646L636.983 72.6951L635.696 71.9255C633.986 74.786 632.184 77.5228 630.288 80.1404L631.503 81.0202ZM639.946 67.4436L641.27 68.1481C642.815 65.2429 644.275 62.2259 645.648 59.0941L644.274 58.4919L642.9 57.8896C641.556 60.9544 640.13 63.903 638.621 66.7391L639.946 67.4436ZM646.56 52.9647L647.957 53.5093C649.158 50.4289 650.282 47.2447 651.329 43.9542L649.9 43.4991L648.471 43.0439C647.441 46.2766 646.338 49.401 645.162 52.4201L646.56 52.9647ZM651.593 37.8512L653.037 38.2581C653.929 35.0915 654.756 31.8319 655.518 28.4771L654.055 28.145L652.592 27.8129C651.842 31.1197 651.027 34.3293 650.149 37.4443L651.593 37.8512ZM655.292 22.3242L656.763 22.6159C657.401 19.3998 657.982 16.1004 658.508 12.7161L657.026 12.4859L655.543 12.2557C655.024 15.6006 654.45 18.8589 653.82 22.0325L655.292 22.3242ZM657.876 6.56614L659.363 6.76294C659.585 5.08541 659.794 3.38792 659.99 1.67027L658.5 1.50012L657.01 1.32997C656.816 3.03022 656.609 4.70994 656.389 6.36934L657.876 6.56614Z" fill="#CFCFE2"/>
</svg>
