<svg width="822" height="1043" viewBox="0 0 822 1043" fill="none" xmlns="http://www.w3.org/2000/svg">
<path d="M7.9122 748.304L9.35568 747.896V747.896L7.9122 748.304ZM533.459 886.883L533.318 885.39L533.459 886.883ZM707.683 1033.68C707.033 1033.16 706.922 1032.22 707.435 1031.57L715.8 1020.97C716.313 1020.32 717.256 1020.21 717.906 1020.73C718.557 1021.24 718.668 1022.18 718.154 1022.83L710.719 1032.25L720.138 1039.69C720.789 1040.2 720.9 1041.14 720.386 1041.79C719.873 1042.44 718.93 1042.56 718.279 1042.04L707.683 1033.68ZM533.459 382.007L533.144 380.541L533.459 382.007ZM585.991 2.87327C585.233 2.53954 584.889 1.65433 585.222 0.896099C585.556 0.137866 586.441 -0.206264 587.199 0.127464L586.595 1.50037L585.991 2.87327ZM713.264 1030.27C714.079 1030.12 714.863 1030.65 715.016 1031.47C715.17 1032.28 714.634 1033.07 713.82 1033.22L713.542 1031.74L713.264 1030.27ZM719.784 1031.85C718.985 1032.07 718.161 1031.59 717.945 1030.79C717.729 1029.99 718.202 1029.17 719.002 1028.95L719.393 1030.4L719.784 1031.85ZM728.315 1025.83C729.084 1025.52 729.957 1025.89 730.266 1026.66C730.575 1027.43 730.202 1028.3 729.433 1028.61L728.874 1027.22L728.315 1025.83ZM735.02 1026.15C734.274 1026.51 733.378 1026.19 733.019 1025.45C732.661 1024.7 732.976 1023.8 733.722 1023.44L734.371 1024.8L735.02 1026.15ZM742.368 1018.73C743.074 1018.29 743.998 1018.51 744.431 1019.22C744.865 1019.93 744.644 1020.85 743.938 1021.28L743.153 1020L742.368 1018.73ZM749.035 1017.94C748.356 1018.41 747.421 1018.25 746.946 1017.57C746.471 1016.89 746.636 1015.96 747.315 1015.48L748.175 1016.71L749.035 1017.94ZM755.104 1009.44C755.733 1008.9 756.68 1008.97 757.22 1009.6C757.759 1010.23 757.687 1011.18 757.058 1011.71L756.081 1010.58L755.104 1009.44ZM761.559 1007.61C760.963 1008.19 760.014 1008.17 759.438 1007.58C758.861 1006.98 758.877 1006.03 759.472 1005.46L760.515 1006.54L761.559 1007.61ZM766.19 998.249C766.722 997.614 767.668 997.53 768.303 998.062C768.938 998.594 769.021 999.54 768.489 1000.18L767.339 999.212L766.19 998.249ZM772.245 995.382C771.756 996.051 770.817 996.197 770.149 995.708C769.48 995.219 769.334 994.281 769.822 993.612L771.034 994.497L772.245 995.382ZM775.142 985.343C775.546 984.619 776.46 984.361 777.183 984.765C777.906 985.169 778.165 986.083 777.761 986.806L776.451 986.075L775.142 985.343ZM780.528 981.36C780.183 982.113 779.293 982.444 778.539 982.099C777.786 981.755 777.455 980.865 777.8 980.111L779.164 980.735L780.528 981.36ZM781.201 970.939C781.427 970.142 782.257 969.68 783.054 969.906C783.851 970.133 784.313 970.962 784.086 971.759L782.644 971.349L781.201 970.939ZM785.465 965.771C785.322 966.586 784.544 967.132 783.728 966.988C782.912 966.845 782.367 966.067 782.51 965.251L783.988 965.511L785.465 965.771ZM783.286 955.578C783.271 954.75 783.93 954.067 784.758 954.052C785.587 954.037 786.27 954.696 786.285 955.524L784.786 955.551L783.286 955.578ZM785.791 949.363C785.909 950.183 785.34 950.943 784.52 951.061C783.7 951.179 782.939 950.61 782.821 949.79L784.306 949.576L785.791 949.363ZM780.438 940.443C780.15 939.666 780.545 938.803 781.321 938.514C782.098 938.225 782.961 938.62 783.25 939.397L781.844 939.92L780.438 940.443ZM780.737 933.748C781.12 934.483 780.834 935.389 780.1 935.772C779.365 936.154 778.459 935.869 778.076 935.134L779.407 934.441L780.737 933.748ZM772.802 927.021C772.289 926.37 772.4 925.427 773.051 924.914C773.701 924.401 774.644 924.512 775.157 925.163L773.98 926.092L772.802 927.021ZM771.082 920.502C771.657 921.098 771.64 922.048 771.044 922.623C770.447 923.198 769.498 923.181 768.923 922.584L770.002 921.543L771.082 920.502ZM761.651 916.06C760.998 915.549 760.883 914.607 761.394 913.954C761.904 913.302 762.847 913.187 763.5 913.697L762.575 914.878L761.651 916.06ZM758.589 910.131C759.276 910.594 759.456 911.527 758.993 912.213C758.529 912.9 757.597 913.081 756.91 912.617L757.75 911.374L758.589 910.131ZM748.507 907.55C747.778 907.157 747.506 906.247 747.899 905.518C748.292 904.789 749.202 904.517 749.931 904.91L749.219 906.23L748.507 907.55ZM744.433 902.125C745.181 902.481 745.5 903.376 745.144 904.124C744.788 904.872 743.893 905.19 743.145 904.835L743.789 903.48L744.433 902.125ZM734.069 900.923C733.297 900.622 732.916 899.752 733.217 898.98C733.519 898.208 734.389 897.827 735.16 898.129L734.615 899.526L734.069 900.923ZM729.558 896.059C730.34 896.332 730.752 897.188 730.479 897.97C730.206 898.752 729.351 899.165 728.569 898.892L729.063 897.476L729.558 896.059ZM718.967 895.839C718.171 895.609 717.713 894.777 717.943 893.981C718.173 893.185 719.005 892.727 719.8 892.957L719.384 894.398L718.967 895.839ZM714.153 891.409C714.954 891.617 715.436 892.436 715.227 893.237C715.019 894.039 714.2 894.52 713.398 894.312L713.776 892.86L714.153 891.409ZM703.554 891.982C702.744 891.808 702.228 891.01 702.402 890.2C702.577 889.39 703.374 888.875 704.184 889.049L703.869 890.516L703.554 891.982ZM698.446 887.881C699.26 888.038 699.792 888.824 699.636 889.638C699.479 890.451 698.693 890.984 697.879 890.827L698.163 889.354L698.446 887.881ZM687.985 889.098C687.167 888.969 686.608 888.201 686.737 887.382C686.866 886.564 687.635 886.005 688.453 886.134L688.219 887.616L687.985 889.098ZM682.53 885.254C683.351 885.369 683.923 886.127 683.808 886.947C683.694 887.768 682.936 888.34 682.115 888.226L682.323 886.74L682.53 885.254ZM672.298 886.994C671.475 886.901 670.882 886.159 670.974 885.336C671.067 884.513 671.809 883.92 672.632 884.012L672.465 885.503L672.298 886.994ZM666.438 883.368C667.263 883.447 667.867 884.18 667.788 885.005C667.708 885.829 666.975 886.433 666.151 886.354L666.294 884.861L666.438 883.368ZM656.464 885.532C655.638 885.471 655.018 884.751 655.079 883.925C655.14 883.099 655.859 882.479 656.685 882.54L656.575 884.036L656.464 885.532ZM650.633 882.132C651.46 882.183 652.089 882.894 652.039 883.721C651.988 884.548 651.277 885.177 650.45 885.127L650.542 883.629L650.633 882.132ZM640.422 884.615C639.594 884.581 638.951 883.883 638.985 883.055C639.019 882.227 639.718 881.584 640.545 881.618L640.484 883.117L640.422 884.615ZM634.654 881.407C635.482 881.432 636.133 882.124 636.108 882.952C636.082 883.78 635.39 884.43 634.562 884.405L634.608 882.906L634.654 881.407ZM624.485 884.185C623.657 884.173 622.994 883.493 623.006 882.664C623.017 881.836 623.697 881.174 624.526 881.185L624.505 882.685L624.485 884.185ZM618.412 881.132C619.24 881.135 619.909 881.81 619.906 882.638C619.903 883.466 619.229 884.135 618.401 884.132L618.406 882.632L618.412 881.132ZM608.642 884.167C607.814 884.176 607.135 883.511 607.126 882.683C607.117 881.854 607.781 881.176 608.61 881.167L608.626 882.667L608.642 884.167ZM602.569 881.257C603.397 881.241 604.081 881.9 604.097 882.728C604.113 883.556 603.454 884.241 602.626 884.256L602.597 882.757L602.569 881.257ZM592.435 884.52C591.607 884.547 590.914 883.898 590.887 883.07C590.86 882.242 591.509 881.549 592.337 881.522L592.386 883.021L592.435 884.52ZM586.51 881.733C587.338 881.7 588.036 882.344 588.069 883.172C588.102 884 587.457 884.698 586.629 884.73L586.57 883.232L586.51 881.733ZM576.722 885.183C575.895 885.226 575.189 884.589 575.147 883.762C575.104 882.935 575.74 882.229 576.568 882.187L576.645 883.685L576.722 885.183ZM570.463 882.522C571.29 882.474 571.999 883.105 572.047 883.932C572.096 884.759 571.464 885.469 570.637 885.517L570.55 884.019L570.463 882.522ZM560.631 886.154C559.804 886.211 559.088 885.587 559.031 884.761C558.974 883.934 559.598 883.218 560.424 883.161L560.527 884.658L560.631 886.154ZM554.56 883.583C555.387 883.521 556.106 884.141 556.168 884.967C556.23 885.793 555.611 886.513 554.785 886.575L554.673 885.079L554.56 883.583ZM544.838 887.368C544.013 887.438 543.287 886.825 543.217 886C543.147 885.174 543.76 884.449 544.585 884.379L544.712 885.873L544.838 887.368ZM538.478 884.913C539.303 884.838 540.032 885.447 540.107 886.272C540.181 887.097 539.573 887.826 538.747 887.901L538.613 886.407L538.478 884.913ZM528.625 888.846C527.8 888.923 527.069 888.317 526.991 887.492C526.914 886.667 527.52 885.936 528.345 885.859L528.485 887.352L528.625 888.846ZM522.399 886.411C523.224 886.335 523.954 886.942 524.03 887.767C524.106 888.592 523.499 889.323 522.674 889.398L522.537 887.905L522.399 886.411ZM512.808 890.295C511.983 890.369 511.254 889.76 511.18 888.934C511.107 888.109 511.716 887.381 512.541 887.307L512.674 888.801L512.808 890.295ZM506.641 887.83C507.467 887.757 508.194 888.368 508.267 889.193C508.339 890.018 507.729 890.746 506.904 890.818L506.773 889.324L506.641 887.83ZM496.964 891.678C496.139 891.748 495.413 891.135 495.342 890.31C495.272 889.484 495.885 888.758 496.71 888.688L496.837 890.183L496.964 891.678ZM490.785 889.186C491.61 889.118 492.335 889.731 492.404 890.557C492.472 891.383 491.859 892.107 491.033 892.176L490.909 890.681L490.785 889.186ZM481.181 892.98C480.355 893.046 479.632 892.43 479.566 891.604C479.5 890.778 480.116 890.055 480.942 889.989L481.061 891.484L481.181 892.98ZM474.971 890.461C475.797 890.396 476.519 891.014 476.583 891.84C476.648 892.666 476.03 893.387 475.204 893.452L475.088 891.956L474.971 890.461ZM465.303 894.206C464.476 894.268 463.757 893.648 463.695 892.822C463.634 891.996 464.254 891.276 465.08 891.215L465.191 892.711L465.303 894.206ZM459.181 891.648C460.007 891.588 460.726 892.209 460.785 893.036C460.845 893.862 460.224 894.58 459.397 894.64L459.289 893.144L459.181 891.648ZM449.456 895.339C448.629 895.396 447.913 894.772 447.857 893.945C447.8 893.119 448.424 892.403 449.251 892.346L449.353 893.843L449.456 895.339ZM443.308 892.746C444.135 892.691 444.849 893.317 444.904 894.144C444.958 894.97 444.332 895.685 443.506 895.739L443.407 894.242L443.308 892.746ZM433.653 896.369C432.826 896.42 432.114 895.791 432.063 894.965C432.012 894.138 432.641 893.426 433.468 893.375L433.56 894.872L433.653 896.369ZM427.49 893.737C428.317 893.688 429.027 894.318 429.076 895.145C429.125 895.972 428.494 896.682 427.668 896.731L427.579 895.234L427.49 893.737ZM417.739 897.296C416.912 897.341 416.205 896.707 416.16 895.88C416.115 895.053 416.749 894.346 417.576 894.3L417.657 895.798L417.739 897.296ZM411.669 894.614C412.496 894.571 413.201 895.208 413.244 896.035C413.287 896.862 412.651 897.568 411.824 897.61L411.746 896.112L411.669 894.614ZM401.875 898.099C401.048 898.138 400.346 897.498 400.307 896.671C400.268 895.843 400.908 895.141 401.736 895.103L401.805 896.601L401.875 898.099ZM395.784 895.371C396.611 895.335 397.312 895.976 397.347 896.804C397.383 897.632 396.742 898.332 395.914 898.368L395.849 896.869L395.784 895.371ZM386.053 898.769C385.225 898.801 384.529 898.155 384.497 897.327C384.466 896.499 385.112 895.803 385.939 895.771L385.996 897.27L386.053 898.769ZM379.949 895.988C380.777 895.96 381.471 896.608 381.5 897.436C381.528 898.263 380.88 898.958 380.052 898.986L380 897.487L379.949 895.988ZM370.116 899.298C369.288 899.322 368.598 898.67 368.574 897.842C368.551 897.013 369.203 896.323 370.031 896.3L370.074 897.799L370.116 899.298ZM364.129 896.456C364.957 896.436 365.645 897.09 365.665 897.919C365.686 898.747 365.031 899.435 364.203 899.455L364.166 897.955L364.129 896.456ZM354.223 899.667C353.394 899.682 352.711 899.022 352.696 898.194C352.681 897.366 353.341 896.682 354.169 896.668L354.196 898.167L354.223 899.667ZM348.225 896.761C349.053 896.75 349.734 897.412 349.745 898.241C349.756 899.069 349.094 899.75 348.266 899.761L348.245 898.261L348.225 896.761ZM338.372 899.861C337.544 899.866 336.868 899.199 336.863 898.37C336.858 897.542 337.525 896.866 338.353 896.861L338.363 898.361L338.372 899.861ZM332.365 896.885C333.193 896.884 333.866 897.554 333.868 898.383C333.869 899.211 333.199 899.884 332.37 899.885L332.368 898.385L332.365 896.885ZM322.46 899.863C321.632 899.858 320.964 899.182 320.97 898.354C320.975 897.526 321.65 896.858 322.479 896.863L322.469 898.363L322.46 899.863ZM316.549 896.811C317.378 896.821 318.041 897.5 318.032 898.328C318.023 899.157 317.344 899.82 316.515 899.811L316.532 898.311L316.549 896.811ZM306.535 899.654C305.707 899.637 305.049 898.952 305.066 898.124C305.083 897.296 305.768 896.638 306.596 896.654L306.566 898.154L306.535 899.654ZM300.686 896.518C301.514 896.54 302.168 897.228 302.147 898.057C302.125 898.885 301.436 899.539 300.608 899.517L300.647 898.018L300.686 896.518ZM290.65 899.212C289.822 899.182 289.174 898.487 289.204 897.659C289.233 896.831 289.929 896.184 290.757 896.213L290.703 897.712L290.65 899.212ZM284.811 895.983C285.639 896.018 286.282 896.717 286.247 897.544C286.213 898.372 285.513 899.015 284.686 898.98L284.749 897.482L284.811 895.983ZM274.802 898.513C273.974 898.47 273.339 897.764 273.383 896.936C273.426 896.109 274.132 895.474 274.96 895.517L274.881 897.015L274.802 898.513ZM268.981 895.181C269.808 895.231 270.439 895.941 270.389 896.768C270.34 897.595 269.63 898.226 268.803 898.176L268.892 896.679L268.981 895.181ZM258.924 897.528C258.098 897.468 257.476 896.751 257.535 895.924C257.594 895.098 258.312 894.476 259.139 894.535L259.031 896.032L258.924 897.528ZM253.197 894.086C254.023 894.152 254.64 894.875 254.574 895.701C254.508 896.526 253.786 897.143 252.96 897.077L253.079 895.582L253.197 894.086ZM243.038 896.222C242.213 896.146 241.606 895.415 241.683 894.59C241.759 893.765 242.49 893.159 243.315 893.235L243.176 894.729L243.038 896.222ZM237.462 892.666C238.286 892.75 238.886 893.486 238.803 894.31C238.719 895.134 237.983 895.735 237.159 895.651L237.31 894.159L237.462 892.666ZM227.201 894.566C226.379 894.47 225.789 893.725 225.885 892.902C225.982 892.079 226.726 891.49 227.549 891.586L227.375 893.076L227.201 894.566ZM221.688 890.874C222.51 890.978 223.092 891.728 222.988 892.55C222.884 893.372 222.134 893.954 221.312 893.85L221.5 892.362L221.688 890.874ZM211.423 892.517C210.603 892.399 210.033 891.639 210.151 890.819C210.268 889.999 211.029 889.43 211.849 889.548L211.636 891.032L211.423 892.517ZM205.985 888.675C206.803 888.801 207.365 889.567 207.238 890.386C207.112 891.205 206.346 891.766 205.527 891.64L205.756 890.157L205.985 888.675ZM195.711 890.031C194.895 889.889 194.348 889.113 194.49 888.297C194.632 887.48 195.409 886.934 196.225 887.075L195.968 888.553L195.711 890.031ZM190.369 886.022C191.184 886.174 191.721 886.957 191.57 887.772C191.418 888.586 190.635 889.123 189.821 888.972L190.095 887.497L190.369 886.022ZM180.084 887.055C179.273 886.886 178.752 886.092 178.921 885.281C179.09 884.47 179.884 883.949 180.695 884.118L180.389 885.586L180.084 887.055ZM174.863 882.863C175.672 883.043 176.182 883.844 176.002 884.653C175.822 885.462 175.021 885.972 174.212 885.792L174.538 884.328L174.863 882.863ZM164.563 883.528C163.759 883.329 163.268 882.516 163.467 881.712C163.666 880.907 164.479 880.417 165.284 880.616L164.923 882.072L164.563 883.528ZM159.495 879.136C160.296 879.348 160.774 880.168 160.562 880.969C160.351 881.77 159.53 882.248 158.729 882.037L159.112 880.587L159.495 879.136ZM149.183 879.382C148.388 879.149 147.932 878.316 148.165 877.521C148.398 876.726 149.231 876.27 150.026 876.503L149.605 877.943L149.183 879.382ZM144.304 874.773C145.094 875.02 145.536 875.861 145.289 876.652C145.042 877.443 144.201 877.884 143.41 877.637L143.857 876.205L144.304 874.773ZM133.991 874.542C133.208 874.272 132.793 873.417 133.063 872.634C133.334 871.852 134.188 871.436 134.971 871.707L134.481 873.125L133.991 874.542ZM129.344 869.699C130.122 869.985 130.52 870.848 130.234 871.625C129.948 872.402 129.085 872.801 128.308 872.514L128.826 871.107L129.344 869.699ZM119.051 868.926C118.284 868.613 117.916 867.737 118.229 866.97C118.541 866.203 119.417 865.835 120.184 866.148L119.617 867.537L119.051 868.926ZM114.688 863.834C115.448 864.164 115.796 865.048 115.466 865.808C115.136 866.568 114.253 866.916 113.493 866.586L114.091 865.21L114.688 863.834ZM104.448 862.447C103.702 862.088 103.388 861.191 103.748 860.445C104.107 859.698 105.004 859.385 105.75 859.745L105.099 861.096L104.448 862.447ZM100.426 857.097C101.163 857.475 101.454 858.379 101.076 859.116C100.698 859.853 99.7935 860.144 99.0565 859.766L99.7414 858.431L100.426 857.097ZM90.2903 855.023C89.5707 854.612 89.32 853.696 89.7304 852.977C90.1408 852.257 91.0569 852.006 91.7765 852.417L91.0334 853.72L90.2903 855.023ZM86.671 849.41C87.3788 849.84 87.6037 850.763 87.1732 851.471C86.7428 852.179 85.82 852.404 85.1122 851.973L85.8916 850.692L86.671 849.41ZM76.7085 846.578C76.0227 846.114 75.8434 845.181 76.3081 844.495C76.7728 843.809 77.7055 843.63 78.3913 844.095L77.5499 845.337L76.7085 846.578ZM73.5543 840.708C74.2254 841.193 74.3757 842.131 73.89 842.802C73.4043 843.473 72.4665 843.624 71.7954 843.138L72.6748 841.923L73.5543 840.708ZM63.8523 837.06C63.2083 836.539 63.1087 835.594 63.6299 834.95C64.151 834.306 65.0955 834.207 65.7395 834.728L64.7959 835.894L63.8523 837.06ZM61.2223 830.946C61.8484 831.488 61.9164 832.436 61.3739 833.062C60.8316 833.688 59.8842 833.756 59.2581 833.214L60.2401 832.08L61.2223 830.946ZM51.8819 826.444C51.2881 825.866 51.2749 824.917 51.8526 824.323C52.4303 823.729 53.3799 823.716 53.9737 824.294L52.9278 825.369L51.8819 826.444ZM49.8247 820.112C50.3976 820.71 50.377 821.66 49.7787 822.233C49.1803 822.806 48.2307 822.785 47.6578 822.187L48.7412 821.149L49.8247 820.112ZM40.9533 814.75C40.4175 814.118 40.4953 813.171 41.127 812.636C41.7589 812.1 42.7054 812.178 43.2412 812.809L42.0973 813.78L40.9533 814.75ZM39.5118 808.246C40.0243 808.897 39.9119 809.84 39.261 810.352C38.61 810.865 37.667 810.752 37.1545 810.101L38.3332 809.173L39.5118 808.246ZM31.2014 802.044C30.7298 801.362 30.8995 800.428 31.5805 799.956C32.2616 799.485 33.196 799.654 33.6677 800.335L32.4346 801.189L31.2014 802.044ZM30.4074 795.44C30.8541 796.138 30.6505 797.066 29.9528 797.512C29.255 797.959 28.3274 797.755 27.8808 797.058L29.1441 796.249L30.4074 795.44ZM22.7314 788.453C22.3275 787.729 22.5864 786.815 23.3097 786.412C24.0329 786.008 24.9467 786.267 25.3506 786.99L24.041 787.721L22.7314 788.453ZM22.5783 781.814C22.9566 782.551 22.6659 783.455 21.9289 783.833C21.1919 784.212 20.2878 783.921 19.9095 783.184L21.2439 782.499L22.5783 781.814ZM15.593 774.143C15.2575 773.386 15.5995 772.5 16.357 772.164C17.1144 771.829 18.0005 772.171 18.336 772.928L16.9645 773.536L15.593 774.143ZM16.0423 767.509C16.3526 768.277 15.9814 769.151 15.2133 769.462C14.4452 769.772 13.571 769.401 13.2607 768.633L14.6515 768.071L16.0423 767.509ZM9.76358 759.26C9.49454 758.477 9.91159 757.623 10.6952 757.354C11.4787 757.085 12.3319 757.502 12.601 758.286L11.1823 758.773L9.76358 759.26ZM10.7703 752.676C11.0153 753.467 10.5724 754.307 9.7811 754.552C8.98972 754.798 8.14957 754.355 7.90451 753.563L9.33737 753.12L10.7703 752.676ZM5.16409 743.841C4.96078 743.038 5.44705 742.222 6.25015 742.019C7.05325 741.816 7.86911 742.302 8.07236 743.105L6.61819 743.473L5.16409 743.841ZM6.7045 737.287C6.88022 738.097 6.36642 738.896 5.55679 739.071C4.74722 739.247 3.94852 738.733 3.7728 737.924L5.23862 737.605L6.7045 737.287ZM1.91806 727.977C1.79062 727.158 2.35086 726.391 3.16946 726.264C3.98801 726.137 4.75491 726.697 4.88235 727.515L3.40024 727.746L1.91806 727.977ZM4.07547 721.624C4.1727 722.447 3.58456 723.192 2.76181 723.29C1.93912 723.387 1.19339 722.799 1.09622 721.976L2.58585 721.8L4.07547 721.624ZM0.226776 711.894C0.182037 711.067 0.816315 710.36 1.64352 710.315C2.47073 710.27 3.17764 710.904 3.22238 711.732L1.72458 711.813L0.226776 711.894ZM3.01645 705.758C3.02866 706.586 2.3671 707.268 1.53873 707.28C0.710419 707.292 0.0289612 706.631 0.0167542 705.802L1.51657 705.78L3.01645 705.758ZM0.202545 695.683C0.245392 694.855 0.950775 694.219 1.77811 694.262C2.60538 694.305 3.24136 695.01 3.19858 695.838L1.70059 695.76L0.202545 695.683ZM3.62424 689.919C3.54819 690.744 2.81778 691.351 1.99283 691.275C1.16794 691.199 0.560822 690.469 0.636871 689.644L2.13052 689.781L3.62424 689.919ZM1.90622 679.597C2.03775 678.779 2.8074 678.222 3.62534 678.354C4.44321 678.485 4.99966 679.255 4.86819 680.073L3.38718 679.835L1.90622 679.597ZM5.93491 674.2C5.77042 675.012 4.97891 675.536 4.16696 675.372C3.35501 675.207 2.83017 674.416 2.9946 673.604L4.46475 673.902L5.93491 674.2ZM5.32932 663.77C5.54715 662.971 6.37173 662.5 7.17099 662.717C7.97025 662.935 8.44156 663.76 8.22372 664.559L6.77652 664.165L5.32932 663.77ZM9.90579 658.833C9.65683 659.623 8.81448 660.062 8.02438 659.813C7.23422 659.564 6.7955 658.722 7.04446 657.932L8.47513 658.382L9.90579 658.833ZM10.4039 648.349C10.7025 647.577 11.571 647.192 12.3437 647.491C13.1165 647.789 13.5008 648.658 13.2022 649.431L11.8031 648.89L10.4039 648.349ZM15.4286 643.968C15.102 644.73 14.2201 645.082 13.4588 644.756C12.6974 644.429 12.3449 643.547 12.6714 642.786L14.05 643.377L15.4286 643.968ZM16.9388 633.598C17.3096 632.857 18.2107 632.557 18.9515 632.928C19.6924 633.299 19.9923 634.2 19.6216 634.941L18.2802 634.27L16.9388 633.598ZM22.3745 629.666C21.979 630.393 21.0683 630.663 20.3404 630.267C19.6124 629.872 19.3429 628.961 19.7384 628.233L21.0565 628.949L22.3745 629.666ZM24.7955 619.498C25.2294 618.792 26.1532 618.572 26.8589 619.006C27.5646 619.439 27.785 620.363 27.3511 621.069L26.0733 620.283L24.7955 619.498ZM30.5735 616.005C30.1182 616.697 29.188 616.889 28.4959 616.433C27.8039 615.978 27.612 615.048 28.0673 614.356L29.3204 615.18L30.5735 616.005ZM33.7948 606.094C34.2827 605.424 35.221 605.277 35.8905 605.765C36.56 606.253 36.7071 607.191 36.2191 607.861L35.007 606.977L33.7948 606.094ZM39.8449 603.029C39.3387 603.684 38.3967 603.806 37.7409 603.299C37.0852 602.793 36.964 601.851 37.4702 601.195L38.6576 602.112L39.8449 603.029ZM43.7603 593.4C44.294 592.767 45.2403 592.686 45.8739 593.219C46.5075 593.753 46.5885 594.699 46.0549 595.333L44.9076 594.367L43.7603 593.4ZM50.016 590.746C49.4669 591.367 48.5189 591.424 47.8985 590.875C47.2782 590.326 47.2204 589.378 47.7695 588.758L48.8927 589.752L50.016 590.746ZM54.5347 581.403C55.1068 580.803 56.0562 580.781 56.6554 581.354C57.2546 581.926 57.2766 582.875 56.7046 583.474L55.6196 582.438L54.5347 581.403ZM60.9352 579.139C60.3502 579.726 59.4005 579.727 58.8139 579.142C58.2273 578.557 58.2259 577.607 58.8109 577.021L59.873 578.08L60.9352 579.139ZM65.988 570.063C66.5923 569.497 67.5415 569.527 68.1082 570.131C68.675 570.736 68.6445 571.685 68.0403 572.252L67.0141 571.157L65.988 570.063ZM72.4798 568.168C71.8648 568.723 70.9163 568.674 70.3613 568.059C69.8063 567.444 69.8549 566.496 70.47 565.941L71.4749 567.054L72.4798 568.168ZM78.0205 559.331C78.6518 558.795 79.5984 558.872 80.1348 559.503C80.6712 560.135 80.5943 561.081 79.9629 561.618L78.9917 560.474L78.0205 559.331ZM84.558 557.781C83.9176 558.306 82.9724 558.213 82.4468 557.573C81.9212 556.933 82.0141 555.987 82.6544 555.462L83.6062 556.621L84.558 557.781ZM90.5612 549.149C91.2154 548.641 92.1577 548.759 92.666 549.413C93.1743 550.067 93.056 551.01 92.4018 551.518L91.4815 550.333L90.5612 549.149ZM97.1063 547.919C96.4446 548.418 95.5041 548.285 95.0057 547.624C94.5072 546.962 94.6396 546.021 95.3013 545.523L96.2038 546.721L97.1063 547.919ZM103.522 539.487C104.195 539.005 105.132 539.16 105.615 539.833C106.097 540.507 105.942 541.444 105.268 541.926L104.395 540.707L103.522 539.487ZM110.087 538.525C109.407 538.998 108.472 538.83 107.999 538.15C107.525 537.471 107.693 536.536 108.373 536.062L109.23 537.294L110.087 538.525ZM116.676 530.415C117.366 529.956 118.297 530.143 118.756 530.833C119.214 531.523 119.027 532.454 118.337 532.913L117.507 531.664L116.676 530.415ZM123.464 529.55C122.769 530 121.84 529.801 121.39 529.106C120.94 528.41 121.139 527.482 121.835 527.032L122.649 528.291L123.464 529.55ZM130.188 521.74C130.892 521.303 131.817 521.52 132.254 522.223C132.69 522.927 132.474 523.852 131.77 524.289L130.979 523.014L130.188 521.74ZM136.903 521.143C136.195 521.572 135.272 521.346 134.843 520.637C134.414 519.928 134.641 519.006 135.35 518.577L136.127 519.86L136.903 521.143ZM144.066 513.407C144.782 512.991 145.701 513.234 146.117 513.95C146.533 514.666 146.29 515.584 145.574 516L144.82 514.704L144.066 513.407ZM150.692 513.059C149.972 513.468 149.056 513.216 148.647 512.496C148.237 511.776 148.489 510.86 149.209 510.451L149.951 511.755L150.692 513.059ZM158.024 505.534C158.751 505.137 159.662 505.403 160.06 506.13C160.458 506.857 160.191 507.768 159.465 508.166L158.744 506.85L158.024 505.534ZM164.852 505.249C164.122 505.64 163.213 505.365 162.822 504.635C162.431 503.905 162.706 502.996 163.436 502.604L164.144 503.927L164.852 505.249ZM172.169 498.009C172.905 497.629 173.81 497.917 174.19 498.653C174.571 499.389 174.283 500.294 173.547 500.674L172.858 499.342L172.169 498.009ZM178.897 497.936C178.158 498.31 177.255 498.014 176.881 497.275C176.507 496.536 176.802 495.634 177.541 495.259L178.219 496.597L178.897 497.936ZM186.692 490.701C187.436 490.337 188.334 490.644 188.699 491.388C189.063 492.132 188.755 493.031 188.011 493.395L187.352 492.048L186.692 490.701ZM193.29 490.834C192.544 491.193 191.648 490.878 191.289 490.132C190.93 489.385 191.244 488.489 191.991 488.13L192.641 489.482L193.29 490.834ZM201.024 483.857C201.775 483.507 202.668 483.832 203.017 484.583C203.367 485.334 203.042 486.227 202.291 486.576L201.658 485.217L201.024 483.857ZM207.813 484.029C207.06 484.373 206.17 484.042 205.825 483.288C205.481 482.535 205.813 481.645 206.566 481.3L207.19 482.665L207.813 484.029ZM215.733 477.174C216.49 476.838 217.376 477.18 217.712 477.937C218.048 478.695 217.706 479.581 216.949 479.917L216.341 478.545L215.733 477.174ZM222.37 477.533C221.611 477.864 220.727 477.517 220.396 476.757C220.065 475.998 220.413 475.114 221.172 474.783L221.771 476.158L222.37 477.533ZM230.422 470.81C231.185 470.487 232.065 470.844 232.388 471.607C232.711 472.37 232.354 473.25 231.591 473.573L231.007 472.192L230.422 470.81ZM237.236 471.204C236.471 471.522 235.593 471.16 235.275 470.396C234.957 469.631 235.319 468.753 236.084 468.434L236.66 469.819L237.236 471.204ZM245.282 464.659C246.05 464.348 246.925 464.719 247.235 465.487C247.546 466.255 247.176 467.129 246.408 467.44L245.845 466.05L245.282 464.659ZM251.929 465.223C251.159 465.529 250.287 465.154 249.98 464.384C249.674 463.615 250.049 462.742 250.819 462.436L251.374 463.829L251.929 465.223ZM260.215 458.742C260.988 458.443 261.857 458.826 262.156 459.598C262.456 460.371 262.073 461.24 261.3 461.539L260.758 460.141L260.215 458.742ZM267.025 459.337C266.251 459.632 265.384 459.244 265.089 458.47C264.794 457.696 265.181 456.829 265.955 456.534L266.49 457.935L267.025 459.337ZM275.225 453.04C276.002 452.751 276.865 453.146 277.154 453.923C277.443 454.699 277.048 455.563 276.272 455.852L275.749 454.446L275.225 453.04ZM281.857 453.789C281.079 454.074 280.217 453.675 279.932 452.897C279.647 452.119 280.046 451.257 280.824 450.972L281.34 452.381L281.857 453.789ZM290.31 447.538C291.09 447.259 291.948 447.665 292.227 448.445C292.506 449.225 292.1 450.083 291.32 450.362L290.815 448.95L290.31 447.538ZM297.092 448.314C296.31 448.589 295.454 448.179 295.178 447.397C294.903 446.616 295.313 445.76 296.095 445.484L296.593 446.899L297.092 448.314ZM305.49 442.213C306.273 441.944 307.127 442.36 307.396 443.144C307.666 443.927 307.249 444.781 306.466 445.05L305.978 443.632L305.49 442.213ZM312.086 443.13C311.301 443.396 310.449 442.976 310.183 442.192C309.917 441.407 310.337 440.555 311.122 440.289L311.604 441.71L312.086 443.13ZM320.65 437.094C321.437 436.833 322.285 437.259 322.546 438.046C322.807 438.832 322.38 439.681 321.594 439.942L321.122 438.518L320.65 437.094ZM327.385 438.036C326.597 438.293 325.75 437.863 325.493 437.076C325.236 436.288 325.665 435.441 326.453 435.184L326.919 436.61L327.385 438.036ZM336.036 432.087C336.826 431.835 337.67 432.27 337.922 433.059C338.174 433.848 337.739 434.692 336.95 434.944L336.493 433.516L336.036 432.087ZM342.581 433.157C341.791 433.406 340.948 432.967 340.699 432.177C340.45 431.387 340.888 430.545 341.678 430.296L342.13 431.726L342.581 433.157ZM351.212 427.322C352.003 427.077 352.843 427.521 353.087 428.313C353.332 429.104 352.888 429.944 352.096 430.188L351.654 428.755L351.212 427.322ZM357.884 428.414C357.091 428.655 356.253 428.209 356.012 427.416C355.771 426.624 356.217 425.786 357.01 425.544L357.447 426.979L357.884 428.414ZM366.805 422.594C367.599 422.357 368.434 422.809 368.671 423.603C368.908 424.397 368.456 425.232 367.662 425.469L367.233 424.031L366.805 422.594ZM373.33 423.79C372.536 424.024 371.702 423.569 371.468 422.774C371.234 421.98 371.689 421.146 372.484 420.912L372.907 422.351L373.33 423.79ZM381.992 418.143C382.788 417.913 383.619 418.372 383.849 419.168C384.078 419.964 383.619 420.796 382.823 421.025L382.407 419.584L381.992 418.143ZM388.59 419.373C387.793 419.6 386.964 419.138 386.737 418.341C386.51 417.544 386.972 416.714 387.768 416.488L388.179 417.93L388.59 419.373ZM397.516 413.74C398.314 413.518 399.142 413.984 399.364 414.782C399.587 415.58 399.12 416.407 398.322 416.63L397.919 415.185L397.516 413.74ZM404.235 414.991C403.436 415.211 402.61 414.742 402.39 413.943C402.17 413.145 402.639 412.319 403.438 412.099L403.836 413.545L404.235 414.991ZM413.004 409.489C413.804 409.273 414.627 409.746 414.843 410.546C415.059 411.346 414.586 412.169 413.786 412.385L413.395 410.937L413.004 409.489ZM419.519 410.846C418.719 411.059 417.897 410.584 417.683 409.783C417.469 408.983 417.945 408.161 418.745 407.947L419.132 409.396L419.519 410.846ZM428.425 405.388C429.226 405.178 430.046 405.657 430.256 406.459C430.466 407.26 429.986 408.08 429.185 408.29L428.805 406.839L428.425 405.388ZM435.05 406.763C434.248 406.971 433.43 406.489 433.222 405.687C433.015 404.885 433.497 404.066 434.299 403.859L434.675 405.311L435.05 406.763ZM444.2 401.321C445.003 401.117 445.819 401.603 446.023 402.406C446.227 403.209 445.741 404.025 444.938 404.229L444.569 402.775L444.2 401.321ZM450.699 402.775C449.895 402.977 449.08 402.489 448.879 401.685C448.677 400.882 449.165 400.067 449.969 399.865L450.334 401.32L450.699 402.775ZM459.563 397.48C460.367 397.282 461.18 397.773 461.378 398.577C461.576 399.382 461.085 400.194 460.281 400.393L459.922 398.936L459.563 397.48ZM466.091 398.969C465.286 399.165 464.474 398.672 464.278 397.867C464.082 397.062 464.576 396.251 465.381 396.054L465.736 397.512L466.091 398.969ZM475.178 393.689C475.984 393.497 476.793 393.994 476.986 394.799C477.179 395.605 476.682 396.414 475.876 396.607L475.527 395.148L475.178 393.689ZM481.809 395.196C481.003 395.387 480.195 394.888 480.004 394.082C479.813 393.275 480.312 392.467 481.119 392.277L481.464 393.736L481.809 395.196ZM490.97 389.968C491.777 389.78 492.583 390.283 492.771 391.09C492.958 391.897 492.456 392.703 491.649 392.89L491.31 391.429L490.97 389.968ZM497.396 391.563C496.589 391.748 495.784 391.244 495.599 390.437C495.413 389.629 495.917 388.824 496.725 388.639L497.061 390.101L497.396 391.563ZM506.409 386.433C507.217 386.251 508.02 386.758 508.202 387.566C508.385 388.374 507.877 389.177 507.069 389.36L506.739 387.896L506.409 386.433ZM512.929 388.044C512.121 388.224 511.319 387.715 511.138 386.907C510.958 386.098 511.467 385.296 512.275 385.116L512.602 386.58L512.929 388.044ZM522.148 382.93C522.957 382.753 523.757 383.265 523.934 384.074C524.112 384.883 523.6 385.683 522.791 385.861L522.469 384.395L522.148 382.93ZM528.764 384.557C527.955 384.732 527.156 384.219 526.98 383.409C526.805 382.6 527.318 381.801 528.128 381.625L528.446 383.091L528.764 384.557ZM538.179 379.449C538.988 379.272 539.788 379.784 539.965 380.594C540.142 381.403 539.629 382.203 538.82 382.38L538.499 380.914L538.179 379.449ZM544.804 381.059C543.996 381.239 543.194 380.729 543.014 379.921C542.834 379.112 543.343 378.311 544.152 378.13L544.478 379.595L544.804 381.059ZM553.94 375.914C554.747 375.729 555.552 376.233 555.738 377.04C555.924 377.847 555.42 378.652 554.612 378.838L554.276 377.376L553.94 375.914ZM560.398 377.494C559.592 377.683 558.785 377.183 558.595 376.376C558.406 375.57 558.907 374.763 559.713 374.574L560.056 376.034L560.398 377.494ZM569.172 372.321C569.977 372.126 570.787 372.62 570.982 373.426C571.177 374.231 570.682 375.042 569.877 375.236L569.524 373.779L569.172 372.321ZM575.467 373.871C574.662 374.069 573.85 373.578 573.651 372.774C573.453 371.969 573.944 371.156 574.748 370.958L575.108 372.414L575.467 373.871ZM584.523 368.505C585.325 368.3 586.142 368.785 586.347 369.588C586.552 370.39 586.067 371.207 585.265 371.412L584.894 369.959L584.523 368.505ZM591.168 369.889C590.366 370.098 589.547 369.618 589.338 368.816C589.129 368.015 589.609 367.195 590.411 366.986L590.789 368.438L591.168 369.889ZM600.032 364.434C600.832 364.218 601.655 364.691 601.871 365.491C602.087 366.291 601.614 367.114 600.814 367.33L600.423 365.882L600.032 364.434ZM606.487 365.782C605.689 366.003 604.863 365.534 604.643 364.735C604.422 363.936 604.891 363.111 605.69 362.89L606.089 364.336L606.487 365.782ZM614.929 360.297C615.726 360.07 616.556 360.531 616.783 361.328C617.011 362.124 616.55 362.954 615.753 363.182L615.341 361.74L614.929 360.297ZM621.543 361.509C620.748 361.742 619.915 361.285 619.683 360.49C619.45 359.695 619.907 358.862 620.702 358.63L621.123 360.069L621.543 361.509ZM630.439 355.729C631.232 355.488 632.069 355.935 632.31 356.728C632.551 357.52 632.104 358.358 631.311 358.599L630.875 357.164L630.439 355.729ZM637.037 356.839C636.246 357.085 635.405 356.643 635.159 355.852C634.913 355.061 635.355 354.22 636.146 353.974L636.591 355.406L637.037 356.839ZM645.433 351.027C646.221 350.772 647.067 351.204 647.322 351.992C647.577 352.78 647.145 353.626 646.357 353.881L645.895 352.454L645.433 351.027ZM651.816 352.093C651.03 352.354 650.181 351.927 649.92 351.141C649.66 350.355 650.086 349.506 650.872 349.245L651.344 350.669L651.816 352.093ZM660.454 345.999C661.237 345.728 662.091 346.143 662.362 346.926C662.633 347.709 662.218 348.563 661.435 348.834L660.945 347.417L660.454 345.999ZM667.163 346.824C666.382 347.102 665.524 346.694 665.247 345.914C664.969 345.133 665.377 344.276 666.158 343.998L666.66 345.411L667.163 346.824ZM675.399 340.637C676.175 340.348 677.039 340.743 677.328 341.52C677.617 342.296 677.221 343.16 676.445 343.448L675.922 342.043L675.399 340.637ZM681.857 341.407C681.083 341.703 680.216 341.316 679.92 340.542C679.624 339.768 680.012 338.901 680.786 338.605L681.321 340.006L681.857 341.407ZM690.057 334.973C690.826 334.664 691.699 335.037 692.008 335.806C692.317 336.574 691.944 337.448 691.175 337.757L690.616 336.365L690.057 334.973ZM696.824 335.453C696.059 335.77 695.181 335.407 694.864 334.641C694.547 333.876 694.911 332.998 695.676 332.681L696.25 334.067L696.824 335.453ZM704.726 328.834C705.485 328.503 706.369 328.85 706.7 329.609C707.032 330.368 706.685 331.252 705.926 331.584L705.326 330.209L704.726 328.834ZM711.201 329.245C710.445 329.585 709.557 329.249 709.217 328.493C708.876 327.738 709.213 326.85 709.968 326.51L710.584 327.877L711.201 329.245ZM719.072 322.287C719.819 321.93 720.715 322.246 721.072 322.994C721.429 323.741 721.112 324.637 720.365 324.994L719.718 323.64L719.072 322.287ZM725.812 322.344C725.07 322.712 724.17 322.408 723.802 321.666C723.434 320.923 723.738 320.024 724.48 319.656L725.146 321L725.812 322.344ZM733.119 315.24C733.852 314.853 734.759 315.134 735.146 315.866C735.533 316.599 735.252 317.506 734.519 317.893L733.819 316.566L733.119 315.24ZM739.673 315.12C738.946 315.519 738.035 315.253 737.636 314.527C737.237 313.801 737.503 312.889 738.229 312.49L738.951 313.805L739.673 315.12ZM747.037 307.478C747.75 307.057 748.67 307.294 749.091 308.007C749.512 308.721 749.275 309.64 748.562 310.062L747.799 308.77L747.037 307.478ZM753.626 307.003C752.921 307.439 751.997 307.22 751.562 306.516C751.126 305.811 751.344 304.887 752.049 304.451L752.838 305.727L753.626 307.003ZM760.229 299.192C760.917 298.732 761.849 298.916 762.31 299.604C762.771 300.293 762.587 301.224 761.898 301.685L761.064 300.439L760.229 299.192ZM766.961 298.203C766.284 298.681 765.348 298.52 764.87 297.844C764.392 297.167 764.553 296.231 765.229 295.753L766.095 296.978L766.961 298.203ZM773.019 289.986C773.673 289.478 774.616 289.597 775.124 290.251C775.632 290.905 775.513 291.848 774.859 292.356L773.939 291.171L773.019 289.986ZM779.538 288.609C778.899 289.137 777.954 289.047 777.426 288.408C776.898 287.77 776.988 286.824 777.626 286.296L778.582 287.453L779.538 288.609ZM785.099 279.758C785.706 279.194 786.655 279.23 787.219 279.837C787.783 280.444 787.747 281.393 787.14 281.957L786.12 280.857L785.099 279.758ZM791.315 277.937C790.729 278.522 789.78 278.522 789.194 277.936C788.608 277.35 788.608 276.401 789.194 275.815L790.255 276.876L791.315 277.937ZM796.012 268.494C796.553 267.867 797.501 267.798 798.128 268.339C798.755 268.881 798.824 269.828 798.283 270.455L797.147 269.475L796.012 268.494ZM802.028 265.907C801.517 266.559 800.574 266.673 799.922 266.162C799.27 265.651 799.156 264.708 799.667 264.056L800.848 264.981L802.028 265.907ZM805.402 256.029C805.851 255.333 806.78 255.133 807.476 255.583C808.172 256.032 808.371 256.961 807.922 257.657L806.662 256.843L805.402 256.029ZM810.998 252.574C810.591 253.295 809.676 253.55 808.954 253.142C808.233 252.735 807.979 251.82 808.386 251.098L809.692 251.836L810.998 252.574ZM812.734 242.318C813.059 241.556 813.94 241.201 814.702 241.526C815.464 241.851 815.818 242.733 815.493 243.495L814.113 242.906L812.734 242.318ZM817.638 237.933C817.368 238.716 816.514 239.131 815.731 238.861C814.948 238.591 814.532 237.736 814.803 236.953L816.221 237.443L817.638 237.933ZM817.407 227.542C817.576 226.731 818.371 226.211 819.182 226.38C819.993 226.55 820.513 227.345 820.343 228.156L818.875 227.849L817.407 227.542ZM821.348 222.219C821.241 223.041 820.489 223.62 819.667 223.514C818.846 223.407 818.266 222.654 818.373 221.833L819.86 222.026L821.348 222.219ZM819 212.129C819 211.3 819.672 210.629 820.501 210.629C821.329 210.63 822 211.302 822 212.13L820.5 212.129L819 212.129ZM821.777 206.095C821.838 206.921 821.218 207.64 820.392 207.701C819.566 207.762 818.847 207.142 818.785 206.316L820.281 206.205L821.777 206.095ZM817.488 196.64C817.331 195.826 817.862 195.039 818.676 194.882C819.489 194.725 820.276 195.257 820.433 196.07L818.961 196.355L817.488 196.64ZM819.107 190.229C819.316 191.031 818.835 191.85 818.034 192.059C817.232 192.268 816.413 191.788 816.204 190.986L817.655 190.608L819.107 190.229ZM813.264 181.645C812.977 180.868 813.375 180.006 814.153 179.719C814.93 179.433 815.792 179.831 816.079 180.609L814.671 181.127L813.264 181.645ZM813.863 175.049C814.189 175.81 813.837 176.692 813.075 177.019C812.314 177.345 811.432 176.993 811.105 176.231L812.484 175.64L813.863 175.049ZM806.878 167.371C806.492 166.637 806.775 165.731 807.508 165.345C808.242 164.96 809.148 165.243 809.534 165.976L808.206 166.674L806.878 167.371ZM806.639 160.736C807.054 161.453 806.81 162.371 806.093 162.786C805.377 163.201 804.459 162.957 804.043 162.24L805.341 161.488L806.639 160.736ZM798.84 153.889C798.381 153.2 798.568 152.268 799.257 151.809C799.947 151.35 800.878 151.536 801.337 152.226L800.089 153.057L798.84 153.889ZM797.938 147.306C798.42 147.98 798.265 148.917 797.591 149.399C796.917 149.881 795.981 149.725 795.499 149.052L796.718 148.179L797.938 147.306ZM789.555 141.178C789.04 140.529 789.148 139.585 789.797 139.07C790.445 138.555 791.389 138.663 791.904 139.312L790.729 140.245L789.555 141.178ZM788.133 134.693C788.665 135.328 788.582 136.274 787.948 136.807C787.313 137.339 786.367 137.256 785.835 136.622L786.984 135.657L788.133 134.693ZM779.315 129.173C778.757 128.56 778.801 127.612 779.413 127.054C780.026 126.496 780.974 126.54 781.532 127.152L780.424 128.162L779.315 129.173ZM777.483 122.807C778.054 123.407 778.031 124.356 777.431 124.927C776.831 125.499 775.882 125.476 775.311 124.876L776.397 123.841L777.483 122.807ZM768.332 117.801C767.741 117.221 767.731 116.271 768.311 115.68C768.891 115.088 769.841 115.079 770.432 115.659L769.382 116.73L768.332 117.801ZM766.17 111.557C766.772 112.126 766.799 113.075 766.23 113.678C765.661 114.28 764.712 114.307 764.11 113.738L765.14 112.647L766.17 111.557ZM756.793 107.025C756.175 106.473 756.121 105.525 756.672 104.907C757.223 104.289 758.172 104.234 758.79 104.786L757.792 105.905L756.793 107.025ZM754.325 100.868C754.952 101.409 755.021 102.357 754.48 102.984C753.938 103.611 752.991 103.68 752.364 103.138L753.345 102.003L754.325 100.868ZM744.807 96.7743C744.167 96.2484 744.074 95.3032 744.6 94.6631C745.126 94.023 746.071 93.9304 746.711 94.4562L745.759 95.6153L744.807 96.7743ZM742.045 90.6777C742.693 91.1946 742.798 92.1385 742.282 92.7858C741.765 93.4332 740.821 93.5389 740.173 93.0219L741.109 91.8498L742.045 90.6777ZM732.417 86.9653C731.759 86.4624 731.633 85.521 732.136 84.8627C732.639 84.2044 733.58 84.0785 734.239 84.5814L733.328 85.7734L732.417 86.9653ZM729.446 80.9664C730.11 81.4612 730.248 82.401 729.753 83.0654C729.258 83.7297 728.318 83.8672 727.654 83.3723L728.55 82.1693L729.446 80.9664ZM719.688 77.5575C719.014 77.0754 718.859 76.1384 719.341 75.4647C719.823 74.791 720.76 74.6357 721.434 75.1178L720.561 76.3376L719.688 77.5575ZM716.559 71.6697C717.238 72.1445 717.404 73.0797 716.929 73.7586C716.454 74.4375 715.519 74.603 714.84 74.1282L715.7 72.899L716.559 71.6697ZM706.672 68.5208C705.985 68.0577 705.804 67.1255 706.267 66.4385C706.73 65.7516 707.662 65.5701 708.349 66.0331L707.51 67.277L706.672 68.5208ZM703.398 62.7314C704.09 63.1877 704.28 64.1181 703.824 64.8095C703.368 65.501 702.437 65.6916 701.746 65.2353L702.572 63.9833L703.398 62.7314ZM693.423 59.837C692.725 59.3916 692.52 58.4643 692.965 57.7658C693.411 57.0673 694.338 56.8621 695.037 57.3076L694.23 58.5723L693.423 59.837ZM690.004 54.1302C690.707 54.5694 690.92 55.4948 690.481 56.1973C690.042 56.8997 689.116 57.1132 688.414 56.674L689.209 55.4021L690.004 54.1302ZM679.986 51.4899C679.278 51.0608 679.051 50.1385 679.48 49.4299C679.909 48.7212 680.831 48.4945 681.54 48.9235L680.763 50.2067L679.986 51.4899ZM676.418 45.8517C677.13 46.2748 677.364 47.1952 676.941 47.9074C676.518 48.6196 675.598 48.854 674.885 48.4309L675.652 47.1413L676.418 45.8517ZM666.346 43.4357C665.628 43.0222 665.382 42.105 665.795 41.3872C666.209 40.6694 667.126 40.4227 667.844 40.8362L667.095 42.136L666.346 43.4357ZM662.666 37.8806C663.388 38.2885 663.641 39.2037 663.233 39.9247C662.826 40.6458 661.91 40.8996 661.189 40.4917L661.928 39.1861L662.666 37.8806ZM652.536 35.6687C651.81 35.2699 651.545 34.358 651.944 33.6318C652.342 32.9057 653.254 32.6403 653.981 33.0391L653.258 34.3539L652.536 35.6687ZM648.743 30.188C649.472 30.5814 649.744 31.4914 649.351 32.2204C648.957 32.9495 648.048 33.2216 647.318 32.8282L648.031 31.5081L648.743 30.188ZM638.589 28.1857C637.855 27.8011 637.572 26.8945 637.956 26.1608C638.341 25.427 639.248 25.144 639.981 25.5285L639.285 26.8571L638.589 28.1857ZM634.674 22.7711C635.411 23.1504 635.7 24.055 635.321 24.7914C634.942 25.5279 634.037 25.8174 633.3 25.4381L633.987 24.1046L634.674 22.7711ZM624.486 20.963C623.745 20.5923 623.445 19.6912 623.816 18.9504C624.186 18.2095 625.088 17.9095 625.828 18.2802L625.157 19.6216L624.486 20.963ZM620.486 15.63C621.229 15.9956 621.536 16.8946 621.17 17.638C620.805 18.3814 619.906 18.6877 619.162 18.3221L619.824 16.9761L620.486 15.63ZM610.235 13.9958C609.488 13.6388 609.171 12.7433 609.528 11.9958C609.885 11.2482 610.78 10.9316 611.528 11.2886L610.882 12.6422L610.235 13.9958ZM606.173 8.75355C606.923 9.10546 607.245 9.9987 606.894 10.7487C606.542 11.4986 605.648 11.8213 604.898 11.4694L605.536 10.1115L606.173 8.75355ZM595.867 7.29493C595.113 6.95167 594.78 6.06219 595.124 5.30822C595.467 4.55426 596.356 4.22132 597.11 4.56458L596.489 5.92975L595.867 7.29493ZM591.691 2.11993C592.448 2.458 592.787 3.34516 592.449 4.10147C592.111 4.85778 591.224 5.19684 590.467 4.85877L591.079 3.48935L591.691 2.11993ZM708.612 1032.5L708.437 1031.01C710.045 1030.82 711.656 1030.57 713.264 1030.27L713.542 1031.74L713.82 1033.22C712.145 1033.53 710.467 1033.79 708.788 1033.99L708.612 1032.5ZM719.393 1030.4L719.002 1028.95C722.134 1028.11 725.246 1027.06 728.315 1025.83L728.874 1027.22L729.433 1028.61C726.26 1029.88 723.036 1030.97 719.784 1031.85L719.393 1030.4ZM734.371 1024.8L733.722 1023.44C736.668 1022.03 739.557 1020.45 742.368 1018.73L743.153 1020L743.938 1021.28C741.041 1023.06 738.061 1024.69 735.02 1026.15L734.371 1024.8ZM748.175 1016.71L747.315 1015.48C750.011 1013.59 752.614 1011.57 755.104 1009.44L756.081 1010.58L757.058 1011.71C754.493 1013.92 751.811 1016 749.035 1017.94L748.175 1016.71ZM760.515 1006.54L759.472 1005.46C761.85 1003.16 764.097 1000.75 766.19 998.249L767.339 999.212L768.489 1000.18C766.327 1002.76 764.009 1005.24 761.559 1007.61L760.515 1006.54ZM771.034 994.497L769.822 993.612C771.782 990.93 773.564 988.166 775.142 985.343L776.451 986.075L777.761 986.806C776.12 989.741 774.273 992.606 772.245 995.382L771.034 994.497ZM779.164 980.735L777.8 980.111C779.179 977.096 780.322 974.031 781.201 970.939L782.644 971.349L784.086 971.759C783.163 975.007 781.967 978.215 780.528 981.36L779.164 980.735ZM783.988 965.511L782.51 965.251C783.076 962.032 783.344 958.8 783.286 955.578L784.786 955.551L786.285 955.524C786.347 958.948 786.062 962.373 785.465 965.771L783.988 965.511ZM784.306 949.576L782.821 949.79C782.369 946.646 781.584 943.523 780.438 940.443L781.844 939.92L783.25 939.397C784.472 942.68 785.308 946.011 785.791 949.363L784.306 949.576ZM779.407 934.441L778.076 935.134C776.642 932.381 774.893 929.671 772.802 927.021L773.98 926.092L775.157 925.163C777.36 927.955 779.213 930.823 780.737 933.748L779.407 934.441ZM770.002 921.543L768.923 922.584C766.771 920.353 764.353 918.174 761.651 916.06L762.575 914.878L763.5 913.697C766.305 915.893 768.828 918.165 771.082 920.502L770.002 921.543ZM757.75 911.374L756.91 912.617C754.326 910.873 751.528 909.181 748.507 907.55L749.219 906.23L749.931 904.91C753.035 906.585 755.918 908.328 758.589 910.131L757.75 911.374ZM743.789 903.48L743.145 904.835C740.295 903.479 737.271 902.174 734.069 900.923L734.615 899.526L735.16 898.129C738.426 899.404 741.515 900.738 744.433 902.125L743.789 903.48ZM729.063 897.476L728.569 898.892C725.516 897.826 722.317 896.807 718.967 895.839L719.384 894.398L719.8 892.957C723.2 893.94 726.451 894.975 729.558 896.059L729.063 897.476ZM713.776 892.86L713.398 894.312C710.242 893.492 706.961 892.715 703.554 891.982L703.869 890.516L704.184 889.049C707.631 889.79 710.953 890.577 714.153 891.409L713.776 892.86ZM698.163 889.354L697.879 890.827C694.686 890.212 691.389 889.635 687.985 889.098L688.219 887.616L688.453 886.134C691.889 886.677 695.219 887.26 698.446 887.881L698.163 889.354ZM682.323 886.74L682.115 888.226C678.931 887.781 675.66 887.37 672.298 886.994L672.465 885.503L672.632 884.012C676.02 884.392 679.318 884.806 682.53 885.254L682.323 886.74ZM666.294 884.861L666.151 886.354C662.997 886.05 659.769 885.776 656.464 885.532L656.575 884.036L656.685 882.54C660.011 882.785 663.262 883.062 666.438 883.368L666.294 884.861ZM650.542 883.629L650.45 885.127C647.179 884.927 643.837 884.756 640.422 884.615L640.484 883.117L640.545 881.618C643.979 881.76 647.342 881.931 650.633 882.132L650.542 883.629ZM634.608 882.906L634.562 884.405C631.268 884.304 627.91 884.231 624.485 884.185L624.505 882.685L624.526 881.185C627.967 881.231 631.343 881.305 634.654 881.407L634.608 882.906ZM618.406 882.632L618.401 884.132C615.203 884.12 611.951 884.131 608.642 884.167L608.626 882.667L608.61 881.167C611.933 881.131 615.2 881.12 618.412 881.132L618.406 882.632ZM602.597 882.757L602.626 884.256C599.284 884.32 595.887 884.408 592.435 884.52L592.386 883.021L592.337 881.522C595.803 881.409 599.213 881.321 602.569 881.257L602.597 882.757ZM586.57 883.232L586.629 884.73C583.375 884.86 580.073 885.01 576.722 885.183L576.645 883.685L576.568 882.187C579.93 882.014 583.244 881.863 586.51 881.733L586.57 883.232ZM570.55 884.019L570.637 885.517C567.348 885.709 564.012 885.921 560.631 886.154L560.527 884.658L560.424 883.161C563.816 882.927 567.162 882.714 570.463 882.522L570.55 884.019ZM554.673 885.079L554.785 886.575C551.511 886.82 548.196 887.084 544.838 887.368L544.712 885.873L544.585 884.379C547.953 884.094 551.278 883.829 554.56 883.583L554.673 885.079ZM538.613 886.407L538.747 887.901C537.043 888.054 535.327 888.213 533.601 888.377L533.459 886.883L533.318 885.39C535.049 885.226 536.769 885.067 538.478 884.913L538.613 886.407ZM533.459 886.883L533.601 888.377C531.94 888.534 530.281 888.691 528.625 888.846L528.485 887.352L528.345 885.859C530 885.704 531.658 885.548 533.318 885.39L533.459 886.883ZM522.537 887.905L522.674 889.398C519.375 889.703 516.086 890.001 512.808 890.295L512.674 888.801L512.541 887.307C515.816 887.013 519.102 886.715 522.399 886.411L522.537 887.905ZM506.773 889.324L506.904 890.818C503.579 891.111 500.266 891.397 496.964 891.678L496.837 890.183L496.71 888.688C500.009 888.408 503.319 888.122 506.641 887.83L506.773 889.324ZM490.909 890.681L491.033 892.176C487.737 892.45 484.453 892.718 481.181 892.98L481.061 891.484L480.942 889.989C484.211 889.728 487.492 889.46 490.785 889.186L490.909 890.681ZM475.088 891.956L475.204 893.452C471.891 893.71 468.591 893.962 465.303 894.206L465.191 892.711L465.08 891.215C468.364 890.97 471.662 890.719 474.971 890.461L475.088 891.956ZM459.289 893.144L459.397 894.64C456.07 894.88 452.756 895.113 449.456 895.339L449.353 893.843L449.251 892.346C452.548 892.121 455.858 891.888 459.181 891.648L459.289 893.144ZM443.407 894.242L443.506 895.739C440.208 895.957 436.924 896.167 433.653 896.369L433.56 894.872L433.468 893.375C436.734 893.173 440.014 892.963 443.308 892.746L443.407 894.242ZM427.579 895.234L427.668 896.731C424.344 896.928 421.034 897.116 417.739 897.296L417.657 895.798L417.576 894.3C420.866 894.121 424.171 893.933 427.49 893.737L427.579 895.234ZM411.746 896.112L411.824 897.61C408.492 897.782 405.176 897.945 401.875 898.099L401.805 896.601L401.736 895.103C405.031 894.949 408.342 894.786 411.669 894.614L411.746 896.112ZM395.849 896.869L395.914 898.368C392.611 898.511 389.324 898.645 386.053 898.769L385.996 897.27L385.939 895.771C389.205 895.647 392.487 895.514 395.784 895.371L395.849 896.869ZM380 897.487L380.052 898.986C376.723 899.101 373.411 899.205 370.116 899.298L370.074 897.799L370.031 896.3C373.32 896.206 376.626 896.102 379.949 895.988L380 897.487ZM364.166 897.955L364.203 899.455C360.858 899.537 357.532 899.608 354.223 899.667L354.196 898.167L354.169 896.668C357.471 896.609 360.791 896.538 364.129 896.456L364.166 897.955ZM348.245 898.261L348.266 899.761C344.95 899.807 341.652 899.84 338.372 899.861L338.363 898.361L338.353 896.861C341.625 896.84 344.916 896.807 348.225 896.761L348.245 898.261ZM332.368 898.385L332.37 899.885C329.047 899.891 325.744 899.884 322.46 899.863L322.469 898.363L322.479 896.863C325.754 896.884 329.05 896.891 332.365 896.885L332.368 898.385ZM316.532 898.311L316.515 899.811C313.168 899.773 309.841 899.721 306.535 899.654L306.566 898.154L306.596 896.654C309.893 896.721 313.21 896.773 316.549 896.811L316.532 898.311ZM300.647 898.018L300.608 899.517C297.267 899.431 293.947 899.329 290.65 899.212L290.703 897.712L290.757 896.213C294.044 896.331 297.354 896.432 300.686 896.518L300.647 898.018ZM284.749 897.482L284.686 898.98C281.368 898.841 278.073 898.686 274.802 898.513L274.881 897.015L274.96 895.517C278.22 895.689 281.504 895.844 284.811 895.983L284.749 897.482ZM268.892 896.679L268.803 898.176C265.485 897.978 262.192 897.762 258.924 897.528L259.031 896.032L259.139 894.535C262.394 894.769 265.675 894.984 268.981 895.181L268.892 896.679ZM253.079 895.582L252.96 897.077C249.625 896.812 246.318 896.527 243.038 896.222L243.176 894.729L243.315 893.235C246.582 893.539 249.876 893.823 253.197 894.086L253.079 895.582ZM237.31 894.159L237.159 895.651C233.81 895.311 230.491 894.95 227.201 894.566L227.375 893.076L227.549 891.586C230.824 891.968 234.128 892.328 237.462 892.666L237.31 894.159ZM221.5 892.362L221.312 893.85C217.984 893.43 214.688 892.986 211.423 892.517L211.636 891.032L211.849 889.548C215.097 890.013 218.376 890.455 221.688 890.874L221.5 892.362ZM205.756 890.157L205.527 891.64C202.222 891.129 198.95 890.594 195.711 890.031L195.968 888.553L196.225 887.075C199.444 887.634 202.697 888.167 205.985 888.675L205.756 890.157ZM190.095 887.497L189.821 888.972C186.539 888.361 183.293 887.722 180.084 887.055L180.389 885.586L180.695 884.118C183.883 884.781 187.108 885.416 190.369 886.022L190.095 887.497ZM174.538 884.328L174.212 885.792C170.957 885.068 167.74 884.314 164.563 883.528L164.923 882.072L165.284 880.616C168.437 881.396 171.631 882.145 174.863 882.863L174.538 884.328ZM159.112 880.587L158.729 882.037C155.505 881.187 152.323 880.302 149.183 879.382L149.605 877.943L150.026 876.503C153.139 877.415 156.296 878.292 159.495 879.136L159.112 880.587ZM143.857 876.205L143.41 877.637C140.225 876.643 137.085 875.612 133.991 874.542L134.481 873.125L134.971 871.707C138.035 872.767 141.146 873.788 144.304 874.773L143.857 876.205ZM128.826 871.107L128.308 872.514C125.172 871.36 122.086 870.164 119.051 868.926L119.617 867.537L120.184 866.148C123.187 867.373 126.24 868.557 129.344 869.699L128.826 871.107ZM114.091 865.21L113.493 866.586C110.424 865.253 107.408 863.873 104.448 862.447L105.099 861.096L105.75 859.745C108.674 861.153 111.654 862.516 114.688 863.834L114.091 865.21ZM99.7414 858.431L99.0565 859.766C96.0752 858.236 93.1529 856.655 90.2903 855.023L91.0334 853.72L91.7765 852.417C94.5998 854.027 97.4832 855.587 100.426 857.097L99.7414 858.431ZM85.8916 850.692L85.1122 851.973C82.247 850.231 79.4454 848.433 76.7085 846.578L77.5499 845.337L78.3913 844.095C81.0866 845.921 83.8467 847.692 86.671 849.41L85.8916 850.692ZM72.6748 841.923L71.7954 843.138C69.0792 841.172 66.4312 839.147 63.8523 837.06L64.7959 835.894L65.7395 834.728C68.2756 836.78 70.8808 838.773 73.5543 840.708L72.6748 841.923ZM60.2401 832.08L59.2581 833.214C56.727 831.021 54.2679 828.765 51.8819 826.444L52.9278 825.369L53.9737 824.294C56.3177 826.574 58.7342 828.791 61.2223 830.946L60.2401 832.08ZM48.7412 821.149L47.6578 822.187C45.3481 819.775 43.1128 817.296 40.9533 814.75L42.0973 813.78L43.2412 812.809C45.3614 815.309 47.5562 817.743 49.8247 820.112L48.7412 821.149ZM38.3332 809.173L37.1545 810.101C35.094 807.484 33.1093 804.798 31.2014 802.044L32.4346 801.189L33.6677 800.335C35.5406 803.04 37.489 805.676 39.5118 808.246L38.3332 809.173ZM29.1441 796.249L27.8808 797.058C26.0884 794.258 24.3716 791.39 22.7314 788.453L24.041 787.721L25.3506 786.99C26.9617 789.875 28.6476 792.691 30.4074 795.44L29.1441 796.249ZM21.2439 782.499L19.9095 783.184C18.3968 780.237 16.9577 777.224 15.593 774.143L16.9645 773.536L18.336 772.928C19.6777 775.957 21.0921 778.918 22.5783 781.814L21.2439 782.499ZM14.6515 768.071L13.2607 768.633C12.0244 765.573 10.8585 762.449 9.76358 759.26L11.1823 758.773L12.601 758.286C13.6789 761.425 14.8263 764.499 16.0423 767.509L14.6515 768.071ZM9.33737 753.12L7.90451 753.563C7.40866 751.962 6.93008 750.345 6.46872 748.712L7.9122 748.304L9.35568 747.896C9.81033 749.506 10.2819 751.099 10.7703 752.676L9.33737 753.12ZM7.9122 748.304L6.46872 748.712C6.01279 747.099 5.57755 745.475 5.16409 743.841L6.61819 743.473L8.07236 743.105C8.47897 744.712 8.90714 746.309 9.35568 747.896L7.9122 748.304ZM5.23862 737.605L3.7728 737.924C3.06094 734.644 2.43979 731.328 1.91806 727.977L3.40024 727.746L4.88235 727.515C5.39468 730.806 6.00485 734.064 6.7045 737.287L5.23862 737.605ZM2.58585 721.8L1.09622 721.976C0.702789 718.646 0.410248 715.285 0.226776 711.894L1.72458 711.813L3.22238 711.732C3.40231 715.058 3.68936 718.356 4.07547 721.624L2.58585 721.8ZM1.51657 705.78L0.0167542 705.802C-0.0326843 702.455 0.0267029 699.081 0.202545 695.683L1.70059 695.76L3.19858 695.838C3.02621 699.169 2.96799 702.476 3.01645 705.758L1.51657 705.78ZM2.13052 689.781L0.636871 689.644C0.943634 686.316 1.36441 682.966 1.90622 679.597L3.38718 679.835L4.86819 680.073C4.33719 683.375 3.92484 686.658 3.62424 689.919L2.13052 689.781ZM4.46475 673.902L2.9946 673.604C3.65524 670.343 4.43143 667.064 5.32932 663.77L6.77652 664.165L8.22372 664.559C7.34329 667.789 6.58243 671.003 5.93491 674.2L4.46475 673.902ZM8.47513 658.382L7.04446 657.932C8.04691 654.75 9.16489 651.556 10.4039 648.349L11.8031 648.89L13.2022 649.431C11.9861 652.578 10.8891 655.713 9.90579 658.833L8.47513 658.382ZM14.05 643.377L12.6714 642.786C13.9807 639.732 15.4017 636.669 16.9388 633.598L18.2802 634.27L19.6216 634.941C18.1106 637.96 16.7144 640.969 15.4286 643.968L14.05 643.377ZM21.0565 628.949L19.7384 628.233C21.3172 625.328 23.0016 622.415 24.7955 619.498L26.0733 620.283L27.3511 621.069C25.5849 623.942 23.9273 626.808 22.3745 629.666L21.0565 628.949ZM29.3204 615.18L28.0673 614.356C29.8766 611.606 31.7847 608.851 33.7948 606.094L35.007 606.977L36.2191 607.861C34.2368 610.58 32.356 613.295 30.5735 616.005L29.3204 615.18ZM38.6576 602.112L37.4702 601.195C39.4743 598.599 41.5701 596.001 43.7603 593.4L44.9076 594.367L46.0549 595.333C43.8916 597.901 41.8225 600.467 39.8449 603.029L38.6576 602.112ZM48.8927 589.752L47.7695 588.758C49.9388 586.307 52.1931 583.855 54.5347 581.403L55.6196 582.438L56.7046 583.474C54.3885 585.9 52.1597 588.324 50.016 590.746L48.8927 589.752ZM59.873 578.08L58.8109 577.021C61.1234 574.702 63.5152 572.382 65.988 570.063L67.0141 571.157L68.0403 572.252C65.5913 574.548 63.2237 576.844 60.9352 579.139L59.873 578.08ZM71.4749 567.054L70.47 565.941C72.9121 563.737 75.4284 561.534 78.0205 559.331L78.9917 560.474L79.9629 561.618C77.3931 563.801 74.8993 565.985 72.4798 568.168L71.4749 567.054ZM83.6062 556.621L82.6544 555.462C85.2193 553.356 87.8545 551.252 90.5612 549.149L91.4815 550.333L92.4018 551.518C89.7159 553.605 87.1017 555.692 84.558 557.781L83.6062 556.621ZM96.2038 546.721L95.3013 545.523C97.9745 543.509 100.714 541.497 103.522 539.487L104.395 540.707L105.268 541.926C102.48 543.923 99.7598 545.92 97.1063 547.919L96.2038 546.721ZM109.23 537.294L108.373 536.062C111.08 534.178 113.847 532.295 116.676 530.415L117.507 531.664L118.337 532.913C115.526 534.782 112.776 536.653 110.087 538.525L109.23 537.294ZM122.649 528.291L121.835 527.032C124.564 525.266 127.348 523.502 130.188 521.74L130.979 523.014L131.77 524.289C128.946 526.041 126.178 527.795 123.464 529.55L122.649 528.291ZM136.127 519.86L135.35 518.577C138.201 516.851 141.106 515.128 144.066 513.407L144.82 514.704L145.574 516C142.629 517.713 139.739 519.427 136.903 521.143L136.127 519.86ZM149.951 511.755L149.209 510.451C152.097 508.81 155.035 507.171 158.024 505.534L158.744 506.85L159.465 508.166C156.489 509.795 153.565 511.426 150.692 513.059L149.951 511.755ZM164.144 503.927L163.436 502.604C166.301 501.07 169.212 499.539 172.169 498.009L172.858 499.342L173.547 500.674C170.603 502.197 167.705 503.722 164.852 505.249L164.144 503.927ZM178.219 496.597L177.541 495.259C180.545 493.737 183.595 492.218 186.692 490.701L187.352 492.048L188.011 493.395C184.926 494.906 181.889 496.42 178.897 497.936L178.219 496.597ZM192.641 489.482L191.991 488.13C194.96 486.703 197.971 485.279 201.024 483.857L201.658 485.217L202.291 486.576C199.248 487.993 196.249 489.412 193.29 490.834L192.641 489.482ZM207.19 482.665L206.566 481.3C209.581 479.922 212.637 478.547 215.733 477.174L216.341 478.545L216.949 479.917C213.863 481.285 210.818 482.656 207.813 484.029L207.19 482.665ZM221.771 476.158L221.172 474.783C224.217 473.456 227.3 472.132 230.422 470.81L231.007 472.192L231.591 473.573C228.479 474.891 225.405 476.211 222.37 477.533L221.771 476.158ZM236.66 469.819L236.084 468.434C239.114 467.173 242.18 465.915 245.282 464.659L245.845 466.05L246.408 467.44C243.315 468.692 240.257 469.947 237.236 471.204L236.66 469.819ZM251.374 463.829L250.819 462.436C253.916 461.202 257.048 459.971 260.215 458.742L260.758 460.141L261.3 461.539C258.141 462.765 255.017 463.993 251.929 465.223L251.374 463.829ZM266.49 457.935L265.955 456.534C269.013 455.367 272.103 454.202 275.225 453.04L275.749 454.446L276.272 455.852C273.157 457.011 270.075 458.173 267.025 459.337L266.49 457.935ZM281.34 452.381L280.824 450.972C283.954 449.825 287.115 448.68 290.31 447.538L290.815 448.95L291.32 450.362C288.133 451.502 284.979 452.644 281.857 453.789L281.34 452.381ZM296.593 446.899L296.095 445.484C299.196 444.392 302.328 443.301 305.49 442.213L305.978 443.632L306.466 445.05C303.311 446.136 300.186 447.224 297.092 448.314L296.593 446.899ZM311.604 441.71L311.122 440.289C314.268 439.222 317.444 438.157 320.65 437.094L321.122 438.518L321.594 439.942C318.395 441.002 315.226 442.065 312.086 443.13L311.604 441.71ZM326.919 436.61L326.453 435.184C329.619 434.149 332.813 433.117 336.036 432.087L336.493 433.516L336.95 434.944C333.733 435.972 330.544 437.003 327.385 438.036L326.919 436.61ZM342.13 431.726L341.678 430.296C344.829 429.302 348.007 428.311 351.212 427.322L351.654 428.755L352.096 430.188C348.897 431.175 345.726 432.165 342.581 433.157L342.13 431.726ZM357.447 426.979L357.01 425.544C360.248 424.558 363.513 423.575 366.805 422.594L367.233 424.031L367.662 425.469C364.375 426.448 361.116 427.43 357.884 428.414L357.447 426.979ZM372.907 422.351L372.484 420.912C375.628 419.987 378.798 419.063 381.992 418.143L382.407 419.584L382.823 421.025C379.634 421.945 376.47 422.866 373.33 423.79L372.907 422.351ZM388.179 417.93L387.768 416.488C390.993 415.569 394.242 414.654 397.516 413.74L397.919 415.185L398.322 416.63C395.053 417.542 391.809 418.456 388.59 419.373L388.179 417.93ZM403.836 413.545L403.438 412.099C406.603 411.227 409.792 410.357 413.004 409.489L413.395 410.937L413.786 412.385C410.579 413.252 407.395 414.12 404.235 414.991L403.836 413.545ZM419.132 409.396L418.745 407.947C421.949 407.092 425.175 406.239 428.425 405.388L428.805 406.839L429.185 408.29C425.94 409.14 422.718 409.991 419.519 410.846L419.132 409.396ZM434.675 405.311L434.299 403.859C437.576 403.011 440.876 402.165 444.2 401.321L444.569 402.775L444.938 404.229C441.619 405.071 438.323 405.916 435.05 406.763L434.675 405.311ZM450.334 401.32L449.969 399.865C453.146 399.068 456.344 398.273 459.563 397.48L459.922 398.936L460.281 400.393C457.065 401.185 453.872 401.979 450.699 402.775L450.334 401.32ZM465.736 397.512L465.381 396.054C468.625 395.264 471.891 394.476 475.178 393.689L475.527 395.148L475.876 396.607C472.593 397.392 469.331 398.18 466.091 398.969L465.736 397.512ZM481.464 393.736L481.119 392.277C484.382 391.505 487.666 390.735 490.97 389.968L491.31 391.429L491.649 392.89C488.348 393.657 485.068 394.425 481.809 395.196L481.464 393.736ZM497.061 390.101L496.725 388.639C499.933 387.901 503.161 387.166 506.409 386.433L506.739 387.896L507.069 389.36C503.825 390.092 500.601 390.826 497.396 391.563L497.061 390.101ZM512.602 386.58L512.275 385.116C515.547 384.385 518.837 383.657 522.148 382.93L522.469 384.395L522.791 385.861C519.484 386.586 516.197 387.314 512.929 388.044L512.602 386.58ZM528.446 383.091L528.128 381.625C529.795 381.263 531.467 380.902 533.144 380.541L533.459 382.007L533.775 383.474C532.1 383.834 530.43 384.195 528.764 384.557L528.446 383.091ZM533.459 382.007L533.144 380.541C534.831 380.178 536.509 379.814 538.179 379.449L538.499 380.914L538.82 382.38C537.147 382.745 535.465 383.11 533.775 383.474L533.459 382.007ZM544.478 379.595L544.152 378.13C547.449 377.396 550.712 376.657 553.94 375.914L554.276 377.376L554.612 378.838C551.377 379.582 548.108 380.322 544.804 381.059L544.478 379.595ZM560.056 376.034L559.713 374.574C562.9 373.826 566.053 373.075 569.172 372.321L569.524 373.779L569.877 375.236C566.752 375.993 563.592 376.746 560.398 377.494L560.056 376.034ZM575.108 372.414L574.748 370.958C578.045 370.145 581.303 369.327 584.523 368.505L584.894 369.959L585.265 371.412C582.037 372.236 578.771 373.055 575.467 373.871L575.108 372.414ZM590.789 368.438L590.411 366.986C593.658 366.14 596.865 365.289 600.032 364.434L600.423 365.882L600.814 367.33C597.639 368.188 594.423 369.041 591.168 369.889L590.789 368.438ZM606.089 364.336L605.69 362.89C608.809 362.03 611.889 361.166 614.929 360.297L615.341 361.74L615.753 363.182C612.704 364.053 609.615 364.92 606.487 365.782L606.089 364.336ZM621.123 360.069L620.702 358.63C623.995 357.668 627.24 356.7 630.439 355.729L630.875 357.164L631.311 358.599C628.102 359.574 624.846 360.544 621.543 361.509L621.123 360.069ZM636.591 355.406L636.146 353.974C639.288 352.996 642.384 352.014 645.433 351.027L645.895 352.454L646.357 353.881C643.296 354.872 640.19 355.858 637.037 356.839L636.591 355.406ZM651.344 350.669L650.872 349.245C654.12 348.169 657.314 347.087 660.454 345.999L660.945 347.417L661.435 348.834C658.282 349.926 655.076 351.012 651.816 352.093L651.344 350.669ZM666.66 345.411L666.158 343.998C669.293 342.883 672.373 341.762 675.399 340.637L675.922 342.043L676.445 343.448C673.405 344.579 670.312 345.705 667.163 346.824L666.66 345.411ZM681.321 340.006L680.786 338.605C683.938 337.4 687.028 336.189 690.057 334.973L690.616 336.365L691.175 337.757C688.13 338.979 685.024 340.196 681.857 341.407L681.321 340.006ZM696.25 334.067L695.676 332.681C698.758 331.405 701.774 330.122 704.726 328.834L705.326 330.209L705.926 331.584C702.957 332.88 699.923 334.17 696.824 335.453L696.25 334.067ZM710.584 327.877L709.968 326.51C713.078 325.108 716.112 323.701 719.072 322.287L719.718 323.64L720.365 324.994C717.384 326.418 714.33 327.835 711.201 329.245L710.584 327.877ZM725.146 321L724.48 319.656C727.438 318.19 730.317 316.718 733.119 315.24L733.819 316.566L734.519 317.893C731.694 319.383 728.792 320.867 725.812 322.344L725.146 321ZM738.951 313.805L738.229 312.49C741.26 310.827 744.196 309.156 747.037 307.478L747.799 308.77L748.562 310.062C745.693 311.756 742.73 313.442 739.673 315.12L738.951 313.805ZM752.838 305.727L752.049 304.451C754.875 302.705 757.601 300.952 760.229 299.192L761.064 300.439L761.898 301.685C759.239 303.466 756.482 305.239 753.626 307.003L752.838 305.727ZM766.095 296.978L765.229 295.753C767.939 293.838 770.535 291.915 773.019 289.986L773.939 291.171L774.859 292.356C772.338 294.314 769.706 296.263 766.961 298.203L766.095 296.978ZM778.582 287.453L777.626 286.296C780.254 284.124 782.744 281.945 785.099 279.758L786.12 280.857L787.14 281.957C784.741 284.184 782.208 286.402 779.538 288.609L778.582 287.453ZM790.255 276.876L789.194 275.815C791.628 273.382 793.899 270.941 796.012 268.494L797.147 269.475L798.283 270.455C796.119 272.96 793.798 275.454 791.315 277.937L790.255 276.876ZM800.848 264.981L799.667 264.056C801.76 261.386 803.669 258.71 805.402 256.029L806.662 256.843L807.922 257.657C806.138 260.418 804.175 263.168 802.028 265.907L800.848 264.981ZM809.692 251.836L808.386 251.098C810.037 248.177 811.483 245.249 812.734 242.318L814.113 242.906L815.493 243.495C814.198 246.531 812.702 249.558 810.998 252.574L809.692 251.836ZM816.221 237.443L814.803 236.953C815.885 233.82 816.75 230.682 817.407 227.542L818.875 227.849L820.343 228.156C819.66 231.421 818.762 234.681 817.638 237.933L816.221 237.443ZM819.86 222.026L818.373 221.833C818.793 218.601 818.998 215.366 819 212.129L820.5 212.129L822 212.13C821.998 215.494 821.784 218.858 821.348 222.219L819.86 222.026ZM820.281 206.205L818.785 206.316C818.547 203.092 818.111 199.866 817.488 196.64L818.961 196.355L820.433 196.07C821.078 199.407 821.53 202.749 821.777 206.095L820.281 206.205ZM817.655 190.608L816.204 190.986C815.392 187.871 814.409 184.757 813.264 181.645L814.671 181.127L816.079 180.609C817.256 183.807 818.269 187.015 819.107 190.229L817.655 190.608ZM812.484 175.64L811.105 176.231C809.837 173.273 808.426 170.319 806.878 167.371L808.206 166.674L809.534 165.976C811.116 168.99 812.562 172.015 813.863 175.049L812.484 175.64ZM805.341 161.488L804.043 162.24C802.426 159.449 800.69 156.665 798.84 153.889L800.089 153.057L801.337 152.226C803.219 155.051 804.989 157.888 806.639 160.736L805.341 161.488ZM796.718 148.179L795.499 149.052C793.614 146.418 791.631 143.793 789.555 141.178L790.729 140.245L791.904 139.312C794.01 141.964 796.024 144.63 797.938 147.306L796.718 148.179ZM786.984 135.657L785.835 136.622C783.743 134.128 781.568 131.645 779.315 129.173L780.424 128.162L781.532 127.152C783.812 129.653 786.013 132.167 788.133 134.693L786.984 135.657ZM776.397 123.841L775.311 124.876C773.053 122.506 770.725 120.147 768.332 117.801L769.382 116.73L770.432 115.659C772.849 118.028 775.201 120.411 777.483 122.807L776.397 123.841ZM765.14 112.647L764.11 113.738C761.728 111.488 759.288 109.25 756.793 107.025L757.792 105.905L758.79 104.786C761.306 107.029 763.767 109.286 766.17 111.557L765.14 112.647ZM753.345 102.003L752.364 103.138C749.893 101.004 747.372 98.8822 744.807 96.7743L745.759 95.6153L746.711 94.4562C749.295 96.5792 751.834 98.7167 754.325 100.868L753.345 102.003ZM741.109 91.8498L740.173 93.0219C737.628 90.9893 735.041 88.9701 732.417 86.9653L733.328 85.7734L734.239 84.5814C736.879 86.5988 739.483 88.6312 742.045 90.6777L741.109 91.8498ZM728.55 82.1693L727.654 83.3723C725.032 81.4195 722.376 79.4809 719.688 77.5575L720.561 76.3376L721.434 75.1178C724.137 77.052 726.808 79.0018 729.446 80.9664L728.55 82.1693ZM715.7 72.899L714.84 74.1282C712.145 72.2436 709.422 70.3742 706.672 68.5208L707.51 67.277L708.349 66.0331C711.112 67.8959 713.85 69.775 716.559 71.6697L715.7 72.899ZM702.572 63.9833L701.746 65.2353C698.994 63.4195 696.219 61.6199 693.423 59.837L694.23 58.5723L695.037 57.3076C697.845 59.0986 700.633 60.9068 703.398 62.7314L702.572 63.9833ZM689.209 55.4021L688.414 56.674C685.622 54.9289 682.812 53.2006 679.986 51.4899L680.763 50.2067L681.54 48.9235C684.378 50.6415 687.2 52.3773 690.004 54.1302L689.209 55.4021ZM675.652 47.1413L674.885 48.4309C672.052 46.7478 669.205 45.0825 666.346 43.4357L667.095 42.136L667.844 40.8362C670.714 42.4895 673.573 44.1616 676.418 45.8517L675.652 47.1413ZM661.928 39.1861L661.189 40.4917C658.314 38.8648 655.428 37.2569 652.536 35.6687L653.258 34.3539L653.981 33.0391C656.883 34.6333 659.78 36.2474 662.666 37.8806L661.928 39.1861ZM648.031 31.5081L647.318 32.8282C644.413 31.2603 641.502 29.7126 638.589 28.1857L639.285 26.8571L639.981 25.5285C642.905 27.0609 645.827 28.6143 648.743 30.188L648.031 31.5081ZM633.987 24.1046L633.3 25.4381C630.362 23.9246 627.423 22.4326 624.486 20.963L625.157 19.6216L625.828 18.2802C628.776 19.755 631.725 21.2521 634.674 22.7711L633.987 24.1046ZM619.824 16.9761L619.162 18.3221C616.181 16.8563 613.205 15.4139 610.235 13.9958L610.882 12.6422L611.528 11.2886C614.508 12.7117 617.495 14.1591 620.486 15.63L619.824 16.9761ZM605.536 10.1115L604.898 11.4694C601.878 10.052 598.866 8.66022 595.867 7.29493L596.489 5.92975L597.11 4.56458C600.12 5.93461 603.142 7.33119 606.173 8.75355L605.536 10.1115ZM591.079 3.48935L590.467 4.85877C588.971 4.19013 587.479 3.52826 585.991 2.87327L586.595 1.50037L587.199 0.127464C588.693 0.784761 590.19 1.44895 591.691 2.11993L591.079 3.48935Z" fill="#CFCFE2"/>
</svg>
